####
#
# OBJ File Generated by Meshlab
#
####
# Object base_link.obj
#
# Vertices: 262
# Faces: 520
#
####
mtllib ./base_link.obj.mtl

vn -3.123826 -0.298289 -3.046394
v -35.588120 -3.398253 3.750000
vn -3.138035 -0.000000 -3.046392
v -35.750000 -0.000000 3.750000
vn -3.137924 -0.000000 -3.238258
v -34.000000 -0.000000 3.750000
vn -3.123825 0.298289 -3.046394
v -35.588120 3.398253 3.750000
vn -3.123275 0.302853 -3.238256
v -33.841274 3.281473 3.750000
vn -3.081326 0.593877 -3.046392
v -35.103951 6.765732 3.750000
vn -3.079465 0.602879 -3.238258
v -33.366585 6.532309 3.750000
vn -3.010922 0.884087 -3.046393
v -34.301872 10.071939 3.750000
vn -3.006903 0.897276 -3.238256
v -32.580357 9.722153 3.750000
vn -2.913251 1.166289 -3.046393
v -33.189152 13.286933 3.750000
vn -2.906266 1.183294 -3.238258
v -31.489939 12.821224 3.750000
vn -2.789197 1.437930 -3.046392
v -31.775867 16.381598 3.750000
vn -2.778494 1.458266 -3.238256
v -30.105505 15.800588 3.750000
vn -2.639883 1.696549 -3.046393
v -30.074814 19.327909 3.750000
vn -2.624780 1.719621 -3.238257
v -28.439985 18.632425 3.750000
vn -2.466662 1.939805 -3.046392
v -28.101398 22.099184 3.750000
vn -2.446558 1.964922 -3.238257
v -26.508928 21.290297 3.750000
vn -2.271103 2.165492 -3.046393
v -25.873491 24.670324 3.750000
vn -2.245495 2.191876 -3.238256
v -24.330364 23.749386 3.750000
vn -2.054976 2.371568 -3.046392
v -23.411272 27.018047 3.750000
vn -2.023466 2.398365 -3.238257
v -21.924635 25.986734 3.750000
vn -1.820238 2.556168 -3.046393
v -20.737034 29.121090 3.750000
vn -1.782544 2.582461 -3.238257
v -19.314201 27.981451 3.750000
vn -1.569018 2.717617 -3.046393
v -17.875000 30.960407 3.750000
vn -1.524979 2.742445 -3.238256
v -16.523436 29.714912 3.750000
vn -1.303587 2.854456 -3.046392
v -14.851087 32.519344 3.750000
vn -1.253176 2.876824 -3.238257
v -13.578396 31.170935 3.750000
vn -1.026350 2.965446 -3.046393
v -11.692679 33.783779 3.750000
vn -0.969672 2.984343 -3.238257
v -10.506577 32.335922 3.750000
vn -0.739820 3.049578 -3.046392
v -8.428382 34.742264 3.750000
vn -0.677114 3.063998 -3.238257
v -7.336663 33.198997 3.750000
vn -0.446589 3.106094 -3.046393
v -5.087756 35.386116 3.750000
vn -0.378235 3.115045 -3.238256
v -4.098247 33.752102 3.750000
vn -0.149314 3.134480 -3.046392
v -1.701054 35.709507 3.750000
vn -0.075824 3.137008 -3.238258
v -0.821567 33.990074 3.750000
vn 0.149314 3.134480 -3.046393
v 1.701054 35.709507 3.750000
vn 0.227296 3.129681 -3.238256
v 2.462783 33.910686 3.750000
vn 0.446589 3.106094 -3.046393
v 5.087756 35.386116 3.750000
vn 0.528292 3.093133 -3.238258
v 5.724139 33.514687 3.750000
vn 0.739820 3.049578 -3.046393
v 8.428382 34.742264 3.750000
vn 0.824356 3.027706 -3.238256
v 8.932051 32.805767 3.750000
vn 1.026350 2.965445 -3.046393
v 11.692679 33.783779 3.750000
vn 1.112722 2.934010 -3.238257
v 12.056566 31.790552 3.750000
vn 1.303587 2.854457 -3.046392
v 14.851087 32.519344 3.750000
vn 1.390701 2.812919 -3.238257
v 15.068513 30.478516 3.750000
vn 1.569018 2.717618 -3.046393
v 17.875000 30.960407 3.750000
vn 1.655695 2.665566 -3.238257
v 17.939768 28.881910 3.750000
vn 1.820238 2.556168 -3.046393
v 20.737034 29.121090 3.750000
vn 1.905230 2.493324 -3.238257
v 20.643526 27.015640 3.750000
vn 2.054976 2.371568 -3.046392
v 23.411272 27.018047 3.750000
vn 2.136976 2.297804 -3.238257
v 23.154539 24.897135 3.750000
vn 2.271102 2.165492 -3.046394
v 25.873491 24.670324 3.750000
vn 2.348770 2.080829 -3.238257
v 25.449366 22.546171 3.750000
vn 2.466662 1.939805 -3.046392
v 28.101398 22.099184 3.750000
vn 2.538634 1.844425 -3.238257
v 27.506578 19.984699 3.750000
vn 2.639883 1.696549 -3.046393
v 30.074814 19.327909 3.750000
vn 2.704795 1.590801 -3.238257
v 29.306969 17.236635 3.750000
vn 2.789197 1.437930 -3.046393
v 31.775867 16.381598 3.750000
vn 2.845703 1.322325 -3.238258
v 30.833729 14.327638 3.750000
vn 2.913251 1.166289 -3.046393
v 33.189152 13.286933 3.750000
vn 2.960041 1.041501 -3.238257
v 32.072601 11.284867 3.750000
vn 3.010922 0.884087 -3.046393
v 34.301872 10.071939 3.750000
vn 3.046741 0.750955 -3.238256
v 33.012020 8.136733 3.750000
vn 3.081326 0.593877 -3.046392
v 35.103951 6.765732 3.750000
vn 3.104996 0.453397 -3.238258
v 33.643219 4.912628 3.750000
vn 3.123826 0.298289 -3.046394
v 35.588120 3.398253 3.750000
vn 3.134260 0.151603 -3.238257
v 33.960297 1.642655 3.750000
vn 3.138035 0.000000 -3.046392
v 35.750000 0.000000 3.750000
vn 3.134260 -0.151603 -3.238257
v 33.960297 -1.642655 3.750000
vn 3.123825 -0.298289 -3.046394
v 35.588120 -3.398253 3.750000
vn 3.104995 -0.453397 -3.238258
v 33.643219 -4.912628 3.750000
vn 3.081326 -0.593877 -3.046392
v 35.103951 -6.765732 3.750000
vn 3.046741 -0.750955 -3.238256
v 33.012020 -8.136733 3.750000
vn 3.010922 -0.884087 -3.046393
v 34.301872 -10.071939 3.750000
vn 2.960041 -1.041501 -3.238257
v 32.072601 -11.284867 3.750000
vn 2.913251 -1.166289 -3.046393
v 33.189152 -13.286933 3.750000
vn 2.845703 -1.322325 -3.238257
v 30.833729 -14.327638 3.750000
vn 2.789197 -1.437930 -3.046392
v 31.775867 -16.381598 3.750000
vn 2.704795 -1.590801 -3.238257
v 29.306969 -17.236635 3.750000
vn 2.639883 -1.696549 -3.046393
v 30.074814 -19.327909 3.750000
vn 2.538634 -1.844425 -3.238257
v 27.506578 -19.984699 3.750000
vn 2.466662 -1.939805 -3.046392
v 28.101398 -22.099184 3.750000
vn 2.348770 -2.080829 -3.238257
v 25.449366 -22.546171 3.750000
vn 2.271103 -2.165492 -3.046393
v 25.873491 -24.670324 3.750000
vn 2.136976 -2.297804 -3.238257
v 23.154539 -24.897135 3.750000
vn 2.054976 -2.371568 -3.046392
v 23.411272 -27.018047 3.750000
vn 1.905230 -2.493324 -3.238257
v 20.643526 -27.015640 3.750000
vn 1.820238 -2.556168 -3.046393
v 20.737034 -29.121090 3.750000
vn 1.655695 -2.665565 -3.238257
v 17.939768 -28.881910 3.750000
vn 1.569018 -2.717617 -3.046393
v 17.875000 -30.960407 3.750000
vn 1.390701 -2.812920 -3.238257
v 15.068513 -30.478516 3.750000
vn 1.303587 -2.854456 -3.046392
v 14.851087 -32.519344 3.750000
vn 1.112723 -2.934010 -3.238257
v 12.056566 -31.790552 3.750000
vn 1.026350 -2.965446 -3.046393
v 11.692679 -33.783779 3.750000
vn 0.824356 -3.027706 -3.238256
v 8.932051 -32.805767 3.750000
vn 0.739820 -3.049578 -3.046392
v 8.428382 -34.742264 3.750000
vn 0.528292 -3.093133 -3.238258
v 5.724139 -33.514687 3.750000
vn 0.446589 -3.106094 -3.046393
v 5.087756 -35.386116 3.750000
vn 0.227296 -3.129681 -3.238256
v 2.462783 -33.910686 3.750000
vn 0.149314 -3.134480 -3.046393
v 1.701054 -35.709507 3.750000
vn -0.075824 -3.137008 -3.238258
v -0.821567 -33.990074 3.750000
vn -0.149314 -3.134480 -3.046393
v -1.701054 -35.709507 3.750000
vn -0.378235 -3.115045 -3.238256
v -4.098247 -33.752102 3.750000
vn -0.446589 -3.106094 -3.046393
v -5.087756 -35.386116 3.750000
vn -0.677114 -3.063998 -3.238257
v -7.336663 -33.198997 3.750000
vn -0.739820 -3.049578 -3.046392
v -8.428382 -34.742264 3.750000
vn -0.969672 -2.984343 -3.238257
v -10.506577 -32.335922 3.750000
vn -1.026350 -2.965445 -3.046393
v -11.692679 -33.783779 3.750000
vn -1.253176 -2.876824 -3.238257
v -13.578396 -31.170935 3.750000
vn -1.303587 -2.854457 -3.046392
v -14.851087 -32.519344 3.750000
vn -1.524979 -2.742445 -3.238256
v -16.523436 -29.714912 3.750000
vn -1.569018 -2.717618 -3.046393
v -17.875000 -30.960407 3.750000
vn -1.782544 -2.582461 -3.238257
v -19.314201 -27.981451 3.750000
vn -1.820238 -2.556168 -3.046393
v -20.737034 -29.121090 3.750000
vn -2.023466 -2.398365 -3.238257
v -21.924635 -25.986734 3.750000
vn -2.054976 -2.371568 -3.046392
v -23.411272 -27.018047 3.750000
vn -2.245495 -2.191876 -3.238257
v -24.330364 -23.749386 3.750000
vn -2.271102 -2.165492 -3.046393
v -25.873491 -24.670324 3.750000
vn -2.446558 -1.964922 -3.238257
v -26.508928 -21.290297 3.750000
vn -2.466662 -1.939805 -3.046393
v -28.101398 -22.099184 3.750000
vn -2.624780 -1.719621 -3.238257
v -28.439985 -18.632425 3.750000
vn -2.639883 -1.696549 -3.046393
v -30.074814 -19.327909 3.750000
vn -2.778494 -1.458266 -3.238257
v -30.105505 -15.800588 3.750000
vn -2.789197 -1.437930 -3.046392
v -31.775867 -16.381598 3.750000
vn -2.906266 -1.183294 -3.238258
v -31.489939 -12.821224 3.750000
vn -2.913251 -1.166289 -3.046393
v -33.189152 -13.286933 3.750000
vn -3.006903 -0.897276 -3.238256
v -32.580357 -9.722153 3.750000
vn -3.010922 -0.884087 -3.046393
v -34.301872 -10.071939 3.750000
vn -3.079465 -0.602879 -3.238258
v -33.366585 -6.532309 3.750000
vn -3.081326 -0.593877 -3.046392
v -35.103951 -6.765732 3.750000
vn -3.123275 -0.302853 -3.238256
v -33.841274 -3.281473 3.750000
vn -3.123825 0.298289 3.046394
v -35.588120 3.398253 12.250000
vn -3.138035 0.000000 3.046392
v -35.750000 -0.000000 12.250000
vn -3.123825 -0.298289 3.046394
v -35.588120 -3.398253 12.250000
vn -3.081326 -0.593877 3.046392
v -35.103951 -6.765732 12.250000
vn -3.010922 -0.884087 3.046396
v -34.301872 -10.071939 12.250000
vn -2.913251 -1.166289 3.046395
v -33.189152 -13.286933 12.250000
vn -2.789197 -1.437930 3.046391
v -31.775867 -16.381598 12.250000
vn -2.639883 -1.696549 3.046393
v -30.074814 -19.327909 12.250000
vn -2.466662 -1.939805 3.046391
v -28.101398 -22.099184 12.250000
vn -2.271103 -2.165492 3.046394
v -25.873491 -24.670324 12.250000
vn -2.054976 -2.371568 3.046391
v -23.411272 -27.018047 12.250000
vn -1.820238 -2.556168 3.046393
v -20.737034 -29.121090 12.250000
vn -1.569018 -2.717617 3.046393
v -17.875000 -30.960407 12.250000
vn -1.303587 -2.854456 3.046393
v -14.851087 -32.519344 12.250000
vn -1.026350 -2.965446 3.046391
v -11.692679 -33.783779 12.250000
vn -0.739820 -3.049578 3.046393
v -8.428382 -34.742264 12.250000
vn -0.446589 -3.106094 3.046392
v -5.087756 -35.386116 12.250000
vn -0.149314 -3.134480 3.046393
v -1.701054 -35.709507 12.250000
vn 0.149314 -3.134480 3.046393
v 1.701054 -35.709507 12.250000
vn 0.446589 -3.106094 3.046393
v 5.087756 -35.386116 12.250000
vn 0.739820 -3.049578 3.046392
v 8.428382 -34.742264 12.250000
vn 1.026350 -2.965445 3.046393
v 11.692679 -33.783779 12.250000
vn 1.303587 -2.854457 3.046393
v 14.851087 -32.519344 12.250000
vn 1.569018 -2.717618 3.046393
v 17.875000 -30.960407 12.250000
vn 1.820238 -2.556168 3.046392
v 20.737034 -29.121090 12.250000
vn 2.054976 -2.371568 3.046392
v 23.411272 -27.018047 12.250000
vn 2.271102 -2.165492 3.046392
v 25.873491 -24.670324 12.250000
vn 2.466662 -1.939805 3.046393
v 28.101398 -22.099184 12.250000
vn 2.639883 -1.696549 3.046392
v 30.074814 -19.327909 12.250000
vn 2.789197 -1.437930 3.046394
v 31.775867 -16.381598 12.250000
vn 2.913251 -1.166289 3.046396
v 33.189152 -13.286933 12.250000
vn 3.010922 -0.884087 3.046393
v 34.301872 -10.071939 12.250000
vn 3.081326 -0.593877 3.046392
v 35.103951 -6.765732 12.250000
vn 3.123825 -0.298289 3.046394
v 35.588120 -3.398253 12.250000
vn 3.138035 -0.000000 3.046392
v 35.750000 0.000000 12.250000
vn 3.123825 0.298289 3.046394
v 35.588120 3.398253 12.250000
vn 3.081326 0.593877 3.046392
v 35.103951 6.765732 12.250000
vn 3.010922 0.884087 3.046396
v 34.301872 10.071939 12.250000
vn 2.913251 1.166289 3.046395
v 33.189152 13.286933 12.250000
vn 2.789197 1.437930 3.046391
v 31.775867 16.381598 12.250000
vn 2.639883 1.696549 3.046393
v 30.074814 19.327909 12.250000
vn 2.466662 1.939805 3.046391
v 28.101398 22.099184 12.250000
vn 2.271103 2.165492 3.046394
v 25.873491 24.670324 12.250000
vn 2.054976 2.371568 3.046391
v 23.411272 27.018047 12.250000
vn 1.820238 2.556168 3.046393
v 20.737034 29.121090 12.250000
vn 1.569018 2.717617 3.046393
v 17.875000 30.960407 12.250000
vn 1.303587 2.854456 3.046393
v 14.851087 32.519344 12.250000
vn 1.026350 2.965446 3.046391
v 11.692679 33.783779 12.250000
vn 0.739820 3.049578 3.046393
v 8.428382 34.742264 12.250000
vn 0.446589 3.106094 3.046392
v 5.087756 35.386116 12.250000
vn 0.149314 3.134480 3.046393
v 1.701054 35.709507 12.250000
vn -0.149314 3.134480 3.046393
v -1.701054 35.709507 12.250000
vn -0.446589 3.106094 3.046393
v -5.087756 35.386116 12.250000
vn -0.739820 3.049578 3.046392
v -8.428382 34.742264 12.250000
vn -1.026350 2.965445 3.046393
v -11.692679 33.783779 12.250000
vn -1.303587 2.854457 3.046393
v -14.851087 32.519344 12.250000
vn -1.569018 2.717618 3.046393
v -17.875000 30.960407 12.250000
vn -1.820238 2.556168 3.046392
v -20.737034 29.121090 12.250000
vn -2.054976 2.371568 3.046392
v -23.411272 27.018047 12.250000
vn -2.271102 2.165492 3.046392
v -25.873491 24.670324 12.250000
vn -2.466662 1.939805 3.046393
v -28.101398 22.099184 12.250000
vn -2.639883 1.696549 3.046392
v -30.074814 19.327909 12.250000
vn -2.789197 1.437930 3.046394
v -31.775867 16.381598 12.250000
vn -2.913251 1.166289 3.046396
v -33.189152 13.286933 12.250000
vn -3.010922 0.884087 3.046393
v -34.301872 10.071939 12.250000
vn -3.081326 0.593877 3.046392
v -35.103951 6.765732 12.250000
vn -3.123275 0.302853 -3.044929
v -33.841274 3.281473 0.000000
vn -3.137924 0.000000 -3.044928
v -34.000000 -0.000000 0.000000
vn -3.123275 -0.302853 -3.044929
v -33.841274 -3.281473 0.000000
vn -3.079465 -0.602879 -3.044928
v -33.366585 -6.532309 0.000000
vn -3.006903 -0.897276 -3.044931
v -32.580357 -9.722153 0.000000
vn -2.906266 -1.183294 -3.044929
v -31.489939 -12.821224 0.000000
vn -2.778494 -1.458266 -3.044930
v -30.105505 -15.800588 0.000000
vn -2.624780 -1.719621 -3.044928
v -28.439985 -18.632425 0.000000
vn -2.446558 -1.964922 -3.044928
v -26.508928 -21.290297 0.000000
vn -2.245495 -2.191876 -3.044931
v -24.330364 -23.749386 0.000000
vn -2.023466 -2.398365 -3.044928
v -21.924635 -25.986734 0.000000
vn -1.782544 -2.582461 -3.044927
v -19.314201 -27.981451 0.000000
vn -1.524979 -2.742445 -3.044929
v -16.523436 -29.714912 0.000000
vn -1.253176 -2.876824 -3.044929
v -13.578396 -31.170935 0.000000
vn -0.969672 -2.984343 -3.044929
v -10.506577 -32.335922 0.000000
vn -0.677114 -3.063998 -3.044928
v -7.336663 -33.198997 0.000000
vn -0.378235 -3.115045 -3.044931
v -4.098247 -33.752102 0.000000
vn -0.075824 -3.137008 -3.044926
v -0.821567 -33.990074 0.000000
vn 0.227296 -3.129681 -3.044930
v 2.462783 -33.910686 0.000000
vn 0.528292 -3.093133 -3.044926
v 5.724139 -33.514687 0.000000
vn 0.824356 -3.027706 -3.044929
v 8.932051 -32.805767 0.000000
vn 1.112722 -2.934010 -3.044929
v 12.056566 -31.790552 0.000000
vn 1.390701 -2.812919 -3.044928
v 15.068513 -30.478516 0.000000
vn 1.655695 -2.665565 -3.044928
v 17.939768 -28.881910 0.000000
vn 1.905230 -2.493324 -3.044927
v 20.643526 -27.015640 0.000000
vn 2.136976 -2.297804 -3.044930
v 23.154539 -24.897135 0.000000
vn 2.348770 -2.080829 -3.044930
v 25.449366 -22.546171 0.000000
vn 2.538634 -1.844425 -3.044929
v 27.506578 -19.984699 0.000000
vn 2.704795 -1.590801 -3.044929
v 29.306969 -17.236635 0.000000
vn 2.845703 -1.322325 -3.044929
v 30.833729 -14.327638 0.000000
vn 2.960041 -1.041501 -3.044929
v 32.072601 -11.284867 0.000000
vn 3.046741 -0.750955 -3.044930
v 33.012020 -8.136733 0.000000
vn 3.104996 -0.453397 -3.044929
v 33.643219 -4.912628 0.000000
vn 3.134260 -0.151603 -3.044936
v 33.960297 -1.642655 0.000000
vn 3.134260 0.151603 -3.044928
v 33.960297 1.642655 0.000000
vn 3.104995 0.453397 -3.044927
v 33.643219 4.912628 0.000000
vn 3.046741 0.750955 -3.044928
v 33.012020 8.136733 0.000000
vn 2.960041 1.041501 -3.044928
v 32.072601 11.284867 0.000000
vn 2.845703 1.322325 -3.044928
v 30.833729 14.327638 0.000000
vn 2.704795 1.590801 -3.044929
v 29.306969 17.236635 0.000000
vn 2.538634 1.844425 -3.044928
v 27.506578 19.984699 0.000000
vn 2.348770 2.080829 -3.044928
v 25.449366 22.546171 0.000000
vn 2.136976 2.297804 -3.044929
v 23.154539 24.897135 0.000000
vn 1.905230 2.493324 -3.044929
v 20.643526 27.015640 0.000000
vn 1.655695 2.665566 -3.044928
v 17.939768 28.881910 0.000000
vn 1.390701 2.812920 -3.044928
v 15.068513 30.478516 0.000000
vn 1.112723 2.934010 -3.044928
v 12.056566 31.790552 0.000000
vn 0.824356 3.027706 -3.044929
v 8.932051 32.805767 0.000000
vn 0.528292 3.093133 -3.044928
v 5.724139 33.514687 0.000000
vn 0.227296 3.129681 -3.044929
v 2.462783 33.910686 0.000000
vn -0.075824 3.137008 -3.044927
v -0.821567 33.990074 0.000000
vn -0.378235 3.115045 -3.044929
v -4.098247 33.752102 0.000000
vn -0.677114 3.063998 -3.044928
v -7.336663 33.198997 0.000000
vn -0.969672 2.984343 -3.044928
v -10.506577 32.335922 0.000000
vn -1.253176 2.876824 -3.044928
v -13.578396 31.170935 0.000000
vn -1.524979 2.742445 -3.044929
v -16.523436 29.714912 0.000000
vn -1.782544 2.582461 -3.044928
v -19.314201 27.981451 0.000000
vn -2.023466 2.398365 -3.044928
v -21.924635 25.986734 0.000000
vn -2.245495 2.191876 -3.044929
v -24.330364 23.749386 0.000000
vn -2.446558 1.964922 -3.044928
v -26.508928 21.290297 0.000000
vn -2.624780 1.719622 -3.044928
v -28.439985 18.632425 0.000000
vn -2.778494 1.458266 -3.044929
v -30.105505 15.800588 0.000000
vn -2.906266 1.183294 -3.044928
v -31.489939 12.821224 0.000000
vn -3.006903 0.897276 -3.044930
v -32.580357 9.722153 0.000000
vn -3.079465 0.602879 -3.044927
v -33.366585 6.532309 0.000000
# 262 vertices, 0 vertices normals


usemtl material_0
f 1//1 2//2 3//3
f 3//3 2//2 4//4
f 3//3 4//4 5//5
f 5//5 4//4 6//6
f 5//5 6//6 7//7
f 7//7 6//6 8//8
f 7//7 8//8 9//9
f 9//9 8//8 10//10
f 9//9 10//10 11//11
f 11//11 10//10 12//12
f 11//11 12//12 13//13
f 13//13 12//12 14//14
f 13//13 14//14 15//15
f 15//15 14//14 16//16
f 15//15 16//16 17//17
f 17//17 16//16 18//18
f 17//17 18//18 19//19
f 19//19 18//18 20//20
f 19//19 20//20 21//21
f 21//21 20//20 22//22
f 21//21 22//22 23//23
f 23//23 22//22 24//24
f 23//23 24//24 25//25
f 25//25 24//24 26//26
f 25//25 26//26 27//27
f 27//27 26//26 28//28
f 27//27 28//28 29//29
f 29//29 28//28 30//30
f 29//29 30//30 31//31
f 31//31 30//30 32//32
f 31//31 32//32 33//33
f 33//33 32//32 34//34
f 33//33 34//34 35//35
f 35//35 34//34 36//36
f 35//35 36//36 37//37
f 37//37 36//36 38//38
f 37//37 38//38 39//39
f 39//39 38//38 40//40
f 39//39 40//40 41//41
f 41//41 40//40 42//42
f 41//41 42//42 43//43
f 43//43 42//42 44//44
f 43//43 44//44 45//45
f 45//45 44//44 46//46
f 45//45 46//46 47//47
f 47//47 46//46 48//48
f 47//47 48//48 49//49
f 49//49 48//48 50//50
f 49//49 50//50 51//51
f 51//51 50//50 52//52
f 51//51 52//52 53//53
f 53//53 52//52 54//54
f 53//53 54//54 55//55
f 55//55 54//54 56//56
f 55//55 56//56 57//57
f 57//57 56//56 58//58
f 57//57 58//58 59//59
f 59//59 58//58 60//60
f 59//59 60//60 61//61
f 61//61 60//60 62//62
f 61//61 62//62 63//63
f 63//63 62//62 64//64
f 63//63 64//64 65//65
f 65//65 64//64 66//66
f 65//65 66//66 67//67
f 67//67 66//66 68//68
f 67//67 68//68 69//69
f 69//69 68//68 70//70
f 69//69 70//70 71//71
f 71//71 70//70 72//72
f 71//71 72//72 73//73
f 73//73 72//72 74//74
f 73//73 74//74 75//75
f 75//75 74//74 76//76
f 75//75 76//76 77//77
f 77//77 76//76 78//78
f 77//77 78//78 79//79
f 79//79 78//78 80//80
f 79//79 80//80 81//81
f 81//81 80//80 82//82
f 81//81 82//82 83//83
f 83//83 82//82 84//84
f 83//83 84//84 85//85
f 85//85 84//84 86//86
f 85//85 86//86 87//87
f 87//87 86//86 88//88
f 87//87 88//88 89//89
f 89//89 88//88 90//90
f 89//89 90//90 91//91
f 91//91 90//90 92//92
f 91//91 92//92 93//93
f 93//93 92//92 94//94
f 93//93 94//94 95//95
f 95//95 94//94 96//96
f 95//95 96//96 97//97
f 97//97 96//96 98//98
f 97//97 98//98 99//99
f 99//99 98//98 100//100
f 99//99 100//100 101//101
f 101//101 100//100 102//102
f 101//101 102//102 103//103
f 103//103 102//102 104//104
f 103//103 104//104 105//105
f 105//105 104//104 106//106
f 105//105 106//106 107//107
f 107//107 106//106 108//108
f 107//107 108//108 109//109
f 109//109 108//108 110//110
f 109//109 110//110 111//111
f 111//111 110//110 112//112
f 111//111 112//112 113//113
f 113//113 112//112 114//114
f 113//113 114//114 115//115
f 115//115 114//114 116//116
f 115//115 116//116 117//117
f 117//117 116//116 118//118
f 117//117 118//118 119//119
f 119//119 118//118 120//120
f 119//119 120//120 121//121
f 121//121 120//120 122//122
f 121//121 122//122 123//123
f 123//123 122//122 124//124
f 123//123 124//124 125//125
f 125//125 124//124 126//126
f 125//125 126//126 127//127
f 127//127 126//126 128//128
f 127//127 128//128 129//129
f 129//129 128//128 130//130
f 129//129 130//130 131//131
f 131//131 130//130 1//1
f 131//131 1//1 3//3
f 132//132 4//4 133//133
f 133//133 4//4 2//2
f 133//133 2//2 134//134
f 134//134 2//2 1//1
f 134//134 1//1 135//135
f 135//135 1//1 130//130
f 135//135 130//130 136//136
f 136//136 130//130 128//128
f 136//136 128//128 137//137
f 137//137 128//128 126//126
f 137//137 126//126 138//138
f 138//138 126//126 124//124
f 138//138 124//124 139//139
f 139//139 124//124 122//122
f 139//139 122//122 140//140
f 140//140 122//122 120//120
f 140//140 120//120 141//141
f 141//141 120//120 118//118
f 141//141 118//118 142//142
f 142//142 118//118 116//116
f 142//142 116//116 143//143
f 143//143 116//116 114//114
f 143//143 114//114 144//144
f 144//144 114//114 112//112
f 144//144 112//112 145//145
f 145//145 112//112 110//110
f 145//145 110//110 146//146
f 146//146 110//110 108//108
f 146//146 108//108 147//147
f 147//147 108//108 106//106
f 147//147 106//106 148//148
f 148//148 106//106 104//104
f 148//148 104//104 149//149
f 149//149 104//104 102//102
f 149//149 102//102 150//150
f 150//150 102//102 100//100
f 150//150 100//100 151//151
f 151//151 100//100 98//98
f 151//151 98//98 152//152
f 152//152 98//98 96//96
f 152//152 96//96 153//153
f 153//153 96//96 94//94
f 153//153 94//94 154//154
f 154//154 94//94 92//92
f 154//154 92//92 155//155
f 155//155 92//92 90//90
f 155//155 90//90 156//156
f 156//156 90//90 88//88
f 156//156 88//88 157//157
f 157//157 88//88 86//86
f 157//157 86//86 158//158
f 158//158 86//86 84//84
f 158//158 84//84 159//159
f 159//159 84//84 82//82
f 159//159 82//82 160//160
f 160//160 82//82 80//80
f 160//160 80//80 161//161
f 161//161 80//80 78//78
f 161//161 78//78 162//162
f 162//162 78//78 76//76
f 162//162 76//76 163//163
f 163//163 76//76 74//74
f 163//163 74//74 164//164
f 164//164 74//74 72//72
f 164//164 72//72 165//165
f 165//165 72//72 70//70
f 165//165 70//70 166//166
f 166//166 70//70 68//68
f 166//166 68//68 167//167
f 167//167 68//68 66//66
f 167//167 66//66 168//168
f 168//168 66//66 64//64
f 168//168 64//64 169//169
f 169//169 64//64 62//62
f 169//169 62//62 170//170
f 170//170 62//62 60//60
f 170//170 60//60 171//171
f 171//171 60//60 58//58
f 171//171 58//58 172//172
f 172//172 58//58 56//56
f 172//172 56//56 173//173
f 173//173 56//56 54//54
f 173//173 54//54 174//174
f 174//174 54//54 52//52
f 174//174 52//52 175//175
f 175//175 52//52 50//50
f 175//175 50//50 176//176
f 176//176 50//50 48//48
f 176//176 48//48 177//177
f 177//177 48//48 46//46
f 177//177 46//46 178//178
f 178//178 46//46 44//44
f 178//178 44//44 179//179
f 179//179 44//44 42//42
f 179//179 42//42 180//180
f 180//180 42//42 40//40
f 180//180 40//40 181//181
f 181//181 40//40 38//38
f 181//181 38//38 182//182
f 182//182 38//38 36//36
f 182//182 36//36 183//183
f 183//183 36//36 34//34
f 183//183 34//34 184//184
f 184//184 34//34 32//32
f 184//184 32//32 185//185
f 185//185 32//32 30//30
f 185//185 30//30 186//186
f 186//186 30//30 28//28
f 186//186 28//28 187//187
f 187//187 28//28 26//26
f 187//187 26//26 188//188
f 188//188 26//26 24//24
f 188//188 24//24 189//189
f 189//189 24//24 22//22
f 189//189 22//22 190//190
f 190//190 22//22 20//20
f 190//190 20//20 191//191
f 191//191 20//20 18//18
f 191//191 18//18 192//192
f 192//192 18//18 16//16
f 192//192 16//16 193//193
f 193//193 16//16 14//14
f 193//193 14//14 194//194
f 194//194 14//14 12//12
f 194//194 12//12 195//195
f 195//195 12//12 10//10
f 195//195 10//10 196//196
f 196//196 10//10 8//8
f 196//196 8//8 197//197
f 197//197 8//8 6//6
f 197//197 6//6 132//132
f 132//132 6//6 4//4
f 134//134 165//165 133//133
f 133//133 165//165 166//166
f 133//133 166//166 132//132
f 132//132 166//166 167//167
f 132//132 167//167 197//197
f 197//197 167//167 168//168
f 197//197 168//168 196//196
f 196//196 168//168 169//169
f 196//196 169//169 195//195
f 195//195 169//169 170//170
f 195//195 170//170 194//194
f 194//194 170//170 171//171
f 194//194 171//171 193//193
f 193//193 171//171 172//172
f 193//193 172//172 192//192
f 192//192 172//172 173//173
f 192//192 173//173 191//191
f 191//191 173//173 174//174
f 191//191 174//174 190//190
f 190//190 174//174 175//175
f 190//190 175//175 189//189
f 189//189 175//175 176//176
f 189//189 176//176 188//188
f 188//188 176//176 177//177
f 188//188 177//177 187//187
f 187//187 177//177 178//178
f 187//187 178//178 186//186
f 186//186 178//178 179//179
f 186//186 179//179 185//185
f 185//185 179//179 180//180
f 185//185 180//180 184//184
f 184//184 180//180 181//181
f 184//184 181//181 183//183
f 183//183 181//181 182//182
f 165//165 134//134 164//164
f 164//164 134//134 135//135
f 164//164 135//135 163//163
f 163//163 135//135 136//136
f 163//163 136//136 162//162
f 162//162 136//136 137//137
f 162//162 137//137 161//161
f 161//161 137//137 138//138
f 161//161 138//138 160//160
f 160//160 138//138 139//139
f 160//160 139//139 159//159
f 159//159 139//139 140//140
f 159//159 140//140 158//158
f 158//158 140//140 141//141
f 158//158 141//141 157//157
f 157//157 141//141 142//142
f 157//157 142//142 156//156
f 156//156 142//142 143//143
f 156//156 143//143 155//155
f 155//155 143//143 144//144
f 155//155 144//144 154//154
f 154//154 144//144 145//145
f 154//154 145//145 153//153
f 153//153 145//145 146//146
f 153//153 146//146 152//152
f 152//152 146//146 147//147
f 152//152 147//147 151//151
f 151//151 147//147 148//148
f 151//151 148//148 150//150
f 150//150 148//148 149//149
f 5//5 198//198 3//3
f 3//3 198//198 199//199
f 3//3 199//199 131//131
f 131//131 199//199 200//200
f 131//131 200//200 129//129
f 129//129 200//200 201//201
f 129//129 201//201 127//127
f 127//127 201//201 202//202
f 127//127 202//202 125//125
f 125//125 202//202 203//203
f 125//125 203//203 123//123
f 123//123 203//203 204//204
f 123//123 204//204 121//121
f 121//121 204//204 205//205
f 121//121 205//205 119//119
f 119//119 205//205 206//206
f 119//119 206//206 117//117
f 117//117 206//206 207//207
f 117//117 207//207 115//115
f 115//115 207//207 208//208
f 115//115 208//208 113//113
f 113//113 208//208 209//209
f 113//113 209//209 111//111
f 111//111 209//209 210//210
f 111//111 210//210 109//109
f 109//109 210//210 211//211
f 109//109 211//211 107//107
f 107//107 211//211 212//212
f 107//107 212//212 105//105
f 105//105 212//212 213//213
f 105//105 213//213 103//103
f 103//103 213//213 214//214
f 103//103 214//214 101//101
f 101//101 214//214 215//215
f 101//101 215//215 99//99
f 99//99 215//215 216//216
f 99//99 216//216 97//97
f 97//97 216//216 217//217
f 97//97 217//217 95//95
f 95//95 217//217 218//218
f 95//95 218//218 93//93
f 93//93 218//218 219//219
f 93//93 219//219 91//91
f 91//91 219//219 220//220
f 91//91 220//220 89//89
f 89//89 220//220 221//221
f 89//89 221//221 87//87
f 87//87 221//221 222//222
f 87//87 222//222 85//85
f 85//85 222//222 223//223
f 85//85 223//223 83//83
f 83//83 223//223 224//224
f 83//83 224//224 81//81
f 81//81 224//224 225//225
f 81//81 225//225 79//79
f 79//79 225//225 226//226
f 79//79 226//226 77//77
f 77//77 226//226 227//227
f 77//77 227//227 75//75
f 75//75 227//227 228//228
f 75//75 228//228 73//73
f 73//73 228//228 229//229
f 73//73 229//229 71//71
f 71//71 229//229 230//230
f 71//71 230//230 69//69
f 69//69 230//230 231//231
f 69//69 231//231 67//67
f 67//67 231//231 232//232
f 67//67 232//232 65//65
f 65//65 232//232 233//233
f 65//65 233//233 63//63
f 63//63 233//233 234//234
f 63//63 234//234 61//61
f 61//61 234//234 235//235
f 61//61 235//235 59//59
f 59//59 235//235 236//236
f 59//59 236//236 57//57
f 57//57 236//236 237//237
f 57//57 237//237 55//55
f 55//55 237//237 238//238
f 55//55 238//238 53//53
f 53//53 238//238 239//239
f 53//53 239//239 51//51
f 51//51 239//239 240//240
f 51//51 240//240 49//49
f 49//49 240//240 241//241
f 49//49 241//241 47//47
f 47//47 241//241 242//242
f 47//47 242//242 45//45
f 45//45 242//242 243//243
f 45//45 243//243 43//43
f 43//43 243//243 244//244
f 43//43 244//244 41//41
f 41//41 244//244 245//245
f 41//41 245//245 39//39
f 39//39 245//245 246//246
f 39//39 246//246 37//37
f 37//37 246//246 247//247
f 37//37 247//247 35//35
f 35//35 247//247 248//248
f 35//35 248//248 33//33
f 33//33 248//248 249//249
f 33//33 249//249 31//31
f 31//31 249//249 250//250
f 31//31 250//250 29//29
f 29//29 250//250 251//251
f 29//29 251//251 27//27
f 27//27 251//251 252//252
f 27//27 252//252 25//25
f 25//25 252//252 253//253
f 25//25 253//253 23//23
f 23//23 253//253 254//254
f 23//23 254//254 21//21
f 21//21 254//254 255//255
f 21//21 255//255 19//19
f 19//19 255//255 256//256
f 19//19 256//256 17//17
f 17//17 256//256 257//257
f 17//17 257//257 15//15
f 15//15 257//257 258//258
f 15//15 258//258 13//13
f 13//13 258//258 259//259
f 13//13 259//259 11//11
f 11//11 259//259 260//260
f 11//11 260//260 9//9
f 9//9 260//260 261//261
f 9//9 261//261 7//7
f 7//7 261//261 262//262
f 7//7 262//262 5//5
f 5//5 262//262 198//198
f 200//200 199//199 231//231
f 231//231 199//199 198//198
f 231//231 198//198 262//262
f 262//262 261//261 231//231
f 231//231 261//261 260//260
f 231//231 260//260 259//259
f 259//259 258//258 231//231
f 231//231 258//258 257//257
f 231//231 257//257 256//256
f 256//256 255//255 231//231
f 231//231 255//255 254//254
f 231//231 254//254 253//253
f 253//253 252//252 231//231
f 231//231 252//252 251//251
f 231//231 251//251 250//250
f 250//250 249//249 231//231
f 231//231 249//249 248//248
f 231//231 248//248 247//247
f 247//247 246//246 231//231
f 231//231 246//246 245//245
f 231//231 245//245 244//244
f 244//244 243//243 231//231
f 231//231 243//243 242//242
f 231//231 242//242 241//241
f 241//241 240//240 231//231
f 231//231 240//240 239//239
f 231//231 239//239 238//238
f 238//238 237//237 231//231
f 231//231 237//237 236//236
f 231//231 236//236 235//235
f 235//235 234//234 231//231
f 231//231 234//234 232//232
f 232//232 234//234 233//233
f 231//231 230//230 200//200
f 200//200 230//230 201//201
f 201//201 230//230 229//229
f 201//201 229//229 202//202
f 202//202 229//229 228//228
f 202//202 228//228 203//203
f 203//203 228//228 227//227
f 203//203 227//227 204//204
f 204//204 227//227 226//226
f 204//204 226//226 205//205
f 205//205 226//226 225//225
f 205//205 225//225 206//206
f 206//206 225//225 224//224
f 206//206 224//224 207//207
f 207//207 224//224 223//223
f 207//207 223//223 208//208
f 208//208 223//223 222//222
f 208//208 222//222 209//209
f 209//209 222//222 221//221
f 209//209 221//221 210//210
f 210//210 221//221 220//220
f 210//210 220//220 211//211
f 211//211 220//220 219//219
f 211//211 219//219 212//212
f 212//212 219//219 218//218
f 212//212 218//218 213//213
f 213//213 218//218 217//217
f 213//213 217//217 214//214
f 214//214 217//217 216//216
f 214//214 216//216 215//215
# 520 faces, 0 coords texture

# End of File
