mtllib socket_cl1918.mtl
o socket_cl1918_1
v 2.736 6.51 -9.73
v 2.958 6.51 -9
v 2.077 6 -9.056
v 2.108 6.01 -9
v 2.16 6.01 -8.668
v 2.15 6 -8.5
v 2.167 6.01 -8.5
v 2.16 6.01 -8.332
v 2.077 6 -7.944
v 2.108 6.01 -8
v 2.958 6.51 -8
v 2.736 6.51 -7.27
v 1.862 6 -7.425
v 2.337 6.51 -6.619
v 1.52 6 -6.98
v 1.786 6.51 -6.09
v 1.075 6 -6.638
v 1.12 6.51 -5.717
v 0.556 6 -6.423
v 0.382 6.51 -5.524
v 0 6 -6.35
v -0.382 6.51 -5.524
v -0.556 6 -6.423
v -1.12 6.51 -5.717
v -1.075 6 -6.638
v -1.786 6.51 -6.09
v -1.52 6 -6.98
v -2.337 6.51 -6.619
v -1.862 6 -7.425
v -2.736 6.51 -7.27
v -2.077 6 -7.944
v -2.958 6.51 -8
v -2.108 6.01 -8
v -2.16 6.01 -8.332
v -2.15 6 -8.5
v -2.16 6.01 -8.668
v -2.077 6 -9.056
v -2.108 6.01 -9
v -2.958 6.51 -9
v -2.736 6.51 -9.73
v -1.862 6 -9.575
v -2.337 6.51 -10.381
v -1.52 6 -10.02
v -1.786 6.51 -10.91
v -1.075 6 -10.362
v -1.12 6.51 -11.283
v -0.556 6 -10.577
v -0.382 6.51 -11.476
v 0 6 -10.65
v 0.382 6.51 -11.476
v 0.556 6 -10.577
v 1.12 6.51 -11.283
v 1.075 6 -10.362
v 1.786 6.51 -10.91
v 1.52 6 -10.02
v 2.337 6.51 -10.381
v 1.862 6 -9.575
v 2.958 7.01 -8
v -2.958 7.01 -8
v 2.958 7.01 -9
v -2.958 7.01 -9
v 2.736 7.01 -7.27
v -2.736 7.01 -7.27
v 2.337 7.01 -6.619
v -2.337 7.01 -6.619
v 1.786 7.01 -6.09
v -1.786 7.01 -6.09
v 1.12 7.01 -5.717
v -1.12 7.01 -5.717
v 0.382 7.01 -5.524
v -0.382 7.01 -5.524
v 2.736 7.01 -9.73
v 2.337 7.01 -10.381
v 1.786 7.01 -10.91
v 1.12 7.01 -11.283
v 0.382 7.01 -11.476
v -0.382 7.01 -11.476
v -1.12 7.01 -11.283
v -1.786 7.01 -10.91
v -2.337 7.01 -10.381
v -2.736 7.01 -9.73
v -3.381 8 -7.594
v -3.381 6 -7.594
v -3.5 8 -8.5
v -3.5 6 -8.5
v -3.381 8 -9.406
v -3.381 6 -9.406
v -3.031 6 -10.25
v -3.031 8 -6.75
v -3.031 6 -6.75
v -2.475 8 -6.025
v -2.475 6 -6.025
v -1.75 6 -5.469
v -1.75 8 -5.469
v -0.906 8 -5.119
v -0.906 6 -5.119
v 0 8 -5
v 0 6 -5
v 0.906 6 -5.119
v 0.906 8 -5.119
v 1.75 8 -5.469
v 1.75 6 -5.469
v 2.475 8 -6.025
v 2.475 6 -6.025
v 3.031 8 -6.75
v 3.031 6 -6.75
v 3.381 6 -7.594
v 3.381 8 -7.594
v 3.5 8 -8.5
v 3.5 6 -8.5
v 3.381 8 -9.406
v 3.381 6 -9.406
v 3.031 6 -10.25
v 3.031 8 -10.25
v 2.475 8 -10.975
v 2.475 6 -10.975
v 1.75 8 -11.531
v 1.75 6 -11.531
v 0.906 8 -11.881
v 0.906 6 -11.881
v 0 6 -12
v 0 8 -12
v -0.906 8 -11.881
v -0.906 6 -11.881
v -1.75 8 -11.531
v -1.75 6 -11.531
v -2.475 6 -10.975
v -2.475 8 -10.975
v -3.031 8 -10.25
v 5.4 2 18
v 5.4 2 0
v 8.4 2 18
v 8.4 2 0
v 8.4 -4.2 18
v 8.4 -4.2 0
v 5.4 -4.2 0
v 5.4 -4.2 18
v -8.4 2 18
v -8.4 2 0
v -5.4 2 18
v -5.4 2 0
v -5.4 -4.2 18
v -5.4 -4.2 0
v -8.4 -4.2 0
v -8.4 -4.2 18
v -1.65 6.6 18
v -1.65 6.6 0
v 1.65 6.6 18
v 1.65 6.6 0
v 1.65 -1 18
v 1.65 -1 0
v -1.65 -1 0
v -1.65 -1 18
v 4.547 2.625 -40
v 5.071 1.359 -40
v 5.071 1.359 -65.5
v 5.25 0 -40
v 5.25 0 -65.5
v 5.071 -1.359 -40
v 5.071 -1.359 -65.5
v 4.547 -2.625 -65.5
v 4.547 2.625 -65.5
v 3.712 3.712 -65.5
v 3.712 3.712 -40
v 2.625 4.547 -65.5
v 2.625 4.547 -40
v 1.359 5.071 -65.5
v 1.359 5.071 -40
v 0 5.25 -40
v 0 5.25 -65.5
v -1.359 5.071 -65.5
v -1.359 5.071 -40
v -2.625 4.547 -65.5
v -2.625 4.547 -40
v -3.712 3.712 -40
v -3.712 3.712 -65.5
v -4.547 2.625 -65.5
v -4.547 2.625 -40
v -5.071 1.359 -65.5
v -5.071 1.359 -40
v -5.25 0 -40
v -5.25 0 -65.5
v -5.071 -1.359 -40
v -5.071 -1.359 -65.5
v -4.547 -2.625 -65.5
v -4.547 -2.625 -40
v -3.712 -3.712 -65.5
v -3.712 -3.712 -40
v -2.625 -4.547 -40
v -2.625 -4.547 -65.5
v -1.359 -5.071 -65.5
v -1.359 -5.071 -40
v 0 -5.25 -65.5
v 0 -5.25 -40
v 1.359 -5.071 -40
v 1.359 -5.071 -65.5
v 2.625 -4.547 -65.5
v 2.625 -4.547 -40
v 3.712 -3.712 -65.5
v 3.712 -3.712 -40
v 4.547 -2.625 -40
v -6 8 0
v -11.75 3.5 0
v -6 8 18
v -11.75 3.5 18
v -11.75 -6.5 0
v -11.75 -6.5 18
v -11.699 -6.888 18
v -11.699 -6.888 0
v -11.549 -7.25 0
v -11.549 -7.25 18
v -11.311 -7.561 0
v -11.311 -7.561 18
v -11 -7.799 18
v -11 -7.799 0
v -10.638 -7.949 0
v -10.638 -7.949 18
v -10.25 -8 0
v -10.25 -8 18
v 11.75 3.5 0
v 6 8 0
v 11.75 3.5 18
v 6 8 18
v 11.75 -6.5 0
v 11.75 -6.5 18
v 10.25 -8 18
v 10.25 -8 0
v 10.638 -7.949 18
v 10.638 -7.949 0
v 11 -7.799 0
v 11 -7.799 18
v 11.311 -7.561 0
v 11.311 -7.561 18
v 11.549 -7.25 0
v 11.549 -7.25 18
v 11.699 -6.888 18
v 11.699 -6.888 0
v 12.75 8 0
v 12.75 -9 0
v -12.75 -9 0
v -12.75 8 0
v -13.244 8 -0.062
v -13.244 -9 -0.062
v -13.707 8 -0.244
v -13.707 -9 -0.244
v -14.11 -9 -0.534
v -14.11 8 -0.534
v -14.43 8 -0.915
v -14.43 -9 -0.915
v -14.646 8 -1.363
v -14.646 -9 -1.363
v -14.744 -9 -1.851
v -14.744 8 -1.851
v -14.75 -9 -2
v -14.75 8 -2
v -14.72 -9 -2.347
v -14.72 8 -2.347
v -13.72 8 -38.347
v -13.72 -9 -38.347
v -13.586 -9 -38.792
v -13.586 8 -38.792
v -13.354 8 -39.194
v -12.648 8 -39.787
v -12.648 -9 -39.787
v -13.036 8 -39.532
v -13.036 -9 -39.532
v -13.354 -9 -39.194
v -12.211 8 -39.946
v -12.211 -9 -39.946
v -11.75 8 -40
v -11.75 -9 -40
v 11.75 -9 -40
v 11.75 8 -40
v 12.211 -9 -39.946
v 12.211 8 -39.946
v 12.648 8 -39.787
v 13.354 8 -39.194
v 13.354 -9 -39.194
v 13.036 8 -39.532
v 13.036 -9 -39.532
v 12.648 -9 -39.787
v 13.586 8 -38.792
v 13.586 -9 -38.792
v 13.72 8 -38.347
v 13.72 -9 -38.347
v 14.72 8 -2.347
v 14.72 -9 -2.347
v 14.744 -9 -1.851
v 14.744 8 -1.851
v 14.646 8 -1.363
v 14.646 -9 -1.363
v 14.43 8 -0.915
v 14.43 -9 -0.915
v 14.11 -9 -0.534
v 14.11 8 -0.534
v 13.707 8 -0.244
v 13.707 -9 -0.244
v 13.244 8 -0.062
v 13.244 -9 -0.062
vn 0.469 -0.857 -0.211
vn 0.507 -0.857 -0.086
vn 0.497 -0.857 -0.133
vn 0.501 -0.857 -0.119
vn 0.513 -0.857 -0.04
vn 0.514 -0.857 0
vn 0.513 -0.857 0.04
vn 0.497 -0.857 0.133
vn 0.501 -0.857 0.119
vn 0.507 -0.857 0.086
vn 0.469 -0.857 0.211
vn 0.446 -0.857 0.257
vn 0.401 -0.857 0.323
vn 0.364 -0.857 0.364
vn 0.306 -0.857 0.413
vn 0.257 -0.857 0.446
vn 0.192 -0.857 0.477
vn 0.133 -0.857 0.497
vn 0.065 -0.857 0.51
vn 0 -0.857 0.514
vn -0.065 -0.857 0.51
vn -0.133 -0.857 0.497
vn -0.192 -0.857 0.477
vn -0.257 -0.857 0.446
vn -0.306 -0.857 0.413
vn -0.364 -0.857 0.364
vn -0.401 -0.857 0.323
vn -0.446 -0.857 0.257
vn -0.469 -0.857 0.211
vn -0.497 -0.857 0.133
vn -0.507 -0.857 0.086
vn -0.501 -0.857 0.119
vn -0.513 -0.857 0.04
vn -0.514 -0.857 0
vn -0.513 -0.857 -0.04
vn -0.497 -0.857 -0.133
vn -0.501 -0.857 -0.119
vn -0.507 -0.857 -0.086
vn -0.469 -0.857 -0.211
vn -0.446 -0.857 -0.257
vn -0.401 -0.857 -0.323
vn -0.364 -0.857 -0.364
vn -0.306 -0.857 -0.413
vn -0.257 -0.857 -0.446
vn -0.192 -0.857 -0.477
vn -0.133 -0.857 -0.497
vn -0.065 -0.857 -0.51
vn 0 -0.857 -0.514
vn 0.065 -0.857 -0.51
vn 0.133 -0.857 -0.497
vn 0.192 -0.857 -0.477
vn 0.257 -0.857 -0.446
vn 0.306 -0.857 -0.413
vn 0.364 -0.857 -0.364
vn 0.401 -0.857 -0.323
vn 0.446 -0.857 -0.257
vn 0 0 -1
vn 0 1 0
vn 0 0 1
vn 0.986 0 0.167
vn 0.912 0 0.41
vn 0.779 0 0.627
vn 0.595 0 0.803
vn 0.373 0 0.928
vn 0.127 0 0.992
vn -0.127 0 0.992
vn -0.373 0 0.928
vn -0.595 0 0.803
vn -0.779 0 0.627
vn -0.912 0 0.41
vn -0.986 0 0.167
vn 0.986 0 -0.167
vn 0.912 0 -0.41
vn 0.779 0 -0.627
vn 0.595 0 -0.803
vn 0.373 0 -0.928
vn 0.127 0 -0.992
vn -0.127 0 -0.992
vn -0.373 0 -0.928
vn -0.595 0 -0.803
vn -0.779 0 -0.627
vn -0.912 0 -0.41
vn -0.986 0 -0.167
vn 0.966 0 -0.259
vn 1 0 0
vn 0.966 0 0.259
vn 0.866 0 0.5
vn 0.866 0 -0.5
vn 0.707 0 -0.707
vn 0.5 0 -0.866
vn 0.259 0 -0.966
vn -0.259 0 -0.966
vn -0.5 0 -0.866
vn -0.707 0 -0.707
vn -0.866 0 -0.5
vn -0.966 0 -0.259
vn -1 0 0
vn -0.966 0 0.259
vn -0.866 0 0.5
vn -0.707 0 0.707
vn -0.5 0 0.866
vn -0.259 0 0.966
vn 0.259 0 0.966
vn 0.5 0 0.866
vn 0.707 0 0.707
vn 0 -1 0
vn 0.866 0.5 0
vn 0.966 0.259 0
vn 0.966 -0.259 0
vn 0.866 -0.5 0
vn 0.707 0.707 0
vn 0.5 0.866 0
vn 0.259 0.966 0
vn -0.259 0.966 0
vn -0.5 0.866 0
vn -0.707 0.707 0
vn -0.866 0.5 0
vn -0.966 0.259 0
vn -0.966 -0.259 0
vn -0.866 -0.5 0
vn -0.707 -0.707 0
vn -0.5 -0.866 0
vn -0.259 -0.966 0
vn 0.259 -0.966 0
vn 0.5 -0.866 0
vn 0.707 -0.707 0
vn -0.616 0.788 0
vn 0.616 0.788 0
vn -0.247 0 0.969
vn -0.478 0 0.878
vn -0.68 0 0.733
vn -0.84 0 0.543
vn -0.948 0 0.318
vn -0.997 0 0.075
vn -0.985 0 -0.174
vn -1 0 -0.028
vn -0.918 0 -0.396
vn -0.802 0 -0.597
vn -0.449 0 -0.894
vn -0.643 0 -0.766
vn -0.231 0 -0.973
vn 0.231 0 -0.973
vn 0.449 0 -0.894
vn 0.802 0 -0.597
vn 0.643 0 -0.766
vn 0.918 0 -0.396
vn 0.985 0 -0.174
vn 1 0 -0.028
vn 0.997 0 0.075
vn 0.948 0 0.318
vn 0.84 0 0.543
vn 0.68 0 0.733
vn 0.478 0 0.878
vn 0.247 0 0.969
g socket_cl1918_1
usemtl socket_cl1918_color_1
f 1//1 2//2 3//3
f 3//3 2//2 4//4
f 3//3 4//4 5//5
f 3//3 5//5 6//6
f 6//6 5//5 7//6
f 6//6 7//6 8//7
f 6//6 8//7 9//8
f 9//8 8//7 10//9
f 9//8 10//9 11//10
f 11//10 12//11 9//8
f 9//8 12//11 13//12
f 12//11 14//13 13//12
f 13//12 14//13 15//14
f 14//13 16//15 15//14
f 15//14 16//15 17//16
f 16//15 18//17 17//16
f 17//16 18//17 19//18
f 18//17 20//19 19//18
f 19//18 20//19 21//20
f 20//19 22//21 21//20
f 21//20 22//21 23//22
f 22//21 24//23 23//22
f 23//22 24//23 25//24
f 24//23 26//25 25//24
f 25//24 26//25 27//26
f 26//25 28//27 27//26
f 27//26 28//27 29//28
f 28//27 30//29 29//28
f 29//28 30//29 31//30
f 30//29 32//31 31//30
f 31//30 32//31 33//32
f 31//30 33//32 34//33
f 31//30 34//33 35//34
f 35//34 34//33 36//35
f 35//34 36//35 37//36
f 37//36 36//35 38//37
f 37//36 38//37 39//38
f 39//38 40//39 37//36
f 37//36 40//39 41//40
f 40//39 42//41 41//40
f 41//40 42//41 43//42
f 42//41 44//43 43//42
f 43//42 44//43 45//44
f 44//43 46//45 45//44
f 45//44 46//45 47//46
f 46//45 48//47 47//46
f 47//46 48//47 49//48
f 48//47 50//49 49//48
f 49//48 50//49 51//50
f 50//49 52//51 51//50
f 51//50 52//51 53//52
f 52//51 54//53 53//52
f 53//52 54//53 55//54
f 54//53 56//55 55//54
f 55//54 56//55 57//56
f 56//55 1//1 57//56
f 57//56 1//1 3//3
f 11//57 10//57 58//57
f 58//57 10//57 33//57
f 58//57 33//57 59//57
f 59//57 33//57 32//57
f 8//58 5//58 10//58
f 10//58 5//58 4//58
f 10//58 4//58 33//58
f 33//58 4//58 38//58
f 33//58 38//58 34//58
f 34//58 38//58 36//58
f 8//58 7//58 5//58
f 2//59 60//59 4//59
f 4//59 60//59 61//59
f 4//59 61//59 38//59
f 38//59 61//59 39//59
f 58//58 59//58 62//58
f 62//58 59//58 63//58
f 62//58 63//58 64//58
f 64//58 63//58 65//58
f 64//58 65//58 66//58
f 66//58 65//58 67//58
f 66//58 67//58 68//58
f 68//58 67//58 69//58
f 68//58 69//58 70//58
f 70//58 69//58 71//58
f 11//60 58//60 12//61
f 12//61 58//60 62//61
f 12//61 62//61 64//62
f 12//61 64//62 14//62
f 14//62 64//62 66//63
f 14//62 66//63 16//63
f 16//63 66//63 18//64
f 66//63 68//64 18//64
f 18//64 68//64 70//65
f 18//64 70//65 20//65
f 20//65 70//65 71//66
f 20//65 71//66 22//66
f 22//66 71//66 69//67
f 22//66 69//67 24//67
f 24//67 69//67 26//68
f 69//67 67//68 26//68
f 26//68 67//68 65//69
f 26//68 65//69 28//69
f 28//69 65//69 63//70
f 28//69 63//70 30//70
f 30//70 63//70 32//71
f 63//70 59//71 32//71
f 60//72 2//72 72//73
f 72//73 2//72 1//73
f 72//73 1//73 56//74
f 72//73 56//74 73//74
f 73//74 56//74 54//75
f 73//74 54//75 74//75
f 74//75 54//75 75//76
f 54//75 52//76 75//76
f 75//76 52//76 50//77
f 75//76 50//77 76//77
f 76//77 50//77 48//78
f 76//77 48//78 77//78
f 77//78 48//78 46//79
f 77//78 46//79 78//79
f 78//79 46//79 79//80
f 46//79 44//80 79//80
f 79//80 44//80 42//81
f 79//80 42//81 80//81
f 80//81 42//81 40//82
f 80//81 40//82 81//82
f 81//82 40//82 61//83
f 40//82 39//83 61//83
f 61//58 60//58 81//58
f 81//58 60//58 72//58
f 81//58 72//58 80//58
f 80//58 72//58 73//58
f 80//58 73//58 79//58
f 79//58 73//58 74//58
f 79//58 74//58 78//58
f 78//58 74//58 75//58
f 78//58 75//58 77//58
f 77//58 75//58 76//58
usemtl socket_cl1918_color_2
f 82//84 83//84 84//85
f 84//85 83//84 85//85
f 84//85 85//85 86//86
f 86//86 85//85 87//86
f 86//86 87//86 88//87
f 82//84 89//88 83//84
f 83//84 89//88 90//88
f 89//88 91//89 90//88
f 90//88 91//89 92//89
f 92//89 91//89 93//90
f 93//90 91//89 94//90
f 93//90 94//90 95//91
f 93//90 95//91 96//91
f 96//91 95//91 97//57
f 96//91 97//57 98//57
f 98//57 97//57 99//92
f 97//57 100//92 99//92
f 99//92 100//92 101//93
f 99//92 101//93 102//93
f 102//93 101//93 103//94
f 102//93 103//94 104//94
f 104//94 103//94 105//95
f 104//94 105//95 106//95
f 106//95 105//95 107//96
f 105//95 108//96 107//96
f 107//96 108//96 109//97
f 107//96 109//97 110//97
f 110//97 109//97 111//98
f 110//97 111//98 112//98
f 112//98 111//98 113//99
f 111//98 114//99 113//99
f 113//99 114//99 115//100
f 113//99 115//100 116//100
f 116//100 115//100 117//101
f 116//100 117//101 118//101
f 118//101 117//101 119//102
f 118//101 119//102 120//102
f 120//102 119//102 121//59
f 119//102 122//59 121//59
f 121//59 122//59 123//103
f 121//59 123//103 124//103
f 124//103 123//103 125//104
f 124//103 125//104 126//104
f 126//104 125//104 127//105
f 125//104 128//105 127//105
f 127//105 128//105 129//87
f 127//105 129//87 88//87
f 88//87 129//87 86//86
f 9//58 107//58 6//58
f 6//58 107//58 110//58
f 6//58 110//58 3//58
f 3//58 110//58 112//58
f 3//58 112//58 57//58
f 57//58 112//58 113//58
f 57//58 113//58 55//58
f 55//58 113//58 116//58
f 55//58 116//58 53//58
f 53//58 116//58 118//58
f 53//58 118//58 51//58
f 51//58 118//58 120//58
f 51//58 120//58 49//58
f 49//58 120//58 121//58
f 49//58 121//58 124//58
f 9//58 13//58 107//58
f 107//58 13//58 106//58
f 13//58 15//58 106//58
f 106//58 15//58 104//58
f 15//58 17//58 104//58
f 104//58 17//58 102//58
f 17//58 19//58 102//58
f 102//58 19//58 99//58
f 19//58 21//58 99//58
f 99//58 21//58 98//58
f 98//58 21//58 96//58
f 96//58 21//58 23//58
f 96//58 23//58 93//58
f 93//58 23//58 25//58
f 93//58 25//58 92//58
f 92//58 25//58 27//58
f 92//58 27//58 90//58
f 90//58 27//58 29//58
f 90//58 29//58 83//58
f 83//58 29//58 31//58
f 83//58 31//58 85//58
f 85//58 31//58 35//58
f 85//58 35//58 37//58
f 85//58 37//58 87//58
f 87//58 37//58 41//58
f 87//58 41//58 88//58
f 88//58 41//58 43//58
f 88//58 43//58 127//58
f 127//58 43//58 45//58
f 127//58 45//58 126//58
f 126//58 45//58 47//58
f 126//58 47//58 124//58
f 124//58 47//58 49//58
f 130//106 131//106 132//106
f 132//106 131//106 133//106
f 132//97 133//97 134//97
f 134//97 133//97 135//97
f 133//59 131//59 135//59
f 135//59 131//59 136//59
f 134//58 135//58 137//58
f 137//58 135//58 136//58
f 137//85 136//85 130//85
f 130//85 136//85 131//85
f 138//106 139//106 140//106
f 140//106 139//106 141//106
f 140//97 141//97 142//97
f 142//97 141//97 143//97
f 141//59 139//59 143//59
f 143//59 139//59 144//59
f 142//58 143//58 145//58
f 145//58 143//58 144//58
f 145//85 144//85 138//85
f 138//85 144//85 139//85
f 146//106 147//106 148//106
f 148//106 147//106 149//106
f 148//97 149//97 150//97
f 150//97 149//97 151//97
f 149//59 147//59 151//59
f 151//59 147//59 152//59
f 150//58 151//58 153//58
f 153//58 151//58 152//58
f 153//85 152//85 146//85
f 146//85 152//85 147//85
f 154//107 155//108 156//108
f 156//108 155//108 157//85
f 156//108 157//85 158//85
f 158//85 157//85 159//109
f 158//85 159//109 160//109
f 160//109 159//109 161//110
f 156//108 162//107 154//107
f 154//107 162//107 163//111
f 154//107 163//111 164//111
f 164//111 163//111 165//112
f 164//111 165//112 166//112
f 166//112 165//112 167//113
f 166//112 167//113 168//113
f 168//113 167//113 169//58
f 167//113 170//58 169//58
f 169//58 170//58 171//114
f 169//58 171//114 172//114
f 172//114 171//114 173//115
f 172//114 173//115 174//115
f 174//115 173//115 175//116
f 173//115 176//116 175//116
f 175//116 176//116 177//117
f 175//116 177//117 178//117
f 178//117 177//117 179//118
f 178//117 179//118 180//118
f 180//118 179//118 181//97
f 179//118 182//97 181//97
f 181//97 182//97 183//119
f 182//97 184//119 183//119
f 183//119 184//119 185//120
f 183//119 185//120 186//120
f 186//120 185//120 187//121
f 186//120 187//121 188//121
f 188//121 187//121 189//122
f 187//121 190//122 189//122
f 189//122 190//122 191//123
f 189//122 191//123 192//123
f 192//123 191//123 193//106
f 192//123 193//106 194//106
f 194//106 193//106 195//124
f 193//106 196//124 195//124
f 195//124 196//124 197//125
f 195//124 197//125 198//125
f 198//125 197//125 199//126
f 198//125 199//126 200//126
f 200//126 199//126 161//110
f 200//126 161//110 201//110
f 201//110 161//110 159//109
f 196//57 191//57 197//57
f 197//57 191//57 190//57
f 197//57 190//57 199//57
f 199//57 190//57 187//57
f 199//57 187//57 161//57
f 161//57 187//57 185//57
f 161//57 185//57 160//57
f 160//57 185//57 184//57
f 160//57 184//57 158//57
f 158//57 184//57 182//57
f 158//57 182//57 156//57
f 156//57 182//57 179//57
f 156//57 179//57 162//57
f 162//57 179//57 177//57
f 162//57 177//57 163//57
f 163//57 177//57 176//57
f 163//57 176//57 165//57
f 165//57 176//57 173//57
f 165//57 173//57 167//57
f 167//57 173//57 171//57
f 167//57 171//57 170//57
f 196//57 193//57 191//57
f 202//127 203//127 204//127
f 204//127 203//127 205//127
f 203//97 206//97 205//97
f 205//97 206//97 207//97
f 207//97 206//97 208//119
f 208//119 206//97 209//119
f 208//119 209//119 210//120
f 208//119 210//120 211//120
f 211//120 210//120 212//121
f 211//120 212//121 213//121
f 213//121 212//121 214//122
f 212//121 215//122 214//122
f 214//122 215//122 216//123
f 214//122 216//123 217//123
f 217//123 216//123 218//106
f 217//123 218//106 219//106
f 220//128 221//128 222//128
f 222//128 221//128 223//128
f 224//85 220//85 225//85
f 225//85 220//85 222//85
f 226//106 227//106 228//124
f 228//124 227//106 229//124
f 228//124 229//124 230//125
f 228//124 230//125 231//125
f 231//125 230//125 232//126
f 231//125 232//126 233//126
f 233//126 232//126 234//110
f 233//126 234//110 235//110
f 235//110 234//110 236//109
f 234//110 237//109 236//109
f 236//109 237//109 224//85
f 236//109 224//85 225//85
f 218//106 227//106 219//106
f 219//106 227//106 226//106
f 130//59 223//59 148//59
f 148//59 223//59 204//59
f 148//59 204//59 146//59
f 146//59 204//59 140//59
f 146//59 140//59 153//59
f 153//59 140//59 142//59
f 153//59 142//59 137//59
f 137//59 142//59 226//59
f 137//59 226//59 134//59
f 134//59 226//59 225//59
f 134//59 225//59 222//59
f 153//59 137//59 150//59
f 150//59 137//59 130//59
f 150//59 130//59 148//59
f 130//59 132//59 223//59
f 223//59 132//59 222//59
f 132//59 134//59 222//59
f 226//59 142//59 219//59
f 219//59 142//59 145//59
f 219//59 145//59 207//59
f 207//59 145//59 205//59
f 145//59 138//59 205//59
f 205//59 138//59 204//59
f 138//59 140//59 204//59
f 207//59 208//59 219//59
f 219//59 208//59 211//59
f 219//59 211//59 213//59
f 213//59 214//59 219//59
f 219//59 214//59 217//59
f 228//59 231//59 226//59
f 226//59 231//59 233//59
f 226//59 233//59 235//59
f 235//59 236//59 226//59
f 226//59 236//59 225//59
f 221//59 220//59 238//59
f 238//59 220//59 239//59
f 220//59 224//59 239//59
f 239//59 224//59 237//59
f 239//59 237//59 234//59
f 234//59 232//59 239//59
f 239//59 232//59 230//59
f 239//59 230//59 229//59
f 229//59 227//59 239//59
f 239//59 227//59 218//59
f 239//59 218//59 240//59
f 240//59 218//59 216//59
f 240//59 216//59 215//59
f 215//59 212//59 240//59
f 240//59 212//59 210//59
f 240//59 210//59 209//59
f 209//59 206//59 240//59
f 240//59 206//59 203//59
f 240//59 203//59 241//59
f 241//59 203//59 202//59
f 241//59 242//129 240//59
f 240//59 242//129 243//129
f 242//129 244//130 243//129
f 243//129 244//130 245//130
f 245//130 244//130 246//131
f 246//131 244//130 247//131
f 246//131 247//131 248//132
f 246//131 248//132 249//132
f 249//132 248//132 250//133
f 249//132 250//133 251//133
f 251//133 250//133 252//134
f 250//133 253//134 252//134
f 252//134 253//134 254//97
f 253//134 255//97 254//97
f 254//97 255//97 256//135
f 255//97 257//135 256//135
f 257//136 258//136 256//136
f 256//136 258//136 259//136
f 259//135 258//135 260//137
f 260//137 258//135 261//137
f 260//137 261//137 262//138
f 263//139 264//139 265//140
f 265//140 264//139 266//140
f 265//140 266//140 262//138
f 262//138 266//140 267//138
f 262//138 267//138 260//137
f 263//139 268//141 264//139
f 264//139 268//141 269//141
f 270//57 271//57 268//141
f 268//141 271//57 269//141
f 183//57 271//57 181//57
f 181//57 271//57 270//57
f 181//57 270//57 180//57
f 180//57 270//57 178//57
f 183//57 186//57 271//57
f 271//57 186//57 188//57
f 271//57 188//57 189//57
f 189//57 192//57 271//57
f 271//57 192//57 194//57
f 271//57 194//57 272//57
f 272//57 194//57 195//57
f 272//57 195//57 198//57
f 198//57 200//57 272//57
f 272//57 200//57 201//57
f 272//57 201//57 159//57
f 159//57 157//57 272//57
f 272//57 157//57 273//57
f 157//57 155//57 273//57
f 273//57 155//57 154//57
f 273//57 154//57 164//57
f 164//57 166//57 273//57
f 273//57 166//57 168//57
f 273//57 168//57 169//57
f 273//57 169//57 270//57
f 270//57 169//57 172//57
f 270//57 172//57 174//57
f 174//57 175//57 270//57
f 270//57 175//57 178//57
f 272//57 273//57 274//142
f 274//142 273//57 275//142
f 274//142 275//142 276//143
f 277//144 278//144 279//145
f 279//145 278//144 280//145
f 279//145 280//145 276//143
f 276//143 280//145 281//143
f 276//143 281//143 274//142
f 277//144 282//146 278//144
f 278//144 282//146 283//146
f 284//147 285//147 282//146
f 282//146 285//147 283//146
f 284//148 286//148 285//148
f 285//148 286//148 287//148
f 287//147 286//147 288//149
f 288//149 286//147 289//149
f 288//149 289//149 290//150
f 288//149 290//150 291//150
f 291//150 290//150 292//151
f 291//150 292//151 293//151
f 293//151 292//151 294//152
f 292//151 295//152 294//152
f 294//152 295//152 296//153
f 294//152 296//153 297//153
f 297//153 296//153 298//154
f 297//153 298//154 299//154
f 299//154 298//154 239//59
f 298//154 238//59 239//59
f 82//58 84//58 257//58
f 257//58 84//58 86//58
f 257//58 86//58 129//58
f 257//58 129//58 258//58
f 258//58 129//58 128//58
f 258//58 128//58 125//58
f 125//58 123//58 258//58
f 258//58 123//58 270//58
f 258//58 270//58 268//58
f 123//58 122//58 270//58
f 270//58 122//58 273//58
f 122//58 119//58 273//58
f 273//58 119//58 284//58
f 273//58 284//58 275//58
f 275//58 284//58 276//58
f 119//58 117//58 284//58
f 284//58 117//58 115//58
f 284//58 115//58 114//58
f 284//58 114//58 286//58
f 286//58 114//58 111//58
f 286//58 111//58 109//58
f 109//58 108//58 286//58
f 286//58 108//58 221//58
f 286//58 221//58 238//58
f 108//58 105//58 221//58
f 221//58 105//58 103//58
f 221//58 103//58 101//58
f 101//58 100//58 221//58
f 221//58 100//58 97//58
f 221//58 97//58 202//58
f 202//58 97//58 95//58
f 202//58 95//58 94//58
f 94//58 91//58 202//58
f 202//58 91//58 89//58
f 202//58 89//58 82//58
f 202//58 257//58 241//58
f 241//58 257//58 255//58
f 241//58 255//58 253//58
f 204//58 223//58 202//58
f 202//58 223//58 221//58
f 298//58 296//58 238//58
f 238//58 296//58 295//58
f 238//58 295//58 292//58
f 292//58 290//58 238//58
f 238//58 290//58 289//58
f 238//58 289//58 286//58
f 282//58 277//58 284//58
f 284//58 277//58 279//58
f 284//58 279//58 276//58
f 268//58 263//58 258//58
f 258//58 263//58 265//58
f 258//58 265//58 262//58
f 262//58 261//58 258//58
f 253//58 250//58 241//58
f 241//58 250//58 248//58
f 241//58 248//58 247//58
f 247//58 244//58 241//58
f 241//58 244//58 242//58
f 257//58 202//58 82//58
f 254//106 256//106 240//106
f 240//106 256//106 287//106
f 240//106 287//106 239//106
f 239//106 287//106 288//106
f 239//106 288//106 291//106
f 243//106 245//106 240//106
f 240//106 245//106 246//106
f 240//106 246//106 249//106
f 249//106 251//106 240//106
f 240//106 251//106 252//106
f 240//106 252//106 254//106
f 287//106 256//106 285//106
f 285//106 256//106 259//106
f 285//106 259//106 272//106
f 272//106 259//106 271//106
f 260//106 267//106 259//106
f 259//106 267//106 266//106
f 259//106 266//106 264//106
f 264//106 269//106 259//106
f 259//106 269//106 271//106
f 272//106 274//106 285//106
f 285//106 274//106 281//106
f 285//106 281//106 280//106
f 280//106 278//106 285//106
f 285//106 278//106 283//106
f 291//106 293//106 239//106
f 239//106 293//106 294//106
f 239//106 294//106 297//106
f 297//106 299//106 239//106
l 2 4
l 4 5
l 5 7
l 7 8
l 8 10
l 10 11
l 32 30
l 30 28
l 28 26
l 26 24
l 24 22
l 22 20
l 20 18
l 18 16
l 16 14
l 14 12
l 12 11
l 32 33
l 33 34
l 34 36
l 36 38
l 38 39
l 2 1
l 1 56
l 56 54
l 54 52
l 52 50
l 50 48
l 48 46
l 46 44
l 44 42
l 42 40
l 40 39
l 6 9
l 9 13
l 13 15
l 15 17
l 17 19
l 19 21
l 21 23
l 23 25
l 25 27
l 27 29
l 29 31
l 31 35
l 35 37
l 37 41
l 41 43
l 43 45
l 45 47
l 47 49
l 49 51
l 51 53
l 53 55
l 55 57
l 57 3
l 3 6
l 33 10
l 59 32
l 58 59
l 11 58
l 4 38
l 60 2
l 61 60
l 39 61
l 59 63
l 63 65
l 65 67
l 67 69
l 69 71
l 71 70
l 70 68
l 68 66
l 66 64
l 64 62
l 62 58
l 60 72
l 72 73
l 73 74
l 74 75
l 75 76
l 76 77
l 77 78
l 78 79
l 79 80
l 80 81
l 81 61
l 84 86
l 86 129
l 129 128
l 128 125
l 125 123
l 123 122
l 122 119
l 119 117
l 117 115
l 115 114
l 114 111
l 111 109
l 109 108
l 108 105
l 105 103
l 103 101
l 101 100
l 100 97
l 97 95
l 95 94
l 94 91
l 91 89
l 89 82
l 82 84
l 110 107
l 107 106
l 106 104
l 104 102
l 102 99
l 99 98
l 98 96
l 96 93
l 93 92
l 92 90
l 90 83
l 83 85
l 85 87
l 87 88
l 88 127
l 127 126
l 126 124
l 124 121
l 121 120
l 120 118
l 118 116
l 116 113
l 113 112
l 112 110
l 130 132
l 130 131
l 131 133
l 132 133
l 132 134
l 133 135
l 134 135
l 136 131
l 135 136
l 134 137
l 137 136
l 137 130
l 138 140
l 138 139
l 139 141
l 140 141
l 140 142
l 141 143
l 142 143
l 144 139
l 143 144
l 142 145
l 145 144
l 145 138
l 146 148
l 146 147
l 147 149
l 148 149
l 148 150
l 149 151
l 150 151
l 152 147
l 151 152
l 150 153
l 153 152
l 153 146
l 158 160
l 160 161
l 161 199
l 199 197
l 197 196
l 196 193
l 193 191
l 191 190
l 190 187
l 187 185
l 185 184
l 184 182
l 182 179
l 179 177
l 177 176
l 176 173
l 173 171
l 171 170
l 170 167
l 167 165
l 165 163
l 163 162
l 162 156
l 156 158
l 181 183
l 183 186
l 186 188
l 188 189
l 189 192
l 192 194
l 194 195
l 195 198
l 198 200
l 200 201
l 201 159
l 159 157
l 157 155
l 155 154
l 154 164
l 164 166
l 166 168
l 168 169
l 169 172
l 172 174
l 174 175
l 175 178
l 178 180
l 180 181
l 203 202
l 203 205
l 205 204
l 202 204
l 206 203
l 206 207
l 207 205
l 218 216
l 216 215
l 215 212
l 212 210
l 210 209
l 209 206
l 218 219
l 219 217
l 217 214
l 214 213
l 213 211
l 211 208
l 208 207
l 221 220
l 221 223
l 223 222
l 220 222
l 220 224
l 222 225
l 224 225
l 224 237
l 237 234
l 234 232
l 232 230
l 230 229
l 229 227
l 225 236
l 236 235
l 235 233
l 233 231
l 231 228
l 228 226
l 227 226
l 227 218
l 226 219
l 204 223
l 202 241
l 240 241
l 240 239
l 239 238
l 238 221
l 241 242
l 242 244
l 244 247
l 247 248
l 248 250
l 250 253
l 253 255
l 255 257
l 256 257
l 256 254
l 254 252
l 252 251
l 251 249
l 249 246
l 246 245
l 245 243
l 243 240
l 257 258
l 259 258
l 259 256
l 258 261
l 261 262
l 262 265
l 265 263
l 263 268
l 268 270
l 271 270
l 271 269
l 269 264
l 264 266
l 266 267
l 267 260
l 260 259
l 270 273
l 272 273
l 272 271
l 273 275
l 275 276
l 276 279
l 279 277
l 277 282
l 282 284
l 285 284
l 285 283
l 283 278
l 278 280
l 280 281
l 281 274
l 274 272
l 284 286
l 287 286
l 287 285
l 286 289
l 289 290
l 290 292
l 292 295
l 295 296
l 296 298
l 298 238
l 239 299
l 299 297
l 297 294
l 294 293
l 293 291
l 291 288
l 288 287
