# https://github.com/mikedh/trimesh
mtllib material.mtl
usemtl material_0
v 0.25617955 0.02595460 0.50000000
v 0.25617955 -0.16373916 0.50000000
v 0.25617955 -0.16373916 0.17329925
v 0.25617955 -0.16373916 0.01587227
v 0.25617955 -0.16373916 -0.47539869
v 0.25617955 0.21564836 -0.47539869
v 0.25617955 0.21564836 0.17329925
v 0.25617955 0.21564836 0.50000000
v 0.25617955 0.21564836 0.01587309
v -0.25617955 0.21564836 0.50000000
v -0.25617955 -0.16373916 0.50000000
v -0.20608662 -0.16373916 0.50000000
v -0.20608662 0.21564836 0.50000000
v -0.03446935 -0.16373916 0.50000000
v -0.03446935 0.21564836 0.50000000
v 0.25617955 -0.16373916 0.50000000
v 0.25617955 0.02595460 0.50000000
v 0.25617955 0.21564836 0.50000000
v -0.25617955 0.21564836 0.01587309
v -0.25617955 0.21564836 -0.47539869
v -0.25617955 -0.16373916 -0.47539869
v -0.25617955 -0.16373916 0.01587227
v -0.25617955 0.02595460 0.49999917
v -0.25617955 0.21564836 0.50000000
v -0.25617955 -0.16373916 0.49999917
v -0.25446358 -0.19303824 -0.47135001
v -0.25446358 -0.19303824 0.49652413
v -0.25446358 -0.17228169 0.49652413
v -0.25446358 -0.17228169 -0.47135001
v -0.25446358 -0.17228169 0.49652413
v -0.02683123 -0.17228169 0.49652413
v -0.08826777 -0.17228169 0.17329925
v -0.20953928 -0.17228169 0.17329925
v -0.08826777 -0.17228169 0.01587227
v -0.08826777 -0.17228169 0.17329925
v -0.02683123 -0.17228169 0.49652413
v -0.25446358 -0.17228169 -0.47135001
v -0.25446358 -0.17228169 0.49652413
v -0.20953928 -0.17228169 0.17329925
v -0.20953928 -0.17228169 0.01587227
v -0.02683123 -0.17228169 -0.47135001
v -0.20953928 -0.17228169 0.01587227
v -0.08826777 -0.17228169 0.01587227
v -0.08826777 -0.17228169 0.01587227
v -0.20953928 -0.17228169 0.01587227
v -0.02683123 -0.17228169 -0.47135001
v -0.02683123 -0.17228169 0.49652413
v -0.02683123 -0.19303824 0.49652413
v -0.02683123 -0.19303824 -0.47135001
v -0.20953928 -0.19303824 0.17329925
v -0.25446358 -0.19303824 0.49652413
v -0.25446358 -0.19303824 -0.47135001
v -0.02683123 -0.19303824 -0.47135001
v -0.02683123 -0.19303824 0.49652413
v -0.08826777 -0.19303824 0.17329925
v -0.08826777 -0.19303824 0.01587227
v -0.20953928 -0.19303824 0.01587227
v -0.08826777 -0.19303824 0.17329925
v -0.02683123 -0.19303824 0.49652413
v -0.25446358 -0.19303824 0.49652413
v -0.20953928 -0.19303824 0.17329925
v -0.08826777 -0.19303824 0.01587227
v -0.20953928 -0.19303824 0.01587227
v -0.20953928 -0.19303824 0.01587227
v -0.08826777 -0.19303824 0.01587227
v -0.25446358 -0.17228169 -0.47135001
v -0.02683123 -0.17228169 -0.47135001
v -0.02683123 -0.19303824 -0.47135001
v -0.25446358 -0.19303824 -0.47135001
v -0.02683123 -0.17228169 0.49652413
v -0.25446358 -0.17228169 0.49652413
v -0.25446358 -0.19303824 0.49652413
v -0.02683123 -0.19303824 0.49652413
v -0.00472346 -0.19303824 -0.47135001
v -0.00472346 -0.19303824 0.49652413
v -0.00472346 -0.17228169 0.49652413
v -0.00472346 -0.17228169 -0.47135001
v -0.00472346 -0.17228169 -0.47135001
v -0.00472346 -0.17228169 0.49652413
v 0.25267798 -0.17228169 0.49652413
v 0.25267798 -0.17228169 -0.47135001
v 0.25267798 -0.17228169 -0.47135001
v 0.25267798 -0.17228169 0.49652413
v 0.25267798 -0.19303824 0.49652413
v 0.25267798 -0.19303824 -0.47135001
v 0.25267798 -0.19303824 -0.47135001
v 0.25267798 -0.19303824 0.49652413
v -0.00472346 -0.19303824 0.49652413
v -0.00472346 -0.19303824 -0.47135001
v -0.00472346 -0.17228169 -0.47135001
v 0.25267798 -0.17228169 -0.47135001
v 0.25267798 -0.19303824 -0.47135001
v -0.00472346 -0.19303824 -0.47135001
v 0.25267798 -0.17228169 0.49652413
v -0.00472346 -0.17228169 0.49652413
v -0.00472346 -0.19303824 0.49652413
v 0.25267798 -0.19303824 0.49652413
v -0.14518560 -0.14143742 0.14865732
v -0.14502644 -0.14063912 0.15122878
v -0.14129856 -0.14176983 0.15122878
v -0.14161026 -0.14252171 0.14865732
v -0.14890352 -0.14025696 0.15122878
v -0.14890352 -0.13712926 0.19461038
v -0.14441631 -0.13757110 0.19461038
v -0.13786249 -0.14360683 0.15122878
v -0.13831510 -0.14428327 0.14865732
v -0.14010153 -0.13888005 0.19461038
v -0.13485084 -0.14607798 0.15122878
v -0.13542698 -0.14665329 0.14865732
v -0.13612497 -0.14100552 0.19461038
v -0.13237969 -0.14908963 0.15122878
v -0.13305613 -0.14954224 0.14865732
v -0.13263915 -0.14386629 0.19461038
v -0.13054269 -0.15252570 0.15122878
v -0.13129540 -0.15283739 0.14865732
v -0.12977838 -0.14735211 0.19461038
v -0.12941198 -0.15625357 0.15122878
v -0.13021028 -0.15641274 0.14865732
v -0.12765291 -0.15132867 0.19461038
v -0.12902982 -0.16013066 0.15122878
v -0.12984387 -0.16013066 0.14865732
v -0.12634397 -0.15564345 0.19461038
v -0.12941198 -0.16400775 0.15122878
v -0.13021028 -0.16384942 0.14865732
v -0.12590213 -0.16013066 0.19461038
v -0.13054269 -0.16773645 0.15122878
v -0.13129540 -0.16742476 0.14865732
v -0.12634397 -0.16461787 0.19461038
v -0.13237969 -0.17117170 0.15122878
v -0.13305613 -0.17071991 0.14865732
v -0.12765291 -0.16893348 0.19461038
v -0.13485084 -0.17418334 0.15122878
v -0.13542698 -0.17360804 0.14865649
v -0.12977838 -0.17291005 0.19461038
v -0.13786249 -0.17665533 0.15122878
v -0.13831510 -0.17597806 0.14865649
v -0.13263915 -0.17639503 0.19461038
v -0.14129856 -0.17849149 0.15122878
v -0.14161026 -0.17773962 0.14865649
v -0.13612497 -0.17925580 0.19461038
v -0.14502644 -0.17962221 0.15122878
v -0.14518560 -0.17882391 0.14865649
v -0.14010153 -0.18138128 0.19461038
v -0.14890352 -0.18000436 0.15122878
v -0.14890352 -0.17919031 0.14865649
v -0.14441631 -0.18269022 0.19461038
v -0.15278061 -0.17962221 0.15122878
v -0.15262228 -0.17882391 0.14865649
v -0.14890352 -0.18313206 0.19461038
v -0.15650931 -0.17849149 0.15122878
v -0.15619762 -0.17773962 0.14865649
v -0.15339156 -0.18269022 0.19461038
v -0.15994539 -0.17665533 0.15122878
v -0.15949277 -0.17597806 0.14865649
v -0.15770634 -0.18138128 0.19461038
v -0.16295620 -0.17418334 0.15122878
v -0.16238090 -0.17360804 0.14865649
v -0.16168291 -0.17925580 0.19461038
v -0.16542819 -0.17117170 0.15122878
v -0.16475092 -0.17071991 0.14865732
v -0.16516789 -0.17639503 0.19461038
v -0.16726435 -0.16773645 0.15122878
v -0.16651248 -0.16742476 0.14865732
v -0.16802866 -0.17291005 0.19461038
v -0.16839590 -0.16400775 0.15122878
v -0.16759677 -0.16384942 0.14865732
v -0.17015414 -0.16893348 0.19461038
v -0.16877722 -0.16013066 0.15122878
v -0.16796317 -0.16013066 0.14865732
v -0.17146308 -0.16461787 0.19461038
v -0.16839590 -0.15625357 0.15122878
v -0.16759677 -0.15641274 0.14865732
v -0.17190492 -0.16013066 0.19461038
v -0.16726435 -0.15252570 0.15122878
v -0.16651248 -0.15283739 0.14865732
v -0.17146308 -0.15564345 0.19461038
v -0.16542819 -0.14908963 0.15122878
v -0.16475092 -0.14954224 0.14865732
v -0.17015414 -0.15132867 0.19461038
v -0.16295620 -0.14607798 0.15122878
v -0.16238090 -0.14665329 0.14865732
v -0.16802866 -0.14735211 0.19461038
v -0.15994539 -0.14360683 0.15122878
v -0.15949277 -0.14428327 0.14865732
v -0.16516789 -0.14386629 0.19461038
v -0.15650931 -0.14176983 0.15122878
v -0.15619762 -0.14252171 0.14865732
v -0.16168291 -0.14100552 0.19461038
v -0.15278061 -0.14063912 0.15122878
v -0.15262228 -0.14143742 0.14865732
v -0.15770634 -0.13888005 0.19461038
v -0.15339156 -0.13757110 0.19461038
v -0.15770634 -0.13888005 0.19461038
v -0.16168291 -0.14100552 0.19461038
v -0.16516789 -0.14386629 0.19461038
v -0.16802866 -0.14735211 0.19461038
v -0.17015414 -0.15132867 0.19461038
v -0.17146308 -0.15564345 0.19461038
v -0.17190492 -0.16013066 0.19461038
v -0.17146308 -0.16461787 0.19461038
v -0.17015414 -0.16893348 0.19461038
v -0.16802866 -0.17291005 0.19461038
v -0.16516789 -0.17639503 0.19461038
v -0.16168291 -0.17925580 0.19461038
v -0.15770634 -0.18138128 0.19461038
v -0.15339156 -0.18269022 0.19461038
v -0.14890352 -0.14025696 0.15122878
v -0.14890352 -0.14107101 0.14865732
v -0.15339156 -0.13757110 0.19461038
v -0.14890352 -0.14107101 0.14865732
v -0.14890352 -0.13712926 0.19461038
v -0.15262228 -0.14143742 0.14865732
v -0.14890352 -0.14107101 0.14865732
v -0.14518560 -0.14143742 0.14865732
v -0.14161026 -0.14252171 0.14865732
v -0.13831510 -0.14428327 0.14865732
v -0.13542698 -0.14665329 0.14865732
v -0.13305613 -0.14954224 0.14865732
v -0.13129540 -0.15283739 0.14865732
v -0.13021028 -0.15641274 0.14865732
v -0.12984387 -0.16013066 0.14865732
v -0.13021028 -0.16384942 0.14865732
v -0.13129540 -0.16742476 0.14865732
v -0.13305613 -0.17071991 0.14865732
v -0.13542698 -0.17360804 0.14865649
v -0.13831510 -0.17597806 0.14865649
v -0.14161026 -0.17773962 0.14865649
v -0.14518560 -0.17882391 0.14865649
v -0.14890352 -0.17919031 0.14865649
v -0.15262228 -0.17882391 0.14865649
v -0.15619762 -0.17773962 0.14865649
v -0.15949277 -0.17597806 0.14865649
v -0.16238090 -0.17360804 0.14865649
v -0.16475092 -0.17071991 0.14865732
v -0.16651248 -0.16742476 0.14865732
v -0.16759677 -0.16384942 0.14865732
v -0.16796317 -0.16013066 0.14865732
v -0.16759677 -0.15641274 0.14865732
v -0.16651248 -0.15283739 0.14865732
v -0.16475092 -0.14954224 0.14865732
v -0.16238090 -0.14665329 0.14865732
v -0.15949277 -0.14428327 0.14865732
v -0.15619762 -0.14252171 0.14865732
v -0.00726674 0.21564836 0.50000000
v 0.25617955 0.21564836 0.50000000
v 0.25617955 0.21564836 0.17329925
v -0.03446935 0.21564836 0.50000000
v -0.08613898 0.21564836 0.50000000
v -0.08613898 0.21564836 0.50000000
v 0.25617955 0.21564836 -0.47539869
v -0.25617955 0.21564836 -0.47539869
v -0.25617955 0.21564836 -0.47539869
v -0.25617955 0.21564836 0.01587309
v -0.25617955 0.21564836 0.50000000
v -0.25617955 0.21564836 0.50000000
v -0.25617955 0.21564836 0.50000000
vn 1.00000000 0.00000000 0.00000000
vn 1.00000000 0.00000000 0.00000000
vn 1.00000000 0.00000000 0.00000000
vn 1.00000000 0.00000000 0.00000000
vn 1.00000000 0.00000000 0.00000000
vn 1.00000000 0.00000000 0.00000000
vn 1.00000000 0.00000000 0.00000000
vn 1.00000000 0.00000000 0.00000000
vn 1.00000000 0.00000000 0.00000000
vn 0.00000000 0.00000000 1.00000000
vn 0.00000000 0.00000000 1.00000000
vn 0.00000000 0.00000000 1.00000000
vn 0.00000000 0.00000000 1.00000000
vn 0.00000000 0.00000000 1.00000000
vn 0.00000000 0.00000000 1.00000000
vn 0.00000000 0.00000000 1.00000000
vn 0.00000000 0.00000000 1.00000000
vn 0.00000000 0.00000000 1.00000000
vn -1.00000000 0.00000000 0.00000000
vn -1.00000000 0.00000000 0.00000000
vn -1.00000000 0.00000000 0.00000000
vn -1.00000000 0.00000000 0.00000000
vn -1.00000000 0.00000000 0.00000000
vn -1.00000000 0.00000000 0.00000000
vn -1.00000000 0.00000000 0.00000000
vn -1.00000000 0.00000000 0.00000000
vn -1.00000000 0.00000000 0.00000000
vn -1.00000000 0.00000000 0.00000000
vn -1.00000000 0.00000000 0.00000000
vn 0.00000000 1.00000000 0.00000000
vn 0.00000000 1.00000000 0.00000000
vn 0.00000000 1.00000000 0.00000000
vn 0.00000000 1.00000000 0.00000000
vn 0.00000000 1.00000000 0.00000000
vn 0.00000000 1.00000000 0.00000000
vn 0.00000000 1.00000000 0.00000000
vn 0.00000000 1.00000000 0.00000000
vn 0.00000000 1.00000000 0.00000000
vn 0.00000000 1.00000000 0.00000000
vn 0.00000000 1.00000000 0.00000000
vn 0.00000000 1.00000000 0.00000000
vn 0.00000000 -1.00000000 0.00000000
vn 0.00000000 -1.00000000 0.00000000
vn 0.00000000 -1.00000000 0.00000000
vn 0.00000000 -1.00000000 0.00000000
vn 1.00000000 0.00000000 0.00000000
vn 1.00000000 0.00000000 0.00000000
vn 1.00000000 0.00000000 0.00000000
vn 1.00000000 0.00000000 0.00000000
vn 0.00000000 -1.00000000 0.00000000
vn 0.00000000 -1.00000000 0.00000000
vn 0.00000000 -1.00000000 0.00000000
vn 0.00000000 -1.00000000 0.00000000
vn 0.00000000 -1.00000000 0.00000000
vn 0.00000000 -1.00000000 0.00000000
vn 0.00000000 -1.00000000 0.00000000
vn 0.00000000 -1.00000000 0.00000000
vn 0.00000000 -1.00000000 0.00000000
vn 0.00000000 -1.00000000 0.00000000
vn 0.00000000 -1.00000000 0.00000000
vn 0.00000000 -1.00000000 0.00000000
vn 0.00000000 -1.00000000 0.00000000
vn 0.00000000 -1.00000000 0.00000000
vn 0.00000000 -1.00000000 0.00000000
vn 0.00000000 -1.00000000 0.00000000
vn 0.00000000 0.00000000 -1.00000000
vn 0.00000000 0.00000000 -1.00000000
vn 0.00000000 0.00000000 -1.00000000
vn 0.00000000 0.00000000 -1.00000000
vn 0.00000000 0.00000000 1.00000000
vn 0.00000000 0.00000000 1.00000000
vn 0.00000000 0.00000000 1.00000000
vn 0.00000000 0.00000000 1.00000000
vn -1.00000000 0.00000000 0.00000000
vn -1.00000000 0.00000000 0.00000000
vn -1.00000000 0.00000000 0.00000000
vn -1.00000000 0.00000000 0.00000000
vn 0.00000000 1.00000000 0.00000000
vn 0.00000000 1.00000000 0.00000000
vn 0.00000000 1.00000000 0.00000000
vn 0.00000000 1.00000000 0.00000000
vn 1.00000000 0.00000000 0.00000000
vn 1.00000000 0.00000000 0.00000000
vn 1.00000000 0.00000000 0.00000000
vn 1.00000000 0.00000000 0.00000000
vn 0.00000000 -1.00000000 0.00000000
vn 0.00000000 -1.00000000 0.00000000
vn 0.00000000 -1.00000000 0.00000000
vn 0.00000000 -1.00000000 0.00000000
vn 0.00000000 0.00000000 -1.00000000
vn 0.00000000 0.00000000 -1.00000000
vn 0.00000000 0.00000000 -1.00000000
vn 0.00000000 0.00000000 -1.00000000
vn 0.00000000 0.00000000 1.00000000
vn 0.00000000 0.00000000 1.00000000
vn 0.00000000 0.00000000 1.00000000
vn 0.00000000 0.00000000 1.00000000
vn 0.14430365 0.73211853 -0.66571685
vn 0.19170236 0.96351186 -0.18680230
vn 0.37591263 0.90763049 -0.18680628
vn 0.28079589 0.68358999 -0.67369013
vn -0.01250046 0.98233614 -0.18670687
vn -0.03360140 0.76903197 0.63832654
vn 0.14670207 0.73751041 0.65920930
vn 0.54581252 0.81681874 -0.18680429
vn 0.40300508 0.60770766 -0.68430863
vn 0.28780265 0.69470640 0.65920607
vn 0.69466165 0.69466165 -0.18678969
vn 0.50661403 0.50991412 -0.69521925
vn 0.41780491 0.62520734 0.65920774
vn 0.81681874 0.54581252 -0.18680429
vn 0.58890477 0.39570321 -0.70470571
vn 0.53171212 0.53171212 0.65921502
vn 0.90763049 0.37591263 -0.18680628
vn 0.64840590 0.27000246 -0.71180648
vn 0.62529437 0.41769624 0.65919406
vn 0.96351186 0.19170236 -0.18680230
vn 0.68437946 0.13679589 -0.71617850
vn 0.69470640 0.28780265 0.65920607
vn 0.98239804 0.00000000 -0.18679963
vn 0.69647841 0.00000000 -0.71757775
vn 0.73751041 0.14670207 0.65920930
vn 0.96351186 -0.19170236 -0.18680230
vn 0.68448162 -0.13679633 -0.71608077
vn 0.75198171 0.00000000 0.65918397
vn 0.90763049 -0.37591263 -0.18680628
vn 0.64859659 -0.27009858 -0.71159625
vn 0.73751041 -0.14670207 0.65920930
vn 0.81681874 -0.54581252 -0.18680429
vn 0.58917855 -0.39588559 -0.70437436
vn 0.69470640 -0.28780265 0.65920607
vn 0.69466165 -0.69466165 -0.18678969
vn 0.50690033 -0.51020033 -0.69480046
vn 0.62529437 -0.41769624 0.65919406
vn 0.54581252 -0.81681874 -0.18680429
vn 0.40320632 -0.60790953 -0.68401072
vn 0.53171212 -0.53171212 0.65921502
vn 0.37591263 -0.90763049 -0.18680628
vn 0.28088743 -0.68376940 -0.67346986
vn 0.41780491 -0.62520734 0.65920774
vn 0.19170236 -0.96351186 -0.18680230
vn 0.14430269 -0.73221366 -0.66561242
vn 0.28780265 -0.69470640 0.65920607
vn 0.00000000 -0.98239804 -0.18679963
vn 0.00000000 -0.74889158 -0.66269254
vn 0.14670207 -0.73751041 0.65920930
vn -0.19170236 -0.96351186 -0.18680230
vn -0.14430365 -0.73211853 -0.66571685
vn 0.00000000 -0.75198171 0.65918397
vn -0.37591263 -0.90763049 -0.18680628
vn -0.28079589 -0.68358999 -0.67369013
vn -0.14139952 -0.71199758 0.68779766
vn -0.54581252 -0.81681874 -0.18680429
vn -0.40308884 -0.60768317 -0.68428105
vn -0.27721198 -0.66992896 0.68872977
vn -0.69466165 -0.69466165 -0.18678969
vn -0.50661403 -0.50991412 -0.69521925
vn -0.40189798 -0.60209698 0.68989654
vn -0.81681874 -0.54581252 -0.18680429
vn -0.58890477 -0.39570321 -0.70470571
vn -0.51100159 -0.51140159 0.69090215
vn -0.90763049 -0.37591263 -0.18680628
vn -0.64840590 -0.27000246 -0.71180648
vn -0.60038469 -0.40138976 0.69168236
vn -0.96351186 -0.19170236 -0.18680230
vn -0.68437946 -0.13679589 -0.71617850
vn -0.66681122 -0.27630465 0.69211165
vn -0.98239804 0.00000000 -0.18679963
vn -0.69647841 0.00000000 -0.71757775
vn -0.70767110 -0.14079425 0.69237172
vn -0.96351186 0.19170236 -0.18680230
vn -0.68448162 0.13679633 -0.71608077
vn -0.72150721 0.00000000 0.69240692
vn -0.90763049 0.37591263 -0.18680628
vn -0.64859659 0.27009858 -0.71159625
vn -0.70772009 0.14080400 0.69231966
vn -0.81681874 0.54581252 -0.18680429
vn -0.58917855 0.39588559 -0.70437436
vn -0.66681122 0.27630465 0.69211165
vn -0.69466165 0.69466165 -0.18678969
vn -0.50681666 0.51011677 -0.69492284
vn -0.60050758 0.40150507 0.69150873
vn -0.54581252 0.81681874 -0.18680429
vn -0.40320632 0.60790953 -0.68401072
vn -0.51108464 0.51148463 0.69077924
vn -0.37591263 0.90763049 -0.18680628
vn -0.28088743 0.68376940 -0.67346986
vn -0.40198535 0.60217806 0.68977487
vn -0.19170236 0.96351186 -0.18680230
vn -0.14430269 0.73221366 -0.66561242
vn -0.27730482 0.67001164 0.68861196
vn -0.15300662 0.77423351 0.61412658
vn -0.29940126 0.72710305 0.61780259
vn -0.43301052 0.65161583 0.62281513
vn -0.54901723 0.55151730 0.62801970
vn -0.64328610 0.43159068 0.63238634
vn -0.71280284 0.29630118 0.63570254
vn -0.75538826 0.15079766 0.63769009
vn -0.76979271 0.00000000 0.63829396
vn -0.75538826 -0.15079766 0.63769009
vn -0.71280284 -0.29630118 0.63570254
vn -0.64331386 -0.43150930 0.63241363
vn -0.54901723 -0.55151730 0.62801970
vn -0.43301052 -0.65161583 0.62281513
vn -0.29940126 -0.72710305 0.61780259
vn -0.15300662 -0.77423351 0.61412658
vn 0.01390025 0.98231798 -0.18670342
vn -0.00780006 0.74590610 -0.66600544
vn -0.14149717 0.71208578 0.68768626
vn 0.00780006 0.74590610 -0.66600544
vn 0.02449996 0.72109884 0.69239889
vn -0.09280329 0.45521613 -0.88553138
vn 0.00000000 0.46238829 -0.88667755
vn 0.09280329 0.45521613 -0.88553138
vn 0.18359991 0.43319979 -0.88239958
vn 0.26959921 0.39529884 -0.87809743
vn 0.34738151 0.34118184 -0.87345351
vn 0.41299627 0.27159755 -0.86929215
vn 0.46287944 0.18889161 -0.86606153
vn 0.49409496 0.09689901 -0.86399118
vn 0.50469773 0.00000000 -0.86329612
vn 0.49409496 -0.09689901 -0.86399118
vn 0.46287944 -0.18889161 -0.86606153
vn 0.41299627 -0.27159755 -0.86929215
vn 0.34730543 -0.34110533 -0.87351365
vn 0.26959921 -0.39529884 -0.87809743
vn 0.18359991 -0.43319979 -0.88239958
vn 0.09280329 -0.45521613 -0.88553138
vn 0.00000000 -0.46238829 -0.88667755
vn -0.09280329 -0.45521613 -0.88553138
vn -0.18359991 -0.43319979 -0.88239958
vn -0.26959921 -0.39529884 -0.87809743
vn -0.34729358 -0.34119369 -0.87348385
vn -0.41299627 -0.27159755 -0.86929215
vn -0.46287944 -0.18889161 -0.86606153
vn -0.49409496 -0.09689901 -0.86399118
vn -0.50469773 0.00000000 -0.86329612
vn -0.49409496 0.09689901 -0.86399118
vn -0.46287944 0.18889161 -0.86606153
vn -0.41299627 0.27159755 -0.86929215
vn -0.34730543 0.34110533 -0.87351365
vn -0.26959921 0.39529884 -0.87809743
vn -0.18359991 0.43319979 -0.88239958
vn 0.00000000 1.00000000 0.00000000
vn 0.00000000 1.00000000 0.00000000
vn 0.00000000 1.00000000 0.00000000
vn 0.00000000 1.00000000 0.00000000
vn 0.00000000 0.83318699 -0.55299136
vn 0.00000000 1.00000000 0.00000000
vn 0.00000000 1.00000000 0.00000000
vn 0.00000000 1.00000000 0.00000000
vn 0.00000000 1.00000000 0.00000000
vn 0.00000000 1.00000000 0.00000000
vn 0.00000000 0.79923131 -0.60102355
vn 0.00000000 1.00000000 0.00000000
vn 0.00000000 0.86820622 -0.49620355
vt 0.62500000 0.56250000
vt 0.62500000 0.62500000
vt 0.56448400 0.62500000
vt 0.50396800 0.62500000
vt 0.43948400 0.62500000
vt 0.43948400 0.50000000
vt 0.56448400 0.50000000
vt 0.62500000 0.50000000
vt 0.50396800 0.50000000
vt 0.87500000 0.50000000
vt 0.87500000 0.62500000
vt 0.81250000 0.62500000
vt 0.81250000 0.50000000
vt 0.75000000 0.62500000
vt 0.75000000 0.50000000
vt 0.62500000 0.62500000
vt 0.62500000 0.56250000
vt 0.62500000 0.50000000
vt 0.50396800 0.25000000
vt 0.43948400 0.25000000
vt 0.43948400 0.12500000
vt 0.50396800 0.12500000
vt 0.62500000 0.18750000
vt 0.62500000 0.25000000
vt 0.62500000 0.12500000
vt 0.05373700 0.00000000
vt 0.05373700 1.00000000
vt 0.00000000 1.00000000
vt 0.00000000 0.00000000
vt 0.62500000 0.25000000
vt 0.62500000 0.50000000
vt 0.54151200 0.43252600
vt 0.54151200 0.29933900
vt 0.50084900 0.43252600
vt 0.54151200 0.43252600
vt 0.62500000 0.50000000
vt 0.37500000 0.25000000
vt 0.62500000 0.25000000
vt 0.54151200 0.29933900
vt 0.50084900 0.29933900
vt 0.37500000 0.50000000
vt 0.50084900 0.29933900
vt 0.50084900 0.43252600
vt 0.50084900 0.43252600
vt 0.50084900 0.29933900
vt 0.10747400 0.00000000
vt 0.10747400 1.00000000
vt 0.05373700 1.00000000
vt 0.05373700 0.00000000
vt 0.54151200 0.95066100
vt 0.62500000 1.00000000
vt 0.37500000 1.00000000
vt 0.37500000 0.75000000
vt 0.62500000 0.75000000
vt 0.54151200 0.81747400
vt 0.50084900 0.81747400
vt 0.50084900 0.95066100
vt 0.54151200 0.81747400
vt 0.62500000 0.75000000
vt 0.62500000 1.00000000
vt 0.54151200 0.95066100
vt 0.50084900 0.81747400
vt 0.50084900 0.95066100
vt 0.50084900 0.95066100
vt 0.50084900 0.81747400
vt 0.16121100 0.00000000
vt 0.16121100 0.45902900
vt 0.10747400 0.45902900
vt 0.10747400 0.00000000
vt 0.21494800 0.00000000
vt 0.21494800 0.45902900
vt 0.16121100 0.45902900
vt 0.16121100 0.00000000
vt 0.05373700 0.00000000
vt 0.05373700 1.00000000
vt 0.00000000 1.00000000
vt 0.00000000 0.00000000
vt 0.37500000 0.25000000
vt 0.62500000 0.25000000
vt 0.62500000 0.50000000
vt 0.37500000 0.50000000
vt 0.10747400 0.00000000
vt 0.10747400 1.00000000
vt 0.05373700 1.00000000
vt 0.05373700 0.00000000
vt 0.37500000 0.75000000
vt 0.62500000 0.75000000
vt 0.62500000 1.00000000
vt 0.37500000 1.00000000
vt 0.16121100 0.00000000
vt 0.16121100 0.51906100
vt 0.10747400 0.51906100
vt 0.10747400 0.00000000
vt 0.21494800 0.00000000
vt 0.21494800 0.51906100
vt 0.16121100 0.51906100
vt 0.16121100 0.00000000
vt 0.96875000 0.48817700
vt 0.96875000 0.49046500
vt 0.93750000 0.49046500
vt 0.93750000 0.48817700
vt 1.00000000 0.49046500
vt 1.00000000 0.52907500
vt 0.96875000 0.52907500
vt 0.90625000 0.49046500
vt 0.90625000 0.48817700
vt 0.93750000 0.52907500
vt 0.87500000 0.49046500
vt 0.87500000 0.48817700
vt 0.90625000 0.52907500
vt 0.84375000 0.49046500
vt 0.84375000 0.48817700
vt 0.87500000 0.52907500
vt 0.81250000 0.49046500
vt 0.81250000 0.48817700
vt 0.84375000 0.52907500
vt 0.78125000 0.49046500
vt 0.78125000 0.48817700
vt 0.81250000 0.52907500
vt 0.75000000 0.49046500
vt 0.75000000 0.48817700
vt 0.78125000 0.52907500
vt 0.71875000 0.49046500
vt 0.71875000 0.48817700
vt 0.75000000 0.52907500
vt 0.68750000 0.49046500
vt 0.68750000 0.48817700
vt 0.71875000 0.52907500
vt 0.65625000 0.49046500
vt 0.65625000 0.48817700
vt 0.68750000 0.52907500
vt 0.62500000 0.49046500
vt 0.62500000 0.48817700
vt 0.65625000 0.52907500
vt 0.59375000 0.49046500
vt 0.59375000 0.48817700
vt 0.62500000 0.52907500
vt 0.56250000 0.49046500
vt 0.56250000 0.48817700
vt 0.59375000 0.52907500
vt 0.53125000 0.49046500
vt 0.53125000 0.48817700
vt 0.56250000 0.52907500
vt 0.50000000 0.49046500
vt 0.50000000 0.48817700
vt 0.53125000 0.52907500
vt 0.46875000 0.49046500
vt 0.46875000 0.48817700
vt 0.50000000 0.52907500
vt 0.43750000 0.49046500
vt 0.43750000 0.48817700
vt 0.46875000 0.52907500
vt 0.40625000 0.49046500
vt 0.40625000 0.48817700
vt 0.43750000 0.52907500
vt 0.37500000 0.49046500
vt 0.37500000 0.48817700
vt 0.40625000 0.52907500
vt 0.34375000 0.49046500
vt 0.34375000 0.48817700
vt 0.37500000 0.52907500
vt 0.31250000 0.49046500
vt 0.31250000 0.48817700
vt 0.34375000 0.52907500
vt 0.28125000 0.49046500
vt 0.28125000 0.48817700
vt 0.31250000 0.52907500
vt 0.25000000 0.49046500
vt 0.25000000 0.48817700
vt 0.28125000 0.52907500
vt 0.21875000 0.49046500
vt 0.21875000 0.48817700
vt 0.25000000 0.52907500
vt 0.18750000 0.49046500
vt 0.18750000 0.48817700
vt 0.21875000 0.52907500
vt 0.15625000 0.49046500
vt 0.15625000 0.48817700
vt 0.18750000 0.52907500
vt 0.12500000 0.49046500
vt 0.12500000 0.48817700
vt 0.15625000 0.52907500
vt 0.09375000 0.49046500
vt 0.09375000 0.48817700
vt 0.12500000 0.52907500
vt 0.06250000 0.49046500
vt 0.06250000 0.48817700
vt 0.09375000 0.52907500
vt 0.03125000 0.49046500
vt 0.03125000 0.48817700
vt 0.06250000 0.52907500
vt 1.03125000 0.52907500
vt 1.06250000 0.52907500
vt 1.09375000 0.52907500
vt 1.12500000 0.52907500
vt 1.15625000 0.52907500
vt 1.18750000 0.52907500
vt 1.21875000 0.52907500
vt 1.25000000 0.52907500
vt 1.28125000 0.52907500
vt 1.31250000 0.52907500
vt 1.34375000 0.52907500
vt 1.37500000 0.52907500
vt 1.40625000 0.52907500
vt 1.43750000 0.52907500
vt 1.46875000 0.52907500
vt 0.00000000 0.49046500
vt 0.00000000 0.48817700
vt 0.03125000 0.52907500
vt 1.00000000 0.48817700
vt 0.00000000 0.52907500
vt 0.48838000 0.22526100
vt 0.49640000 0.22447100
vt 0.50442000 0.22526100
vt 0.51213200 0.22760100
vt 0.51924000 0.23140000
vt 0.52547000 0.23651200
vt 0.53058200 0.24274200
vt 0.53438100 0.24984900
vt 0.53672000 0.25756100
vt 0.53751000 0.26558100
vt 0.53672000 0.27360200
vt 0.53438100 0.28131400
vt 0.53058200 0.28842100
vt 0.52547000 0.29465100
vt 0.51924000 0.29976300
vt 0.51213200 0.30356200
vt 0.50442000 0.30590200
vt 0.49640000 0.30669200
vt 0.48838000 0.30590200
vt 0.48066800 0.30356200
vt 0.47356100 0.29976300
vt 0.46733100 0.29465100
vt 0.46221900 0.28842100
vt 0.45841900 0.28131400
vt 0.45608000 0.27360200
vt 0.45529000 0.26558100
vt 0.45608000 0.25756100
vt 0.45841900 0.24984900
vt 0.46221800 0.24274200
vt 0.46733100 0.23651200
vt 0.47356100 0.23140000
vt 0.48066800 0.22760100
vt 0.54180100 0.53082700
vt 0.46532300 0.53082700
vt 0.46532300 0.43598700
vt 0.54969800 0.53082700
vt 0.56469800 0.53082700
vt 0.56469800 0.53082700
vt 0.46532300 0.24767200
vt 0.61406000 0.24767200
vt 0.61406000 0.24767200
vt 0.61406000 0.39028600
vt 0.61406000 0.53082700
vt 0.61406000 0.53082700
vt 0.61406000 0.53082700
f 1/1/1 2/2/2 3/3/3
f 4/4/4 5/5/5 6/6/6
f 1/1/1 3/3/3 4/4/4
f 7/7/7 8/8/8 1/1/1
f 4/4/4 6/6/6 9/9/9
f 9/9/9 7/7/7 1/1/1
f 4/4/4 9/9/9 1/1/1
f 10/10/10 11/11/11 12/12/12
f 13/13/13 10/10/10 12/12/12
f 13/13/13 12/12/12 14/14/14
f 15/15/15 13/13/13 14/14/14
f 14/14/14 16/16/16 17/17/17
f 17/17/17 18/18/18 15/15/15
f 14/14/14 17/17/17 15/15/15
f 19/19/19 20/20/20 21/21/21
f 19/19/19 21/21/21 22/22/22
f 23/23/23 24/24/24 19/19/19
f 22/22/22 25/25/25 23/23/23
f 19/19/19 22/22/22 23/23/23
f 26/26/26 27/27/27 28/28/28
f 26/26/26 28/28/28 29/29/29
f 30/30/30 31/31/31 32/32/32
f 30/30/30 32/32/32 33/33/33
f 34/34/34 35/35/35 36/36/36
f 37/37/37 38/38/38 39/39/39
f 37/37/37 39/39/39 40/40/40
f 34/34/34 36/36/36 41/41/41
f 37/37/37 40/40/40 34/34/34
f 41/41/41 37/37/37 34/34/34
f 42/42/42 43/43/43 44/44/44
f 44/44/44 45/45/45 42/42/42
f 46/46/46 47/47/47 48/48/48
f 46/46/46 48/48/48 49/49/49
f 50/50/50 51/51/51 52/52/52
f 53/53/53 54/54/54 55/55/55
f 53/53/53 55/55/55 56/56/56
f 57/57/57 50/50/50 52/52/52
f 53/53/53 56/56/56 57/57/57
f 52/52/52 53/53/53 57/57/57
f 58/58/58 59/59/59 60/60/60
f 58/58/58 60/60/60 61/61/61
f 62/62/62 63/63/63 64/64/64
f 64/64/64 65/65/65 62/62/62
f 66/66/66 67/67/67 68/68/68
f 66/66/66 68/68/68 69/69/69
f 70/70/70 71/71/71 72/72/72
f 70/70/70 72/72/72 73/73/73
f 74/74/74 75/75/75 76/76/76
f 74/74/74 76/76/76 77/77/77
f 78/78/78 79/79/79 80/80/80
f 78/78/78 80/80/80 81/81/81
f 82/82/82 83/83/83 84/84/84
f 82/82/82 84/84/84 85/85/85
f 86/86/86 87/87/87 88/88/88
f 86/86/86 88/88/88 89/89/89
f 90/90/90 91/91/91 92/92/92
f 90/90/90 92/92/92 93/93/93
f 94/94/94 95/95/95 96/96/96
f 94/94/94 96/96/96 97/97/97
f 244/244/244 245/245/245 246/246/246
f 247/247/247 244/244/244 246/246/246
f 249/249/249 247/247/247 246/246/246
f 250/250/250 252/252/252 253/253/253
f 249/249/249 246/246/246 250/250/250
f 250/250/250 253/253/253 255/255/255
f 250/250/250 255/255/255 249/249/249
f 98/98/98 99/99/99 100/100/100
f 98/98/98 100/100/100 101/101/101
f 102/102/102 103/103/103 104/104/104
f 102/102/102 104/104/104 99/99/99
f 101/101/101 100/100/100 105/105/105
f 101/101/101 105/105/105 106/106/106
f 99/99/99 104/104/104 107/107/107
f 99/99/99 107/107/107 100/100/100
f 106/106/106 105/105/105 108/108/108
f 106/106/106 108/108/108 109/109/109
f 100/100/100 107/107/107 110/110/110
f 100/100/100 110/110/110 105/105/105
f 109/109/109 108/108/108 111/111/111
f 109/109/109 111/111/111 112/112/112
f 105/105/105 110/110/110 113/113/113
f 105/105/105 113/113/113 108/108/108
f 112/112/112 111/111/111 114/114/114
f 112/112/112 114/114/114 115/115/115
f 108/108/108 113/113/113 116/116/116
f 108/108/108 116/116/116 111/111/111
f 115/115/115 114/114/114 117/117/117
f 115/115/115 117/117/117 118/118/118
f 111/111/111 116/116/116 119/119/119
f 111/111/111 119/119/119 114/114/114
f 118/118/118 117/117/117 120/120/120
f 118/118/118 120/120/120 121/121/121
f 114/114/114 119/119/119 122/122/122
f 114/114/114 122/122/122 117/117/117
f 121/121/121 120/120/120 123/123/123
f 121/121/121 123/123/123 124/124/124
f 117/117/117 122/122/122 125/125/125
f 117/117/117 125/125/125 120/120/120
f 124/124/124 123/123/123 126/126/126
f 124/124/124 126/126/126 127/127/127
f 120/120/120 125/125/125 128/128/128
f 120/120/120 128/128/128 123/123/123
f 127/127/127 126/126/126 129/129/129
f 127/127/127 129/129/129 130/130/130
f 123/123/123 128/128/128 131/131/131
f 123/123/123 131/131/131 126/126/126
f 130/130/130 129/129/129 132/132/132
f 130/130/130 132/132/132 133/133/133
f 126/126/126 131/131/131 134/134/134
f 126/126/126 134/134/134 129/129/129
f 133/133/133 132/132/132 135/135/135
f 133/133/133 135/135/135 136/136/136
f 129/129/129 134/134/134 137/137/137
f 129/129/129 137/137/137 132/132/132
f 136/136/136 135/135/135 138/138/138
f 136/136/136 138/138/138 139/139/139
f 132/132/132 137/137/137 140/140/140
f 132/132/132 140/140/140 135/135/135
f 139/139/139 138/138/138 141/141/141
f 139/139/139 141/141/141 142/142/142
f 135/135/135 140/140/140 143/143/143
f 135/135/135 143/143/143 138/138/138
f 142/142/142 141/141/141 144/144/144
f 142/142/142 144/144/144 145/145/145
f 138/138/138 143/143/143 146/146/146
f 138/138/138 146/146/146 141/141/141
f 145/145/145 144/144/144 147/147/147
f 145/145/145 147/147/147 148/148/148
f 141/141/141 146/146/146 149/149/149
f 141/141/141 149/149/149 144/144/144
f 148/148/148 147/147/147 150/150/150
f 148/148/148 150/150/150 151/151/151
f 144/144/144 149/149/149 152/152/152
f 144/144/144 152/152/152 147/147/147
f 151/151/151 150/150/150 153/153/153
f 151/151/151 153/153/153 154/154/154
f 147/147/147 152/152/152 155/155/155
f 147/147/147 155/155/155 150/150/150
f 154/154/154 153/153/153 156/156/156
f 154/154/154 156/156/156 157/157/157
f 150/150/150 155/155/155 158/158/158
f 150/150/150 158/158/158 153/153/153
f 157/157/157 156/156/156 159/159/159
f 157/157/157 159/159/159 160/160/160
f 153/153/153 158/158/158 161/161/161
f 153/153/153 161/161/161 156/156/156
f 160/160/160 159/159/159 162/162/162
f 160/160/160 162/162/162 163/163/163
f 156/156/156 161/161/161 164/164/164
f 156/156/156 164/164/164 159/159/159
f 163/163/163 162/162/162 165/165/165
f 163/163/163 165/165/165 166/166/166
f 159/159/159 164/164/164 167/167/167
f 159/159/159 167/167/167 162/162/162
f 166/166/166 165/165/165 168/168/168
f 166/166/166 168/168/168 169/169/169
f 162/162/162 167/167/167 170/170/170
f 162/162/162 170/170/170 165/165/165
f 169/169/169 168/168/168 171/171/171
f 169/169/169 171/171/171 172/172/172
f 165/165/165 170/170/170 173/173/173
f 165/165/165 173/173/173 168/168/168
f 172/172/172 171/171/171 174/174/174
f 172/172/172 174/174/174 175/175/175
f 168/168/168 173/173/173 176/176/176
f 168/168/168 176/176/176 171/171/171
f 175/175/175 174/174/174 177/177/177
f 175/175/175 177/177/177 178/178/178
f 171/171/171 176/176/176 179/179/179
f 171/171/171 179/179/179 174/174/174
f 178/178/178 177/177/177 180/180/180
f 178/178/178 180/180/180 181/181/181
f 174/174/174 179/179/179 182/182/182
f 174/174/174 182/182/182 177/177/177
f 181/181/181 180/180/180 183/183/183
f 181/181/181 183/183/183 184/184/184
f 177/177/177 182/182/182 185/185/185
f 177/177/177 185/185/185 180/180/180
f 184/184/184 183/183/183 186/186/186
f 184/184/184 186/186/186 187/187/187
f 180/180/180 185/185/185 188/188/188
f 180/180/180 188/188/188 183/183/183
f 187/187/187 186/186/186 189/189/189
f 187/187/187 189/189/189 190/190/190
f 183/183/183 188/188/188 191/191/191
f 183/183/183 191/191/191 186/186/186
f 107/107/107 104/104/104 103/103/103
f 103/103/103 192/192/192 193/193/193
f 193/193/193 194/194/194 195/195/195
f 195/195/195 196/196/196 197/197/197
f 197/197/197 198/198/198 199/199/199
f 199/199/199 200/200/200 201/201/201
f 201/201/201 202/202/202 203/203/203
f 203/203/203 204/204/204 205/205/205
f 205/205/205 206/206/206 149/149/149
f 149/149/149 146/146/146 143/143/143
f 143/143/143 140/140/140 137/137/137
f 137/137/137 134/134/134 131/131/131
f 131/131/131 128/128/128 125/125/125
f 125/125/125 122/122/122 119/119/119
f 119/119/119 116/116/116 113/113/113
f 113/113/113 110/110/110 107/107/107
f 107/107/107 103/103/103 193/193/193
f 193/193/193 195/195/195 197/197/197
f 197/197/197 199/199/199 201/201/201
f 201/201/201 203/203/203 205/205/205
f 205/205/205 149/149/149 143/143/143
f 143/143/143 137/137/137 131/131/131
f 131/131/131 125/125/125 119/119/119
f 119/119/119 113/113/113 107/107/107
f 107/107/107 193/193/193 197/197/197
f 197/197/197 201/201/201 205/205/205
f 205/205/205 143/143/143 131/131/131
f 131/131/131 119/119/119 107/107/107
f 107/107/107 197/197/197 205/205/205
f 205/205/205 131/131/131 107/107/107
f 190/190/190 189/189/189 207/207/207
f 190/190/190 207/207/207 208/208/208
f 186/186/186 191/191/191 209/209/209
f 186/186/186 209/209/209 189/189/189
f 210/210/210 102/102/102 99/99/99
f 210/210/210 99/99/99 98/98/98
f 189/189/189 209/209/209 211/211/211
f 189/189/189 211/211/211 207/207/207
f 212/212/212 213/213/213 214/214/214
f 214/214/214 215/215/215 216/216/216
f 216/216/216 217/217/217 218/218/218
f 218/218/218 219/219/219 220/220/220
f 220/220/220 221/221/221 222/222/222
f 222/222/222 223/223/223 224/224/224
f 224/224/224 225/225/225 226/226/226
f 226/226/226 227/227/227 228/228/228
f 228/228/228 229/229/229 230/230/230
f 230/230/230 231/231/231 232/232/232
f 232/232/232 233/233/233 234/234/234
f 234/234/234 235/235/235 236/236/236
f 236/236/236 237/237/237 238/238/238
f 238/238/238 239/239/239 240/240/240
f 240/240/240 241/241/241 242/242/242
f 242/242/242 243/243/243 212/212/212
f 212/212/212 214/214/214 216/216/216
f 216/216/216 218/218/218 220/220/220
f 220/220/220 222/222/222 224/224/224
f 224/224/224 226/226/226 228/228/228
f 228/228/228 230/230/230 232/232/232
f 232/232/232 234/234/234 236/236/236
f 236/236/236 238/238/238 240/240/240
f 240/240/240 242/242/242 212/212/212
f 212/212/212 216/216/216 220/220/220
f 220/220/220 224/224/224 228/228/228
f 228/228/228 232/232/232 236/236/236
f 236/236/236 240/240/240 212/212/212
f 212/212/212 220/220/220 228/228/228
f 228/228/228 236/236/236 212/212/212
f 250/250/250 251/251/251 252/252/252
f 254/254/254 256/256/256 248/248/248