# https://github.com/mikedh/trimesh
mtllib material.mtl
usemtl material_0
v -0.16946609 -0.13405130 0.04462588
v -0.16946609 -0.13405130 0.04462588
v -0.16946609 -0.13405130 0.04462588
v -0.16946609 -0.13405130 0.12370204
v -0.16946609 -0.13405130 0.12370204
v -0.16946609 -0.13405130 0.12370204
v -0.16946609 -0.11415108 0.04462588
v -0.16946609 -0.11415108 0.04462588
v -0.16946609 -0.11415108 0.12370204
v -0.16946609 -0.11415108 0.12370204
v -0.12834178 -0.13405130 0.04462588
v -0.12834178 -0.13405130 0.04462588
v -0.12834178 -0.13405130 0.04462588
v -0.12834178 -0.13405130 0.12370204
v -0.12834178 -0.13405130 0.12370204
v -0.12834178 -0.13405130 0.12370204
v -0.12834178 -0.11415108 0.04462588
v -0.12834178 -0.11415108 0.04462588
v -0.12834178 -0.11415108 0.12370204
v -0.12834178 -0.11415108 0.12370204
v 0.03525356 -0.21010256 -0.39360931
v 0.03525356 -0.21010256 -0.39360931
v 0.03525356 -0.21010256 -0.39360931
v 0.03525356 -0.21010256 -0.39360931
v 0.03525356 -0.21010256 -0.39360931
v 0.03514745 -0.21118436 -0.39360931
v 0.03514745 -0.21118436 -0.39360931
v 0.03514745 -0.21118436 -0.39360931
v 0.03514745 -0.21118436 -0.39360931
v 0.03483161 -0.21222472 -0.39360931
v 0.03483161 -0.21222472 -0.39360931
v 0.03483161 -0.21222472 -0.39360931
v 0.03483161 -0.21222472 -0.39360931
v 0.03483161 -0.21222472 -0.39360931
v 0.03431931 -0.21318384 -0.39360931
v 0.03431931 -0.21318384 -0.39360931
v 0.03431931 -0.21318384 -0.39360931
v 0.03431931 -0.21318384 -0.39360931
v 0.03362961 -0.21402358 -0.39360931
v 0.03362961 -0.21402358 -0.39360931
v 0.03362961 -0.21402358 -0.39360931
v 0.03362961 -0.21402358 -0.39360931
v 0.03362961 -0.21402358 -0.39360931
v 0.03278903 -0.21471328 -0.39360931
v 0.03278903 -0.21471328 -0.39360931
v 0.03278903 -0.21471328 -0.39360931
v 0.03278903 -0.21471328 -0.39360931
v 0.03278903 -0.21471328 -0.39360931
v 0.03182992 -0.21522642 -0.39360931
v 0.03182992 -0.21522642 -0.39360931
v 0.03182992 -0.21522642 -0.39360931
v 0.03182992 -0.21522642 -0.39360931
v 0.03182992 -0.21522642 -0.39360931
v 0.03078956 -0.21554142 -0.39360931
v 0.03078956 -0.21554142 -0.39360931
v 0.03078956 -0.21554142 -0.39360931
v 0.03078956 -0.21554142 -0.39360931
v 0.03078956 -0.21554142 -0.39360931
v 0.02970776 -0.21564836 -0.39360931
v 0.02970776 -0.21564836 -0.39360931
v 0.02970776 -0.21564836 -0.39360931
v 0.02970776 -0.21564836 -0.39360931
v 0.02862595 -0.21554142 -0.39360931
v 0.02862595 -0.21554142 -0.39360931
v 0.02862595 -0.21554142 -0.39360931
v 0.02862595 -0.21554142 -0.39360931
v 0.02758560 -0.21522642 -0.39360931
v 0.02758560 -0.21522642 -0.39360931
v 0.02758560 -0.21522642 -0.39360931
v 0.02758560 -0.21522642 -0.39360931
v 0.02662731 -0.21471328 -0.39360931
v 0.02662731 -0.21471328 -0.39360931
v 0.02662731 -0.21471328 -0.39360931
v 0.02662731 -0.21471328 -0.39360931
v 0.02578673 -0.21402358 -0.39360931
v 0.02578673 -0.21402358 -0.39360931
v 0.02578673 -0.21402358 -0.39360931
v 0.02578673 -0.21402358 -0.39360931
v 0.02578673 -0.21402358 -0.39360931
v 0.02509703 -0.21318384 -0.39360931
v 0.02509703 -0.21318384 -0.39360931
v 0.02509703 -0.21318384 -0.39360931
v 0.02509703 -0.21318384 -0.39360931
v 0.02509703 -0.21318384 -0.39360931
v 0.02458473 -0.21222472 -0.39360931
v 0.02458473 -0.21222472 -0.39360931
v 0.02458473 -0.21222472 -0.39360931
v 0.02458473 -0.21222472 -0.39360931
v 0.02426889 -0.21118436 -0.39360931
v 0.02426889 -0.21118436 -0.39360931
v 0.02426889 -0.21118436 -0.39360931
v 0.02426889 -0.21118436 -0.39360931
v 0.02416278 -0.21010256 -0.39360931
v 0.02416278 -0.21010256 -0.39360931
v 0.02416278 -0.21010256 -0.39360931
v 0.02416278 -0.21010256 -0.39360931
v 0.02426889 -0.20902076 -0.39360931
v 0.02426889 -0.20902076 -0.39360931
v 0.02426889 -0.20902076 -0.39360931
v 0.02426889 -0.20902076 -0.39360931
v 0.02458473 -0.20798040 -0.39360931
v 0.02458473 -0.20798040 -0.39360931
v 0.02458473 -0.20798040 -0.39360931
v 0.02458473 -0.20798040 -0.39360931
v 0.02509703 -0.20702128 -0.39360931
v 0.02509703 -0.20702128 -0.39360931
v 0.02509703 -0.20702128 -0.39360931
v 0.02509703 -0.20702128 -0.39360931
v 0.02509703 -0.20702128 -0.39360931
v 0.02578673 -0.20618154 -0.39360931
v 0.02578673 -0.20618154 -0.39360931
v 0.02578673 -0.20618154 -0.39360931
v 0.02578673 -0.20618154 -0.39360931
v 0.02578673 -0.20618154 -0.39360931
v 0.02662731 -0.20549184 -0.39360931
v 0.02662731 -0.20549184 -0.39360931
v 0.02662731 -0.20549184 -0.39360931
v 0.02662731 -0.20549184 -0.39360931
v 0.02758560 -0.20497870 -0.39360931
v 0.02758560 -0.20497870 -0.39360931
v 0.02758560 -0.20497870 -0.39360931
v 0.02758560 -0.20497870 -0.39360931
v 0.02758560 -0.20497870 -0.39360931
v 0.02862595 -0.20466370 -0.39360931
v 0.02862595 -0.20466370 -0.39360931
v 0.02862595 -0.20466370 -0.39360931
v 0.02862595 -0.20466370 -0.39360931
v 0.02970776 -0.20455676 -0.39360931
v 0.02970776 -0.20455676 -0.39360931
v 0.02970776 -0.20455676 -0.39360931
v 0.02970776 -0.20455676 -0.39360931
v 0.03078956 -0.20466370 -0.39360931
v 0.03078956 -0.20466370 -0.39360931
v 0.03078956 -0.20466370 -0.39360931
v 0.03078956 -0.20466370 -0.39360931
v 0.03078956 -0.20466370 -0.39360931
v 0.03182992 -0.20497870 -0.39360931
v 0.03182992 -0.20497870 -0.39360931
v 0.03182992 -0.20497870 -0.39360931
v 0.03182992 -0.20497870 -0.39360931
v 0.03182992 -0.20497870 -0.39360931
v 0.03278903 -0.20549184 -0.39360931
v 0.03278903 -0.20549184 -0.39360931
v 0.03278903 -0.20549184 -0.39360931
v 0.03278903 -0.20549184 -0.39360931
v 0.03278903 -0.20549184 -0.39360931
v 0.03362961 -0.20618154 -0.39360931
v 0.03362961 -0.20618154 -0.39360931
v 0.03362961 -0.20618154 -0.39360931
v 0.03362961 -0.20618154 -0.39360931
v 0.03431931 -0.20702128 -0.39360931
v 0.03431931 -0.20702128 -0.39360931
v 0.03431931 -0.20702128 -0.39360931
v 0.03431931 -0.20702128 -0.39360931
v 0.03483161 -0.20798040 -0.39360931
v 0.03483161 -0.20798040 -0.39360931
v 0.03483161 -0.20798040 -0.39360931
v 0.03483161 -0.20798040 -0.39360931
v 0.03514745 -0.20902076 -0.39360931
v 0.03514745 -0.20902076 -0.39360931
v 0.03514745 -0.20902076 -0.39360931
v 0.03514745 -0.20902076 -0.39360931
v 0.03525356 -0.21010256 0.44536349
v 0.03525356 -0.21010256 0.44536349
v 0.03525356 -0.21010256 0.44536349
v 0.03525356 -0.21010256 0.44536349
v 0.03514745 -0.21118436 0.44646602
v 0.03514745 -0.21118436 0.44646602
v 0.03514745 -0.21118436 0.44646602
v 0.03514745 -0.21118436 0.44646602
v 0.03514745 -0.21118436 0.44646602
v 0.03483161 -0.21222472 0.44752627
v 0.03483161 -0.21222472 0.44752627
v 0.03483161 -0.21222472 0.44752627
v 0.03483161 -0.21222472 0.44752627
v 0.03431931 -0.21318384 0.44850280
v 0.03431931 -0.21318384 0.44850280
v 0.03431931 -0.21318384 0.44850280
v 0.03431931 -0.21318384 0.44850280
v 0.03362961 -0.21402441 0.44935912
v 0.03362961 -0.21402441 0.44935912
v 0.03362961 -0.21402441 0.44935912
v 0.03362961 -0.21402441 0.44935912
v 0.03278903 -0.21471411 0.45006209
v 0.03278903 -0.21471411 0.45006209
v 0.03278903 -0.21471411 0.45006209
v 0.03278903 -0.21471411 0.45006209
v 0.03182992 -0.21522642 0.45058351
v 0.03182992 -0.21522642 0.45058351
v 0.03182992 -0.21522642 0.45058351
v 0.03182992 -0.21522642 0.45058351
v 0.03078956 -0.21554142 0.45090515
v 0.03078956 -0.21554142 0.45090515
v 0.03078956 -0.21554142 0.45090515
v 0.03078956 -0.21554142 0.45090515
v 0.02970776 -0.21564836 0.45101375
v 0.02970776 -0.21564836 0.45101375
v 0.02970776 -0.21564836 0.45101375
v 0.02970776 -0.21564836 0.45101375
v 0.02970776 -0.21564836 0.45101375
v 0.02862595 -0.21554142 0.45090515
v 0.02862595 -0.21554142 0.45090515
v 0.02862595 -0.21554142 0.45090515
v 0.02862595 -0.21554142 0.45090515
v 0.02758560 -0.21522642 0.45058351
v 0.02758560 -0.21522642 0.45058351
v 0.02758560 -0.21522642 0.45058351
v 0.02758560 -0.21522642 0.45058351
v 0.02662731 -0.21471411 0.45006209
v 0.02662731 -0.21471411 0.45006209
v 0.02662731 -0.21471411 0.45006209
v 0.02662731 -0.21471411 0.45006209
v 0.02578673 -0.21402441 0.44935912
v 0.02578673 -0.21402441 0.44935912
v 0.02578673 -0.21402441 0.44935912
v 0.02578673 -0.21402441 0.44935912
v 0.02509703 -0.21318384 0.44850280
v 0.02509703 -0.21318384 0.44850280
v 0.02509703 -0.21318384 0.44850280
v 0.02509703 -0.21318384 0.44850280
v 0.02458473 -0.21222472 0.44752627
v 0.02458473 -0.21222472 0.44752627
v 0.02458473 -0.21222472 0.44752627
v 0.02458473 -0.21222472 0.44752627
v 0.02426889 -0.21118436 0.44646602
v 0.02426889 -0.21118436 0.44646602
v 0.02426889 -0.21118436 0.44646602
v 0.02426889 -0.21118436 0.44646602
v 0.02416278 -0.21010256 0.44536349
v 0.02416278 -0.21010256 0.44536349
v 0.02416278 -0.21010256 0.44536349
v 0.02416278 -0.21010256 0.44536349
v 0.02426889 -0.20902076 0.44426097
v 0.02426889 -0.20902076 0.44426097
v 0.02426889 -0.20902076 0.44426097
v 0.02426889 -0.20902076 0.44426097
v 0.02458473 -0.20798040 0.44320154
v 0.02458473 -0.20798040 0.44320154
v 0.02458473 -0.20798040 0.44320154
v 0.02458473 -0.20798040 0.44320154
v 0.02509703 -0.20702211 0.44222419
v 0.02509703 -0.20702211 0.44222419
v 0.02509703 -0.20702211 0.44222419
v 0.02509703 -0.20702211 0.44222419
v 0.02578673 -0.20618154 0.44136869
v 0.02578673 -0.20618154 0.44136869
v 0.02578673 -0.20618154 0.44136869
v 0.02578673 -0.20618154 0.44136869
v 0.02662731 -0.20549184 0.44066573
v 0.02662731 -0.20549184 0.44066573
v 0.02662731 -0.20549184 0.44066573
v 0.02662731 -0.20549184 0.44066573
v 0.02758560 -0.20497953 0.44014348
v 0.02758560 -0.20497953 0.44014348
v 0.02758560 -0.20497953 0.44014348
v 0.02758560 -0.20497953 0.44014348
v 0.02862595 -0.20466370 0.43982184
v 0.02862595 -0.20466370 0.43982184
v 0.02862595 -0.20466370 0.43982184
v 0.02862595 -0.20466370 0.43982184
v 0.02970776 -0.20455676 0.43971324
v 0.02970776 -0.20455676 0.43971324
v 0.02970776 -0.20455676 0.43971324
v 0.02970776 -0.20455676 0.43971324
v 0.03078956 -0.20466370 0.43982184
v 0.03078956 -0.20466370 0.43982184
v 0.03078956 -0.20466370 0.43982184
v 0.03078956 -0.20466370 0.43982184
v 0.03182992 -0.20497953 0.44014348
v 0.03182992 -0.20497953 0.44014348
v 0.03182992 -0.20497953 0.44014348
v 0.03182992 -0.20497953 0.44014348
v 0.03278903 -0.20549184 0.44066573
v 0.03278903 -0.20549184 0.44066573
v 0.03278903 -0.20549184 0.44066573
v 0.03278903 -0.20549184 0.44066573
v 0.03362961 -0.20618154 0.44136869
v 0.03362961 -0.20618154 0.44136869
v 0.03362961 -0.20618154 0.44136869
v 0.03362961 -0.20618154 0.44136869
v 0.03431931 -0.20702211 0.44222419
v 0.03431931 -0.20702211 0.44222419
v 0.03431931 -0.20702211 0.44222419
v 0.03431931 -0.20702211 0.44222419
v 0.03483161 -0.20798040 0.44320154
v 0.03483161 -0.20798040 0.44320154
v 0.03483161 -0.20798040 0.44320154
v 0.03483161 -0.20798040 0.44320154
v 0.03514745 -0.20902076 0.44426097
v 0.03514745 -0.20902076 0.44426097
v 0.03514745 -0.20902076 0.44426097
v 0.03514745 -0.20902076 0.44426097
v 0.03525356 -0.18839187 0.44536349
v 0.03525356 -0.18839187 0.44536349
v 0.03514745 -0.18839187 0.44646602
v 0.03514745 -0.18839187 0.44646602
v 0.03483161 -0.18839187 0.44752627
v 0.03483161 -0.18839187 0.44752627
v 0.03483161 -0.18839187 0.44752627
v 0.03431931 -0.18839187 0.44850280
v 0.03431931 -0.18839187 0.44850280
v 0.03362961 -0.18839187 0.44935912
v 0.03362961 -0.18839187 0.44935912
v 0.03278903 -0.18839187 0.45006209
v 0.03278903 -0.18839187 0.45006209
v 0.03182992 -0.18839187 0.45058351
v 0.03182992 -0.18839187 0.45058351
v 0.03078956 -0.18839187 0.45090515
v 0.03078956 -0.18839187 0.45090515
v 0.02970776 -0.18839187 0.45101375
v 0.02970776 -0.18839187 0.45101375
v 0.02862595 -0.18839187 0.45090515
v 0.02862595 -0.18839187 0.45090515
v 0.02758560 -0.18839187 0.45058351
v 0.02758560 -0.18839187 0.45058351
v 0.02662731 -0.18839187 0.45006209
v 0.02662731 -0.18839187 0.45006209
v 0.02578673 -0.18839187 0.44935912
v 0.02578673 -0.18839187 0.44935912
v 0.02509703 -0.18839187 0.44850280
v 0.02509703 -0.18839187 0.44850280
v 0.02458473 -0.18839187 0.44752627
v 0.02458473 -0.18839187 0.44752627
v 0.02426889 -0.18839187 0.44646602
v 0.02426889 -0.18839187 0.44646602
v 0.02416278 -0.18839187 0.44536349
v 0.02416278 -0.18839187 0.44536349
v 0.02426889 -0.18839187 0.44426097
v 0.02426889 -0.18839187 0.44426097
v 0.02458473 -0.18839187 0.44320154
v 0.02458473 -0.18839187 0.44320154
v 0.02509703 -0.18839187 0.44222419
v 0.02509703 -0.18839187 0.44222419
v 0.02578673 -0.18839187 0.44136869
v 0.02578673 -0.18839187 0.44136869
v 0.02662731 -0.18839187 0.44066573
v 0.02662731 -0.18839187 0.44066573
v 0.02758560 -0.18839187 0.44014348
v 0.02758560 -0.18839187 0.44014348
v 0.02862595 -0.18839187 0.43982184
v 0.02862595 -0.18839187 0.43982184
v 0.02970776 -0.18839187 0.43971324
v 0.02970776 -0.18839187 0.43971324
v 0.03078956 -0.18839187 0.43982184
v 0.03078956 -0.18839187 0.43982184
v 0.03182992 -0.18839187 0.44014348
v 0.03182992 -0.18839187 0.44014348
v 0.03278903 -0.18839187 0.44066573
v 0.03278903 -0.18839187 0.44066573
v 0.03362961 -0.18839187 0.44136869
v 0.03362961 -0.18839187 0.44136869
v 0.03431931 -0.18839187 0.44222419
v 0.03431931 -0.18839187 0.44222419
v 0.03483161 -0.18839187 0.44320154
v 0.03483161 -0.18839187 0.44320154
v 0.03514745 -0.18839187 0.44426097
v 0.03514745 -0.18839187 0.44426097
v 0.02416278 -0.21010256 -0.39388536
v 0.02416278 -0.21010256 -0.39388536
v 0.02416278 -0.21010256 -0.39388536
v 0.02416278 -0.21010256 -0.39388536
v 0.02426889 -0.21118436 -0.39388536
v 0.02426889 -0.21118436 -0.39388536
v 0.02426889 -0.21118436 -0.39388536
v 0.02426889 -0.21118436 -0.39388536
v 0.02458473 -0.21222472 -0.39388536
v 0.02458473 -0.21222472 -0.39388536
v 0.02458473 -0.21222472 -0.39388536
v 0.02458473 -0.21222472 -0.39388536
v 0.02458473 -0.21222472 -0.39388536
v 0.02509703 -0.21318384 -0.39388536
v 0.02509703 -0.21318384 -0.39388536
v 0.02509703 -0.21318384 -0.39388536
v 0.02509703 -0.21318384 -0.39388536
v 0.02509703 -0.21318384 -0.39388536
v 0.02578673 -0.21402358 -0.39388536
v 0.02578673 -0.21402358 -0.39388536
v 0.02578673 -0.21402358 -0.39388536
v 0.02578673 -0.21402358 -0.39388536
v 0.02662731 -0.21471328 -0.39388536
v 0.02662731 -0.21471328 -0.39388536
v 0.02662731 -0.21471328 -0.39388536
v 0.02662731 -0.21471328 -0.39388536
v 0.02758560 -0.21522642 -0.39388536
v 0.02758560 -0.21522642 -0.39388536
v 0.02758560 -0.21522642 -0.39388536
v 0.02758560 -0.21522642 -0.39388536
v 0.02862595 -0.21554142 -0.39388536
v 0.02862595 -0.21554142 -0.39388536
v 0.02862595 -0.21554142 -0.39388536
v 0.02862595 -0.21554142 -0.39388536
v 0.02970776 -0.21564836 -0.39388536
v 0.02970776 -0.21564836 -0.39388536
v 0.02970776 -0.21564836 -0.39388536
v 0.02970776 -0.21564836 -0.39388536
v 0.02970776 -0.21564836 -0.39388536
v 0.03078956 -0.21554142 -0.39388536
v 0.03078956 -0.21554142 -0.39388536
v 0.03078956 -0.21554142 -0.39388536
v 0.03078956 -0.21554142 -0.39388536
v 0.03078956 -0.21554142 -0.39388536
v 0.03182992 -0.21522642 -0.39388536
v 0.03182992 -0.21522642 -0.39388536
v 0.03182992 -0.21522642 -0.39388536
v 0.03182992 -0.21522642 -0.39388536
v 0.03182992 -0.21522642 -0.39388536
v 0.03278903 -0.21471328 -0.39388536
v 0.03278903 -0.21471328 -0.39388536
v 0.03278903 -0.21471328 -0.39388536
v 0.03278903 -0.21471328 -0.39388536
v 0.03278903 -0.21471328 -0.39388536
v 0.03362961 -0.21402358 -0.39388536
v 0.03362961 -0.21402358 -0.39388536
v 0.03362961 -0.21402358 -0.39388536
v 0.03362961 -0.21402358 -0.39388536
v 0.03431931 -0.21318384 -0.39388536
v 0.03431931 -0.21318384 -0.39388536
v 0.03431931 -0.21318384 -0.39388536
v 0.03431931 -0.21318384 -0.39388536
v 0.03431931 -0.21318384 -0.39388536
v 0.03483161 -0.21222472 -0.39388536
v 0.03483161 -0.21222472 -0.39388536
v 0.03483161 -0.21222472 -0.39388536
v 0.03483161 -0.21222472 -0.39388536
v 0.03514745 -0.21118436 -0.39388536
v 0.03514745 -0.21118436 -0.39388536
v 0.03514745 -0.21118436 -0.39388536
v 0.03514745 -0.21118436 -0.39388536
v 0.03514745 -0.21118436 -0.39388536
v 0.03525356 -0.21010256 -0.39388536
v 0.03525356 -0.21010256 -0.39388536
v 0.03525356 -0.21010256 -0.39388536
v 0.03525356 -0.21010256 -0.39388536
v 0.03514745 -0.20902076 -0.39388536
v 0.03514745 -0.20902076 -0.39388536
v 0.03514745 -0.20902076 -0.39388536
v 0.03514745 -0.20902076 -0.39388536
v 0.03483161 -0.20798040 -0.39388536
v 0.03483161 -0.20798040 -0.39388536
v 0.03483161 -0.20798040 -0.39388536
v 0.03483161 -0.20798040 -0.39388536
v 0.03431931 -0.20702128 -0.39388536
v 0.03431931 -0.20702128 -0.39388536
v 0.03431931 -0.20702128 -0.39388536
v 0.03431931 -0.20702128 -0.39388536
v 0.03362961 -0.20618154 -0.39388536
v 0.03362961 -0.20618154 -0.39388536
v 0.03362961 -0.20618154 -0.39388536
v 0.03362961 -0.20618154 -0.39388536
v 0.03362961 -0.20618154 -0.39388536
v 0.03278903 -0.20549184 -0.39388536
v 0.03278903 -0.20549184 -0.39388536
v 0.03278903 -0.20549184 -0.39388536
v 0.03278903 -0.20549184 -0.39388536
v 0.03278903 -0.20549184 -0.39388536
v 0.03182992 -0.20497870 -0.39388536
v 0.03182992 -0.20497870 -0.39388536
v 0.03182992 -0.20497870 -0.39388536
v 0.03182992 -0.20497870 -0.39388536
v 0.03182992 -0.20497870 -0.39388536
v 0.03182992 -0.20497870 -0.39388536
v 0.03078956 -0.20466370 -0.39388536
v 0.03078956 -0.20466370 -0.39388536
v 0.03078956 -0.20466370 -0.39388536
v 0.03078956 -0.20466370 -0.39388536
v 0.02970776 -0.20455676 -0.39388536
v 0.02970776 -0.20455676 -0.39388536
v 0.02970776 -0.20455676 -0.39388536
v 0.02970776 -0.20455676 -0.39388536
v 0.02862595 -0.20466370 -0.39388536
v 0.02862595 -0.20466370 -0.39388536
v 0.02862595 -0.20466370 -0.39388536
v 0.02862595 -0.20466370 -0.39388536
v 0.02862595 -0.20466370 -0.39388536
v 0.02862595 -0.20466370 -0.39388536
v 0.02758560 -0.20497870 -0.39388536
v 0.02758560 -0.20497870 -0.39388536
v 0.02758560 -0.20497870 -0.39388536
v 0.02758560 -0.20497870 -0.39388536
v 0.02662731 -0.20549184 -0.39388536
v 0.02662731 -0.20549184 -0.39388536
v 0.02662731 -0.20549184 -0.39388536
v 0.02662731 -0.20549184 -0.39388536
v 0.02662731 -0.20549184 -0.39388536
v 0.02578673 -0.20618154 -0.39388536
v 0.02578673 -0.20618154 -0.39388536
v 0.02578673 -0.20618154 -0.39388536
v 0.02578673 -0.20618154 -0.39388536
v 0.02578673 -0.20618154 -0.39388536
v 0.02509703 -0.20702128 -0.39388536
v 0.02509703 -0.20702128 -0.39388536
v 0.02509703 -0.20702128 -0.39388536
v 0.02509703 -0.20702128 -0.39388536
v 0.02458473 -0.20798040 -0.39388536
v 0.02458473 -0.20798040 -0.39388536
v 0.02458473 -0.20798040 -0.39388536
v 0.02458473 -0.20798040 -0.39388536
v 0.02426889 -0.20902076 -0.39388536
v 0.02426889 -0.20902076 -0.39388536
v 0.02426889 -0.20902076 -0.39388536
v 0.02426889 -0.20902076 -0.39388536
v 0.02416278 -0.21010256 -0.41083611
v 0.02416278 -0.21010256 -0.41083611
v 0.02416278 -0.21010256 -0.41083611
v 0.02416278 -0.21010256 -0.41083611
v 0.02426889 -0.21118436 -0.41193864
v 0.02426889 -0.21118436 -0.41193864
v 0.02426889 -0.21118436 -0.41193864
v 0.02426889 -0.21118436 -0.41193864
v 0.02458473 -0.21222472 -0.41299807
v 0.02458473 -0.21222472 -0.41299807
v 0.02458473 -0.21222472 -0.41299807
v 0.02458473 -0.21222472 -0.41299807
v 0.02509703 -0.21318384 -0.41397459
v 0.02509703 -0.21318384 -0.41397459
v 0.02509703 -0.21318384 -0.41397459
v 0.02509703 -0.21318384 -0.41397459
v 0.02578673 -0.21402358 -0.41483174
v 0.02578673 -0.21402358 -0.41483174
v 0.02578673 -0.21402358 -0.41483174
v 0.02578673 -0.21402358 -0.41483174
v 0.02662731 -0.21471328 -0.41553388
v 0.02662731 -0.21471328 -0.41553388
v 0.02662731 -0.21471328 -0.41553388
v 0.02662731 -0.21471328 -0.41553388
v 0.02758560 -0.21522642 -0.41605613
v 0.02758560 -0.21522642 -0.41605613
v 0.02758560 -0.21522642 -0.41605613
v 0.02758560 -0.21522642 -0.41605613
v 0.02862595 -0.21554142 -0.41637777
v 0.02862595 -0.21554142 -0.41637777
v 0.02862595 -0.21554142 -0.41637777
v 0.02862595 -0.21554142 -0.41637777
v 0.02970776 -0.21564836 -0.41648637
v 0.02970776 -0.21564836 -0.41648637
v 0.02970776 -0.21564836 -0.41648637
v 0.02970776 -0.21564836 -0.41648637
v 0.03078956 -0.21554142 -0.41637777
v 0.03078956 -0.21554142 -0.41637777
v 0.03078956 -0.21554142 -0.41637777
v 0.03078956 -0.21554142 -0.41637777
v 0.03078956 -0.21554142 -0.41637777
v 0.03182992 -0.21522642 -0.41605613
v 0.03182992 -0.21522642 -0.41605613
v 0.03182992 -0.21522642 -0.41605613
v 0.03182992 -0.21522642 -0.41605613
v 0.03278903 -0.21471328 -0.41553388
v 0.03278903 -0.21471328 -0.41553388
v 0.03278903 -0.21471328 -0.41553388
v 0.03278903 -0.21471328 -0.41553388
v 0.03362961 -0.21402358 -0.41483174
v 0.03362961 -0.21402358 -0.41483174
v 0.03362961 -0.21402358 -0.41483174
v 0.03362961 -0.21402358 -0.41483174
v 0.03362961 -0.21402358 -0.41483174
v 0.03431931 -0.21318384 -0.41397542
v 0.03431931 -0.21318384 -0.41397542
v 0.03431931 -0.21318384 -0.41397542
v 0.03431931 -0.21318384 -0.41397542
v 0.03483161 -0.21222472 -0.41299807
v 0.03483161 -0.21222472 -0.41299807
v 0.03483161 -0.21222472 -0.41299807
v 0.03483161 -0.21222472 -0.41299807
v 0.03514745 -0.21118436 -0.41193864
v 0.03514745 -0.21118436 -0.41193864
v 0.03514745 -0.21118436 -0.41193864
v 0.03514745 -0.21118436 -0.41193864
v 0.03525356 -0.21010256 -0.41083611
v 0.03525356 -0.21010256 -0.41083611
v 0.03525356 -0.21010256 -0.41083611
v 0.03525356 -0.21010256 -0.41083611
v 0.03514745 -0.20902076 -0.40973359
v 0.03514745 -0.20902076 -0.40973359
v 0.03514745 -0.20902076 -0.40973359
v 0.03514745 -0.20902076 -0.40973359
v 0.03483161 -0.20798040 -0.40867333
v 0.03483161 -0.20798040 -0.40867333
v 0.03483161 -0.20798040 -0.40867333
v 0.03483161 -0.20798040 -0.40867333
v 0.03431931 -0.20702128 -0.40769681
v 0.03431931 -0.20702128 -0.40769681
v 0.03431931 -0.20702128 -0.40769681
v 0.03431931 -0.20702128 -0.40769681
v 0.03362961 -0.20618154 -0.40684048
v 0.03362961 -0.20618154 -0.40684048
v 0.03362961 -0.20618154 -0.40684048
v 0.03362961 -0.20618154 -0.40684048
v 0.03278903 -0.20549184 -0.40613835
v 0.03278903 -0.20549184 -0.40613835
v 0.03278903 -0.20549184 -0.40613835
v 0.03278903 -0.20549184 -0.40613835
v 0.03278903 -0.20549184 -0.40613835
v 0.03182992 -0.20497870 -0.40561610
v 0.03182992 -0.20497870 -0.40561610
v 0.03182992 -0.20497870 -0.40561610
v 0.03182992 -0.20497870 -0.40561610
v 0.03078956 -0.20466370 -0.40529446
v 0.03078956 -0.20466370 -0.40529446
v 0.03078956 -0.20466370 -0.40529446
v 0.03078956 -0.20466370 -0.40529446
v 0.03078956 -0.20466370 -0.40529446
v 0.02970776 -0.20455676 -0.40518586
v 0.02970776 -0.20455676 -0.40518586
v 0.02970776 -0.20455676 -0.40518586
v 0.02970776 -0.20455676 -0.40518586
v 0.02862595 -0.20466370 -0.40529446
v 0.02862595 -0.20466370 -0.40529446
v 0.02862595 -0.20466370 -0.40529446
v 0.02862595 -0.20466370 -0.40529446
v 0.02758560 -0.20497870 -0.40561610
v 0.02758560 -0.20497870 -0.40561610
v 0.02758560 -0.20497870 -0.40561610
v 0.02758560 -0.20497870 -0.40561610
v 0.02758560 -0.20497870 -0.40561610
v 0.02758560 -0.20497870 -0.40561610
v 0.02662731 -0.20549184 -0.40613835
v 0.02662731 -0.20549184 -0.40613835
v 0.02662731 -0.20549184 -0.40613835
v 0.02662731 -0.20549184 -0.40613835
v 0.02578673 -0.20618154 -0.40684048
v 0.02578673 -0.20618154 -0.40684048
v 0.02578673 -0.20618154 -0.40684048
v 0.02578673 -0.20618154 -0.40684048
v 0.02509703 -0.20702128 -0.40769681
v 0.02509703 -0.20702128 -0.40769681
v 0.02509703 -0.20702128 -0.40769681
v 0.02509703 -0.20702128 -0.40769681
v 0.02458473 -0.20798040 -0.40867333
v 0.02458473 -0.20798040 -0.40867333
v 0.02458473 -0.20798040 -0.40867333
v 0.02458473 -0.20798040 -0.40867333
v 0.02426889 -0.20902076 -0.40973359
v 0.02426889 -0.20902076 -0.40973359
v 0.02426889 -0.20902076 -0.40973359
v 0.02426889 -0.20902076 -0.40973359
v 0.02416278 -0.18839187 -0.41083611
v 0.02416278 -0.18839187 -0.41083611
v 0.02426889 -0.18839187 -0.41193864
v 0.02426889 -0.18839187 -0.41193864
v 0.02458473 -0.18839187 -0.41299807
v 0.02458473 -0.18839187 -0.41299807
v 0.02509703 -0.18839187 -0.41397459
v 0.02509703 -0.18839187 -0.41397459
v 0.02578673 -0.18839187 -0.41483174
v 0.02578673 -0.18839187 -0.41483174
v 0.02662731 -0.18839187 -0.41553388
v 0.02662731 -0.18839187 -0.41553388
v 0.02758560 -0.18839187 -0.41605613
v 0.02758560 -0.18839187 -0.41605613
v 0.02862595 -0.18839187 -0.41637777
v 0.02862595 -0.18839187 -0.41637777
v 0.02970776 -0.18839187 -0.41648637
v 0.02970776 -0.18839187 -0.41648637
v 0.03078956 -0.18839187 -0.41637777
v 0.03078956 -0.18839187 -0.41637777
v 0.03182992 -0.18839187 -0.41605613
v 0.03182992 -0.18839187 -0.41605613
v 0.03278903 -0.18839187 -0.41553388
v 0.03278903 -0.18839187 -0.41553388
v 0.03362961 -0.18839187 -0.41483174
v 0.03362961 -0.18839187 -0.41483174
v 0.03431931 -0.18839187 -0.41397542
v 0.03431931 -0.18839187 -0.41397542
v 0.03431931 -0.18839187 -0.41397542
v 0.03483161 -0.18839187 -0.41299807
v 0.03483161 -0.18839187 -0.41299807
v 0.03514745 -0.18839187 -0.41193864
v 0.03514745 -0.18839187 -0.41193864
v 0.03525356 -0.18839187 -0.41083611
v 0.03525356 -0.18839187 -0.41083611
v 0.03514745 -0.18839187 -0.40973359
v 0.03514745 -0.18839187 -0.40973359
v 0.03483161 -0.18839187 -0.40867333
v 0.03483161 -0.18839187 -0.40867333
v 0.03431931 -0.18839187 -0.40769681
v 0.03431931 -0.18839187 -0.40769681
v 0.03362961 -0.18839187 -0.40684048
v 0.03362961 -0.18839187 -0.40684048
v 0.03278903 -0.18839187 -0.40613835
v 0.03278903 -0.18839187 -0.40613835
v 0.03182992 -0.18839187 -0.40561610
v 0.03182992 -0.18839187 -0.40561610
v 0.03182992 -0.18839187 -0.40561610
v 0.03078956 -0.18839187 -0.40529446
v 0.03078956 -0.18839187 -0.40529446
v 0.02970776 -0.18839187 -0.40518586
v 0.02970776 -0.18839187 -0.40518586
v 0.02862595 -0.18839187 -0.40529446
v 0.02862595 -0.18839187 -0.40529446
v 0.02758560 -0.18839187 -0.40561610
v 0.02758560 -0.18839187 -0.40561610
v 0.02662731 -0.18839187 -0.40613835
v 0.02662731 -0.18839187 -0.40613835
v 0.02662731 -0.18839187 -0.40613835
v 0.02578673 -0.18839187 -0.40684048
v 0.02578673 -0.18839187 -0.40684048
v 0.02509703 -0.18839187 -0.40769681
v 0.02509703 -0.18839187 -0.40769681
v 0.02458473 -0.18839187 -0.40867333
v 0.02458473 -0.18839187 -0.40867333
v 0.02426889 -0.18839187 -0.40973359
v 0.02426889 -0.18839187 -0.40973359
vn -1.00000000 0.00000000 0.00000000
vn 0.00000000 0.00000000 -1.00000000
vn 0.00000000 -1.00000000 0.00000000
vn -1.00000000 0.00000000 0.00000000
vn 0.00000000 -1.00000000 0.00000000
vn 0.00000000 0.00000000 1.00000000
vn -1.00000000 0.00000000 0.00000000
vn 0.00000000 0.00000000 -1.00000000
vn -1.00000000 0.00000000 0.00000000
vn 0.00000000 0.00000000 1.00000000
vn 0.00000000 0.00000000 -1.00000000
vn 0.00000000 -1.00000000 0.00000000
vn 1.00000000 0.00000000 0.00000000
vn 0.00000000 -1.00000000 0.00000000
vn 0.00000000 0.00000000 1.00000000
vn 1.00000000 0.00000000 0.00000000
vn 0.00000000 0.00000000 -1.00000000
vn 1.00000000 0.00000000 0.00000000
vn 0.00000000 0.00000000 1.00000000
vn 1.00000000 0.00000000 0.00000000
vn 0.99518655 0.09799868 0.00000000
vn 0.99518655 -0.09799868 0.00000000
vn 0.99518654 -0.09799867 0.00010000
vn 0.99518655 0.09799868 0.00000000
vn 0.99518655 -0.09799868 0.00000000
vn 0.95693268 -0.29030991 0.00000000
vn 0.95693268 -0.29030991 0.00000000
vn 0.99518654 -0.09799867 0.00010000
vn 0.99518655 -0.09799868 0.00000000
vn 0.88191518 -0.47140811 0.00010000
vn 0.88191518 -0.47140812 0.00000000
vn 0.88191518 -0.47140812 0.00000000
vn 0.95693268 -0.29030991 0.00000000
vn 0.95693268 -0.29030991 0.00000000
vn 0.77300295 -0.63440242 0.00000000
vn 0.77300295 -0.63440242 0.00010000
vn 0.88191518 -0.47140811 0.00010000
vn 0.88191518 -0.47140812 0.00000000
vn 0.63440241 -0.77300294 -0.00020000
vn 0.63440242 -0.77300295 0.00010000
vn 0.63440242 -0.77300295 0.00000000
vn 0.77300295 -0.63440242 0.00000000
vn 0.77300295 -0.63440242 0.00010000
vn 0.47140812 -0.88191518 0.00000000
vn 0.47140811 -0.88191518 0.00010000
vn 0.47140811 -0.88191516 0.00020000
vn 0.63429361 -0.77309222 -0.00020000
vn 0.63440242 -0.77300295 0.00000000
vn 0.29030991 -0.95693268 0.00010000
vn 0.29040146 -0.95690482 -0.00040000
vn 0.29030991 -0.95693268 0.00000000
vn 0.47140812 -0.88191518 0.00000000
vn 0.47140811 -0.88191518 0.00010000
vn 0.09809771 -0.99517679 0.00000000
vn 0.09799868 -0.99518655 0.00000000
vn 0.09799865 -0.99518630 0.00069999
vn 0.29040146 -0.95690482 -0.00040000
vn 0.29030991 -0.95693268 0.00000000
vn -0.09809769 -0.99517661 0.00059999
vn -0.09799868 -0.99518655 0.00000000
vn 0.09799868 -0.99518655 0.00000000
vn 0.09809770 -0.99517666 -0.00049999
vn -0.29030991 -0.95693268 0.00000000
vn -0.29030991 -0.95693268 0.00010000
vn -0.09799867 -0.99518647 -0.00039999
vn -0.09799868 -0.99518655 0.00000000
vn -0.47140811 -0.88191518 0.00010000
vn -0.47140812 -0.88191518 0.00000000
vn -0.29030991 -0.95693268 0.00000000
vn -0.29030991 -0.95693268 0.00010000
vn -0.63440242 -0.77300295 0.00000000
vn -0.63440242 -0.77300295 0.00010000
vn -0.47140811 -0.88191518 0.00010000
vn -0.47140812 -0.88191518 0.00000000
vn -0.77300295 -0.63440242 0.00000000
vn -0.77300295 -0.63440242 0.00010000
vn -0.77300295 -0.63440242 0.00000000
vn -0.63440242 -0.77300295 0.00000000
vn -0.63440242 -0.77300295 0.00010000
vn -0.88191518 -0.47140812 0.00000000
vn -0.88191518 -0.47140812 0.00000000
vn -0.88191518 -0.47140811 0.00010000
vn -0.77300295 -0.63440242 0.00010000
vn -0.77300295 -0.63440242 0.00000000
vn -0.95693268 -0.29030991 0.00000000
vn -0.95693268 -0.29030991 0.00000000
vn -0.88191518 -0.47140812 0.00000000
vn -0.88191518 -0.47140812 0.00000000
vn -0.99518655 -0.09799868 0.00000000
vn -0.99518655 -0.09799868 0.00000000
vn -0.95693268 -0.29030991 0.00000000
vn -0.95693268 -0.29030991 0.00000000
vn -0.99518655 0.09799868 0.00000000
vn -0.99518655 -0.09799868 0.00000000
vn -0.99518655 0.09799868 0.00000000
vn -0.99518655 -0.09799868 0.00000000
vn -0.99518655 0.09799868 0.00000000
vn -0.99518655 0.09799868 0.00000000
vn -0.95693268 0.29030991 0.00000000
vn -0.95693268 0.29030991 0.00000000
vn -0.95693268 0.29030991 0.00000000
vn -0.95693268 0.29030991 0.00000000
vn -0.88191518 0.47140811 -0.00010000
vn -0.88191518 0.47140812 0.00000000
vn -0.88191518 0.47140811 -0.00010000
vn -0.88191518 0.47140812 0.00000000
vn -0.77300295 0.63440242 -0.00010000
vn -0.77300295 0.63440242 0.00000000
vn -0.77300295 0.63440242 0.00000000
vn -0.77300295 0.63440242 0.00000000
vn -0.77300295 0.63440242 0.00000000
vn -0.63440242 0.77300295 0.00000000
vn -0.63429361 0.77309222 0.00020000
vn -0.63440242 0.77300295 0.00000000
vn -0.63429361 0.77309222 0.00020000
vn -0.63440242 0.77300295 0.00000000
vn -0.47140812 0.88191518 0.00000000
vn -0.47140811 0.88191518 -0.00010000
vn -0.47140812 0.88191518 0.00000000
vn -0.47140811 0.88191518 -0.00010000
vn -0.29030991 0.95693268 0.00000000
vn -0.29030991 0.95693268 -0.00010000
vn -0.29019056 0.95696888 -0.00010000
vn -0.29030991 0.95693268 0.00000000
vn -0.29030991 0.95693268 -0.00010000
vn -0.09809771 0.99517678 -0.00010000
vn -0.09799868 0.99518655 0.00000000
vn -0.09799867 0.99518653 0.00020000
vn -0.09799868 0.99518655 0.00000000
vn 0.09799868 0.99518655 0.00000000
vn 0.09799867 0.99518647 -0.00039999
vn 0.09799868 0.99518655 0.00000000
vn 0.09809771 0.99517678 -0.00010000
vn 0.29030991 0.95693268 -0.00010000
vn 0.29019056 0.95696888 -0.00010000
vn 0.29030991 0.95693268 0.00000000
vn 0.29019056 0.95696888 -0.00010000
vn 0.29030991 0.95693268 0.00000000
vn 0.47152746 0.88185136 0.00020001
vn 0.47140811 0.88191518 -0.00010000
vn 0.47140812 0.88191518 0.00000000
vn 0.47140811 0.88191518 -0.00010000
vn 0.47140812 0.88191518 0.00000000
vn 0.63440242 0.77300295 0.00000000
vn 0.63440242 0.77300295 0.00000000
vn 0.63440239 0.77300292 0.00030000
vn 0.63440242 0.77300295 0.00000000
vn 0.63440242 0.77300295 0.00000000
vn 0.77300295 0.63440242 0.00000000
vn 0.77300295 0.63440242 0.00000000
vn 0.77300295 0.63440242 0.00000000
vn 0.77300295 0.63440242 0.00000000
vn 0.88191518 0.47140812 0.00000000
vn 0.88191518 0.47140812 0.00000000
vn 0.88191518 0.47140812 0.00000000
vn 0.88191518 0.47140812 0.00000000
vn 0.95693268 0.29030991 0.00000000
vn 0.95693268 0.29030991 0.00000000
vn 0.95693268 0.29030991 0.00000000
vn 0.95693268 0.29030991 0.00000000
vn 0.99518655 0.09799868 0.00000000
vn 0.99518655 0.09799868 0.00000000
vn 0.99536238 0.00000000 0.09619636
vn 0.99536238 0.00000000 -0.09619636
vn 0.99518655 0.09799868 0.00000000
vn 0.99518655 -0.09799868 0.00000000
vn 0.95843515 0.00000000 0.28531046
vn 0.95840780 0.00000000 0.28540232
vn 0.95693268 -0.29030991 0.00000000
vn 0.99536238 0.00000000 0.09619636
vn 0.99518655 -0.09799868 0.00000000
vn 0.88551620 0.00000000 0.46460850
vn 0.95840780 0.00000000 0.28540232
vn 0.88191518 -0.47140812 0.00000000
vn 0.95693268 -0.29030991 0.00000000
vn 0.77878648 0.00000000 0.62728911
vn 0.88551620 0.00000000 0.46460850
vn 0.77300295 -0.63440242 0.00000000
vn 0.88191518 -0.47140812 0.00000000
vn 0.64151134 0.00000000 0.76711356
vn 0.77878648 0.00000000 0.62728911
vn 0.63440242 -0.77300295 0.00000000
vn 0.77300295 -0.63440242 0.00000000
vn 0.47822141 0.00000000 0.87823931
vn 0.64151134 0.00000000 0.76711356
vn 0.47140812 -0.88191518 0.00000000
vn 0.63440242 -0.77300295 0.00000000
vn 0.29521001 0.00000000 0.95543239
vn 0.47822141 0.00000000 0.87823931
vn 0.29030991 -0.95693268 0.00000000
vn 0.47140812 -0.88191518 0.00000000
vn 0.09989975 0.00000000 0.99499751
vn 0.09809771 -0.99517679 0.00000000
vn 0.29521001 0.00000000 0.95543239
vn 0.29030991 -0.95693268 0.00000000
vn -0.09799868 -0.99518655 0.00000000
vn -0.09989975 0.00000000 0.99499751
vn 0.09989975 0.00000000 0.99499751
vn 0.09799868 -0.99518655 0.00000000
vn 0.09809771 -0.99517679 0.00000000
vn -0.29030991 -0.95693268 0.00000000
vn -0.29521001 0.00000000 0.95543239
vn -0.09799868 -0.99518655 0.00000000
vn -0.09989975 0.00000000 0.99499751
vn -0.47140812 -0.88191518 0.00000000
vn -0.29030991 -0.95693268 0.00000000
vn -0.47822141 0.00000000 0.87823931
vn -0.29521001 0.00000000 0.95543239
vn -0.63440242 -0.77300295 0.00000000
vn -0.47140812 -0.88191518 0.00000000
vn -0.64151134 0.00000000 0.76711356
vn -0.47822141 0.00000000 0.87823931
vn -0.77300295 -0.63440242 0.00000000
vn -0.63440242 -0.77300295 0.00000000
vn -0.77878648 0.00000000 0.62728911
vn -0.64151134 0.00000000 0.76711356
vn -0.88191518 -0.47140812 0.00000000
vn -0.77300295 -0.63440242 0.00000000
vn -0.88551620 0.00000000 0.46460850
vn -0.77878648 0.00000000 0.62728911
vn -0.95693268 -0.29030991 0.00000000
vn -0.88191518 -0.47140812 0.00000000
vn -0.95840780 0.00000000 0.28540232
vn -0.88551620 0.00000000 0.46460850
vn -0.99518655 -0.09799868 0.00000000
vn -0.99536238 0.00000000 0.09619636
vn -0.95693268 -0.29030991 0.00000000
vn -0.95840780 0.00000000 0.28540232
vn -0.99518655 0.09799868 0.00000000
vn -0.99518655 -0.09799868 0.00000000
vn -0.99536238 0.00000000 -0.09619636
vn -0.99536238 0.00000000 0.09619636
vn -0.99518655 0.09799868 0.00000000
vn -0.99536238 0.00000000 -0.09619636
vn -0.95693268 0.29030991 0.00000000
vn -0.95840780 0.00000000 -0.28540232
vn -0.95693268 0.29030991 0.00000000
vn -0.88191518 0.47140812 0.00000000
vn -0.95840780 0.00000000 -0.28540232
vn -0.88557892 0.00000000 -0.46448894
vn -0.88191518 0.47140812 0.00000000
vn -0.77300295 0.63440242 0.00000000
vn -0.88557892 0.00000000 -0.46448894
vn -0.77878648 0.00000000 -0.62728911
vn -0.77300295 0.63440242 0.00000000
vn -0.63440242 0.77300295 0.00000000
vn -0.77878648 0.00000000 -0.62728911
vn -0.64151134 0.00000000 -0.76711356
vn -0.63440242 0.77300295 0.00000000
vn -0.47140812 0.88191518 0.00000000
vn -0.64151134 0.00000000 -0.76711356
vn -0.47829853 0.00000000 -0.87819731
vn -0.47140812 0.88191518 0.00000000
vn -0.29030991 0.95693268 0.00000000
vn -0.47829853 0.00000000 -0.87819731
vn -0.29521001 0.00000000 -0.95543239
vn -0.29030991 0.95693268 0.00000000
vn -0.29521001 0.00000000 -0.95543239
vn -0.09799868 0.99518655 0.00000000
vn -0.09989975 0.00000000 -0.99499751
vn -0.09799868 0.99518655 0.00000000
vn -0.09989975 0.00000000 -0.99499751
vn 0.09989975 0.00000000 -0.99499751
vn 0.09799868 0.99518655 0.00000000
vn 0.09989975 0.00000000 -0.99499751
vn 0.09799868 0.99518655 0.00000000
vn 0.29521001 0.00000000 -0.95543239
vn 0.29030991 0.95693268 0.00000000
vn 0.29521001 0.00000000 -0.95543239
vn 0.47829853 0.00000000 -0.87819731
vn 0.29030991 0.95693268 0.00000000
vn 0.47140812 0.88191518 0.00000000
vn 0.47829853 0.00000000 -0.87819731
vn 0.64151134 0.00000000 -0.76711356
vn 0.47140812 0.88191518 0.00000000
vn 0.63440242 0.77300295 0.00000000
vn 0.64151134 0.00000000 -0.76711356
vn 0.77878648 0.00000000 -0.62728911
vn 0.63440242 0.77300295 0.00000000
vn 0.77300295 0.63440242 0.00000000
vn 0.77878648 0.00000000 -0.62728911
vn 0.88557892 0.00000000 -0.46448894
vn 0.77300295 0.63440242 0.00000000
vn 0.88191518 0.47140812 0.00000000
vn 0.88557892 0.00000000 -0.46448894
vn 0.95840780 0.00000000 -0.28540232
vn 0.88191518 0.47140812 0.00000000
vn 0.95693268 0.29030991 0.00000000
vn 0.95840780 0.00000000 -0.28540232
vn 0.95693268 0.29030991 0.00000000
vn 0.99536238 0.00000000 -0.09619636
vn 0.99518655 0.09799868 0.00000000
vn 0.99536238 0.00000000 0.09619636
vn 0.99536238 0.00000000 -0.09619636
vn 0.95843515 0.00000000 0.28531046
vn 0.99536238 0.00000000 0.09619636
vn 0.88551620 0.00000000 0.46460850
vn 0.95843515 0.00000000 0.28531046
vn 0.95840780 0.00000000 0.28540232
vn 0.77878648 0.00000000 0.62728911
vn 0.88551620 0.00000000 0.46460850
vn 0.64151134 0.00000000 0.76711356
vn 0.77878648 0.00000000 0.62728911
vn 0.47822141 0.00000000 0.87823931
vn 0.64151134 0.00000000 0.76711356
vn 0.29521001 0.00000000 0.95543239
vn 0.47822141 0.00000000 0.87823931
vn 0.09989975 0.00000000 0.99499751
vn 0.29521001 0.00000000 0.95543239
vn -0.09989975 0.00000000 0.99499751
vn 0.09989975 0.00000000 0.99499751
vn -0.29521001 0.00000000 0.95543239
vn -0.09989975 0.00000000 0.99499751
vn -0.47822141 0.00000000 0.87823931
vn -0.29521001 0.00000000 0.95543239
vn -0.64151134 0.00000000 0.76711356
vn -0.47822141 0.00000000 0.87823931
vn -0.77878648 0.00000000 0.62728911
vn -0.64151134 0.00000000 0.76711356
vn -0.88551620 0.00000000 0.46460850
vn -0.77878648 0.00000000 0.62728911
vn -0.95840780 0.00000000 0.28540232
vn -0.88551620 0.00000000 0.46460850
vn -0.99536238 0.00000000 0.09619636
vn -0.95840780 0.00000000 0.28540232
vn -0.99536238 0.00000000 -0.09619636
vn -0.99536238 0.00000000 0.09619636
vn -0.99536238 0.00000000 -0.09619636
vn -0.95840780 0.00000000 -0.28540232
vn -0.95840780 0.00000000 -0.28540232
vn -0.88557892 0.00000000 -0.46448894
vn -0.88557892 0.00000000 -0.46448894
vn -0.77878648 0.00000000 -0.62728911
vn -0.77878648 0.00000000 -0.62728911
vn -0.64151134 0.00000000 -0.76711356
vn -0.64151134 0.00000000 -0.76711356
vn -0.47829853 0.00000000 -0.87819731
vn -0.47829853 0.00000000 -0.87819731
vn -0.29521001 0.00000000 -0.95543239
vn -0.29521001 0.00000000 -0.95543239
vn -0.09989975 0.00000000 -0.99499751
vn -0.09989975 0.00000000 -0.99499751
vn 0.09989975 0.00000000 -0.99499751
vn 0.09989975 0.00000000 -0.99499751
vn 0.29521001 0.00000000 -0.95543239
vn 0.29521001 0.00000000 -0.95543239
vn 0.47829853 0.00000000 -0.87819731
vn 0.47829853 0.00000000 -0.87819731
vn 0.64151134 0.00000000 -0.76711356
vn 0.64151134 0.00000000 -0.76711356
vn 0.77878648 0.00000000 -0.62728911
vn 0.77878648 0.00000000 -0.62728911
vn 0.88557892 0.00000000 -0.46448894
vn 0.88557892 0.00000000 -0.46448894
vn 0.95840780 0.00000000 -0.28540232
vn 0.95840780 0.00000000 -0.28540232
vn 0.99536238 0.00000000 -0.09619636
vn -0.99518655 0.09799868 0.00000000
vn -0.99518655 -0.09799868 0.00000000
vn -0.99518655 0.09799868 0.00000000
vn -0.99518655 -0.09799868 0.00000000
vn -0.99518655 -0.09799868 0.00000000
vn -0.99518655 -0.09799868 0.00000000
vn -0.95693268 -0.29030991 0.00000000
vn -0.95693268 -0.29030991 0.00000000
vn -0.95693268 -0.29030991 0.00000000
vn -0.95693268 -0.29030991 0.00000000
vn -0.88191518 -0.47140812 0.00000000
vn -0.88191518 -0.47140811 0.00010000
vn -0.88191518 -0.47140812 0.00000000
vn -0.88191518 -0.47140812 0.00000000
vn -0.88191518 -0.47140811 0.00010000
vn -0.77300295 -0.63440242 0.00000000
vn -0.77300295 -0.63440242 0.00010000
vn -0.77300295 -0.63440242 0.00000000
vn -0.77300295 -0.63440242 0.00000000
vn -0.77300295 -0.63440242 0.00000000
vn -0.63440242 -0.77300295 0.00000000
vn -0.63440242 -0.77300295 0.00010000
vn -0.63440242 -0.77300295 0.00000000
vn -0.63440242 -0.77300295 0.00010000
vn -0.47140811 -0.88191518 0.00010000
vn -0.47140812 -0.88191518 0.00000000
vn -0.47140811 -0.88191518 0.00010000
vn -0.47140812 -0.88191518 0.00000000
vn -0.29030991 -0.95693268 0.00000000
vn -0.29030991 -0.95693268 0.00010000
vn -0.29030991 -0.95693268 0.00000000
vn -0.29030991 -0.95693268 0.00010000
vn -0.09799867 -0.99518653 -0.00020000
vn -0.09799868 -0.99518655 0.00000000
vn -0.09809769 -0.99517661 0.00059999
vn -0.09799868 -0.99518655 0.00000000
vn 0.09799868 -0.99518655 0.00000000
vn 0.09809771 -0.99517679 0.00000000
vn 0.09809771 -0.99517677 -0.00020000
vn 0.09799868 -0.99518655 0.00000000
vn 0.09799866 -0.99518637 0.00059999
vn 0.29030991 -0.95693268 0.00010000
vn 0.29040146 -0.95690482 -0.00040000
vn 0.29030991 -0.95693268 0.00000000
vn 0.29030991 -0.95693268 0.00010000
vn 0.29030991 -0.95693268 0.00000000
vn 0.47140812 -0.88191518 0.00000000
vn 0.47140811 -0.88191518 0.00010000
vn 0.47140811 -0.88191516 0.00020000
vn 0.47140812 -0.88191518 0.00000000
vn 0.47140811 -0.88191516 0.00020000
vn 0.63440242 -0.77300295 0.00010000
vn 0.63440241 -0.77300294 -0.00020000
vn 0.63440242 -0.77300295 0.00000000
vn 0.63440242 -0.77300295 0.00010000
vn 0.63440242 -0.77300295 0.00000000
vn 0.77300295 -0.63440242 0.00000000
vn 0.77300295 -0.63440242 0.00010000
vn 0.77300295 -0.63440242 0.00000000
vn 0.77300295 -0.63440242 0.00010000
vn 0.88191518 -0.47140811 0.00010000
vn 0.88191518 -0.47140812 0.00000000
vn 0.88191518 -0.47140812 0.00000000
vn 0.88191518 -0.47140812 0.00000000
vn 0.88191518 -0.47140812 0.00000000
vn 0.95693268 -0.29030991 0.00000000
vn 0.95693268 -0.29030991 0.00000000
vn 0.95693268 -0.29030991 0.00000000
vn 0.95693268 -0.29030991 0.00000000
vn 0.99518655 -0.09799868 0.00000000
vn 0.99518655 -0.09799868 0.00000000
vn 0.99518654 -0.09799867 0.00010000
vn 0.99518655 -0.09799868 0.00000000
vn 0.99518655 0.09799868 0.00000000
vn 0.99518655 0.09799868 0.00000000
vn 0.99518655 -0.09799868 0.00000000
vn 0.95693268 0.29030991 0.00000000
vn 0.95693268 0.29030991 0.00000000
vn 0.99518655 0.09799868 0.00000000
vn 0.99518655 0.09799868 0.00000000
vn 0.88191518 0.47140812 0.00000000
vn 0.88191518 0.47140812 0.00000000
vn 0.95693268 0.29030991 0.00000000
vn 0.95693268 0.29030991 0.00000000
vn 0.77300295 0.63440242 0.00000000
vn 0.77300295 0.63440242 0.00000000
vn 0.88191518 0.47140812 0.00000000
vn 0.88191518 0.47140812 0.00000000
vn 0.63440242 0.77300295 0.00000000
vn 0.63440239 0.77300292 0.00030000
vn 0.63440242 0.77300295 0.00000000
vn 0.77300295 0.63440242 0.00000000
vn 0.77300295 0.63440242 0.00000000
vn 0.47148588 0.88187359 0.00019999
vn 0.47140811 0.88191518 -0.00010000
vn 0.47140812 0.88191518 0.00000000
vn 0.63440242 0.77300295 0.00000000
vn 0.63440239 0.77300292 0.00030000
vn 0.29019056 0.95696888 -0.00010000
vn 0.29030991 0.95693268 -0.00010000
vn 0.29030991 0.95693268 0.00000000
vn 0.29028214 0.95694111 0.00000000
vn 0.47148588 0.88187359 0.00019999
vn 0.47140812 0.88191518 0.00000000
vn 0.09799868 0.99518655 0.00000000
vn 0.09809771 0.99517678 -0.00010000
vn 0.29030991 0.95693268 -0.00010000
vn 0.29028214 0.95694111 0.00000000
vn -0.09799867 0.99518653 0.00020000
vn -0.09799868 0.99518655 0.00000000
vn 0.09799868 0.99518655 0.00000000
vn 0.09799867 0.99518647 -0.00039999
vn -0.29019056 0.95696888 0.00000000
vn -0.29030991 0.95693268 0.00000000
vn -0.29030991 0.95693268 -0.00010000
vn -0.29019056 0.95696888 -0.00010000
vn -0.09809771 0.99517678 -0.00010000
vn -0.09799868 0.99518655 0.00000000
vn -0.47140812 0.88191518 0.00000000
vn -0.47140811 0.88191518 -0.00010000
vn -0.29030991 0.95693268 0.00000000
vn -0.29019056 0.95696888 -0.00010000
vn -0.63429361 0.77309222 0.00020000
vn -0.63440242 0.77300295 0.00000000
vn -0.63440242 0.77300295 0.00000000
vn -0.47140812 0.88191518 0.00000000
vn -0.47140811 0.88191518 -0.00010000
vn -0.77300295 0.63440242 0.00000000
vn -0.77300295 0.63440242 -0.00010000
vn -0.77300295 0.63440242 0.00000000
vn -0.63440242 0.77300295 0.00000000
vn -0.63440242 0.77300295 0.00000000
vn -0.88191518 0.47140811 -0.00010000
vn -0.88191518 0.47140812 0.00000000
vn -0.77300295 0.63440242 0.00000000
vn -0.77300295 0.63440242 -0.00010000
vn -0.95693268 0.29030991 0.00000000
vn -0.95693268 0.29030991 0.00000000
vn -0.88191518 0.47140811 -0.00010000
vn -0.88191518 0.47140812 0.00000000
vn -0.99518655 0.09799868 0.00000000
vn -0.99518655 0.09799868 0.00000000
vn -0.95693268 0.29030991 0.00000000
vn -0.95693268 0.29030991 0.00000000
vn -0.99518655 0.09799868 0.00000000
vn -0.99518655 -0.09799868 0.00000000
vn -0.99536238 0.00000000 0.09619636
vn -0.99536238 0.00000000 -0.09619636
vn -0.99518655 -0.09799868 0.00000000
vn -0.99536238 0.00000000 -0.09619636
vn -0.95693268 -0.29030991 0.00000000
vn -0.95840780 0.00000000 -0.28540232
vn -0.95693268 -0.29030991 0.00000000
vn -0.88191518 -0.47140812 0.00000000
vn -0.95840780 0.00000000 -0.28540232
vn -0.88551620 0.00000000 -0.46460850
vn -0.88191518 -0.47140812 0.00000000
vn -0.77300295 -0.63440242 0.00000000
vn -0.88551620 0.00000000 -0.46460850
vn -0.77883533 0.00000000 -0.62722845
vn -0.77300295 -0.63440242 0.00000000
vn -0.63440242 -0.77300295 0.00000000
vn -0.77883533 0.00000000 -0.62722845
vn -0.64140327 0.00000000 -0.76720391
vn -0.63440242 -0.77300295 0.00000000
vn -0.47140812 -0.88191518 0.00000000
vn -0.64140327 0.00000000 -0.76720391
vn -0.47829853 0.00000000 -0.87819731
vn -0.47140812 -0.88191518 0.00000000
vn -0.29030991 -0.95693268 0.00000000
vn -0.47829853 0.00000000 -0.87819731
vn -0.29539257 0.00000000 -0.95537596
vn -0.29030991 -0.95693268 0.00000000
vn -0.29539257 0.00000000 -0.95537596
vn -0.09799868 -0.99518655 0.00000000
vn -0.09989975 0.00000000 -0.99499751
vn -0.09799868 -0.99518655 0.00000000
vn -0.09989975 0.00000000 -0.99499751
vn 0.09989975 0.00000000 -0.99499751
vn 0.09809771 -0.99517679 0.00000000
vn 0.09989975 0.00000000 -0.99499751
vn 0.09809771 -0.99517679 0.00000000
vn 0.09799868 -0.99518655 0.00000000
vn 0.29539257 0.00000000 -0.95537596
vn 0.29030991 -0.95693268 0.00000000
vn 0.29539257 0.00000000 -0.95537596
vn 0.47829853 0.00000000 -0.87819731
vn 0.29030991 -0.95693268 0.00000000
vn 0.47140812 -0.88191518 0.00000000
vn 0.47829853 0.00000000 -0.87819731
vn 0.64140327 0.00000000 -0.76720391
vn 0.47140812 -0.88191518 0.00000000
vn 0.63440242 -0.77300295 0.00000000
vn 0.64140327 0.00000000 -0.76720391
vn 0.77878648 0.00000000 -0.62728911
vn 0.77874712 0.00000000 -0.62733796
vn 0.63440242 -0.77300295 0.00000000
vn 0.77300295 -0.63440242 0.00000000
vn 0.77874712 0.00000000 -0.62733796
vn 0.88557892 0.00000000 -0.46448894
vn 0.77300295 -0.63440242 0.00000000
vn 0.88191518 -0.47140812 0.00000000
vn 0.88557892 0.00000000 -0.46448894
vn 0.95840780 0.00000000 -0.28540232
vn 0.88191518 -0.47140812 0.00000000
vn 0.95693268 -0.29030991 0.00000000
vn 0.95840780 0.00000000 -0.28540232
vn 0.95693268 -0.29030991 0.00000000
vn 0.99536238 0.00000000 -0.09619636
vn 0.99518655 -0.09799868 0.00000000
vn 0.99536238 0.00000000 -0.09619636
vn 0.99536238 0.00000000 0.09619636
vn 0.99518655 -0.09799868 0.00000000
vn 0.99518655 0.09799868 0.00000000
vn 0.95843515 0.00000000 0.28531046
vn 0.95693268 0.29030991 0.00000000
vn 0.99536238 0.00000000 0.09619636
vn 0.99518655 0.09799868 0.00000000
vn 0.88551620 0.00000000 0.46460850
vn 0.95843515 0.00000000 0.28531046
vn 0.88191518 0.47140812 0.00000000
vn 0.95693268 0.29030991 0.00000000
vn 0.77878648 0.00000000 0.62728911
vn 0.88551620 0.00000000 0.46460850
vn 0.77300295 0.63440242 0.00000000
vn 0.88191518 0.47140812 0.00000000
vn 0.64151134 0.00000000 0.76711356
vn 0.77878648 0.00000000 0.62728911
vn 0.63440242 0.77300295 0.00000000
vn 0.77300295 0.63440242 0.00000000
vn 0.47817941 0.00000000 0.87826218
vn 0.47822141 0.00000000 0.87823931
vn 0.64151134 0.00000000 0.76711356
vn 0.47140812 0.88191518 0.00000000
vn 0.63440242 0.77300295 0.00000000
vn 0.29539257 0.00000000 0.95537596
vn 0.47822141 0.00000000 0.87823931
vn 0.29030991 0.95693268 0.00000000
vn 0.47140812 0.88191518 0.00000000
vn 0.09970174 0.00000000 0.99501737
vn 0.09799868 0.99518655 0.00000000
vn 0.29539257 0.00000000 0.95537596
vn 0.29028214 0.95694111 0.00000000
vn 0.29030991 0.95693268 0.00000000
vn -0.09799868 0.99518655 0.00000000
vn -0.09970174 0.00000000 0.99501737
vn 0.09970174 0.00000000 0.99501737
vn 0.09799868 0.99518655 0.00000000
vn -0.29019056 0.95696888 0.00000000
vn -0.29539257 0.00000000 0.95537596
vn -0.09799868 0.99518655 0.00000000
vn -0.09970174 0.00000000 0.99501737
vn -0.47140812 0.88191518 0.00000000
vn -0.29019056 0.95696888 0.00000000
vn -0.29030991 0.95693268 0.00000000
vn -0.47822141 0.00000000 0.87823931
vn -0.47817941 0.00000000 0.87826218
vn -0.29539257 0.00000000 0.95537596
vn -0.63440242 0.77300295 0.00000000
vn -0.47140812 0.88191518 0.00000000
vn -0.64151134 0.00000000 0.76711356
vn -0.47822141 0.00000000 0.87823931
vn -0.77300295 0.63440242 0.00000000
vn -0.63440242 0.77300295 0.00000000
vn -0.77878648 0.00000000 0.62728911
vn -0.64151134 0.00000000 0.76711356
vn -0.88191518 0.47140812 0.00000000
vn -0.77300295 0.63440242 0.00000000
vn -0.88551620 0.00000000 0.46460850
vn -0.77878648 0.00000000 0.62728911
vn -0.95693268 0.29030991 0.00000000
vn -0.88191518 0.47140812 0.00000000
vn -0.95843515 0.00000000 0.28531046
vn -0.88551620 0.00000000 0.46460850
vn -0.99518655 0.09799868 0.00000000
vn -0.99536238 0.00000000 0.09619636
vn -0.95693268 0.29030991 0.00000000
vn -0.95843515 0.00000000 0.28531046
vn -0.99536238 0.00000000 0.09619636
vn -0.99536238 0.00000000 -0.09619636
vn -0.99536238 0.00000000 -0.09619636
vn -0.95840780 0.00000000 -0.28540232
vn -0.95840780 0.00000000 -0.28540232
vn -0.88551620 0.00000000 -0.46460850
vn -0.88551620 0.00000000 -0.46460850
vn -0.77883533 0.00000000 -0.62722845
vn -0.77883533 0.00000000 -0.62722845
vn -0.64140327 0.00000000 -0.76720391
vn -0.64140327 0.00000000 -0.76720391
vn -0.47829853 0.00000000 -0.87819731
vn -0.47829853 0.00000000 -0.87819731
vn -0.29539257 0.00000000 -0.95537596
vn -0.29539257 0.00000000 -0.95537596
vn -0.09989975 0.00000000 -0.99499751
vn -0.09989975 0.00000000 -0.99499751
vn 0.09989975 0.00000000 -0.99499751
vn 0.09989975 0.00000000 -0.99499751
vn 0.29539257 0.00000000 -0.95537596
vn 0.29539257 0.00000000 -0.95537596
vn 0.47829853 0.00000000 -0.87819731
vn 0.47829853 0.00000000 -0.87819731
vn 0.64140327 0.00000000 -0.76720391
vn 0.64140327 0.00000000 -0.76720391
vn 0.77878648 0.00000000 -0.62728911
vn 0.77874712 0.00000000 -0.62733796
vn 0.77878648 0.00000000 -0.62728911
vn 0.88557892 0.00000000 -0.46448894
vn 0.88557892 0.00000000 -0.46448894
vn 0.95840780 0.00000000 -0.28540232
vn 0.95840780 0.00000000 -0.28540232
vn 0.99536238 0.00000000 -0.09619636
vn 0.99536238 0.00000000 -0.09619636
vn 0.99536238 0.00000000 0.09619636
vn 0.95843515 0.00000000 0.28531046
vn 0.99536238 0.00000000 0.09619636
vn 0.88551620 0.00000000 0.46460850
vn 0.95843515 0.00000000 0.28531046
vn 0.77878648 0.00000000 0.62728911
vn 0.88551620 0.00000000 0.46460850
vn 0.64151134 0.00000000 0.76711356
vn 0.77878648 0.00000000 0.62728911
vn 0.47817941 0.00000000 0.87826218
vn 0.64151134 0.00000000 0.76711356
vn 0.29539257 0.00000000 0.95537596
vn 0.47822141 0.00000000 0.87823931
vn 0.47817941 0.00000000 0.87826218
vn 0.09970174 0.00000000 0.99501737
vn 0.29539257 0.00000000 0.95537596
vn -0.09970174 0.00000000 0.99501737
vn 0.09970174 0.00000000 0.99501737
vn -0.29539257 0.00000000 0.95537596
vn -0.09970174 0.00000000 0.99501737
vn -0.47817941 0.00000000 0.87826218
vn -0.29539257 0.00000000 0.95537596
vn -0.64151134 0.00000000 0.76711356
vn -0.47822141 0.00000000 0.87823931
vn -0.47817941 0.00000000 0.87826218
vn -0.77878648 0.00000000 0.62728911
vn -0.64151134 0.00000000 0.76711356
vn -0.88551620 0.00000000 0.46460850
vn -0.77878648 0.00000000 0.62728911
vn -0.95843515 0.00000000 0.28531046
vn -0.88551620 0.00000000 0.46460850
vn -0.99536238 0.00000000 0.09619636
vn -0.95843515 0.00000000 0.28531046
vt 0.37500000 0.00000000
vt 0.12500000 0.75000000
vt 0.37500000 1.00000000
vt 0.62500000 0.00000000
vt 0.62500000 1.00000000
vt 0.87500000 0.75000000
vt 0.37500000 0.25000000
vt 0.12500000 0.50000000
vt 0.62500000 0.25000000
vt 0.87500000 0.50000000
vt 0.37500000 0.75000000
vt 0.37500000 0.75000000
vt 0.37500000 0.75000000
vt 0.62500000 0.75000000
vt 0.62500000 0.75000000
vt 0.62500000 0.75000000
vt 0.37500000 0.50000000
vt 0.37500000 0.50000000
vt 0.62500000 0.50000000
vt 0.62500000 0.50000000
vt 0.05515600 0.97253100
vt 0.05515600 0.97253100
vt 0.05515600 0.97253100
vt 0.05515600 0.97253100
vt 0.05515600 0.97253100
vt 0.05791700 0.97253100
vt 0.05791700 0.97253100
vt 0.05791700 0.97253100
vt 0.05791700 0.97253100
vt 0.06059700 0.97253100
vt 0.06059700 0.97253100
vt 0.06059700 0.97253100
vt 0.06059700 0.97253100
vt 0.06059700 0.97253100
vt 0.06309300 0.97253100
vt 0.06309300 0.97253100
vt 0.06309300 0.97253100
vt 0.06309300 0.97253100
vt 0.06530800 0.97253100
vt 0.06530800 0.97253100
vt 0.06530800 0.97253100
vt 0.06530800 0.97253100
vt 0.06530800 0.97253100
vt 0.13219700 0.97362800
vt 0.13219700 0.97362800
vt 0.13219700 0.97362800
vt 0.06715900 0.97253100
vt 0.06715900 0.97253100
vt 0.13392700 0.97362800
vt 0.13392700 0.97362800
vt 0.13392700 0.97362800
vt 0.13392700 0.97362800
vt 0.13392700 0.97362800
vt 0.13587800 0.97362800
vt 0.13587800 0.97362800
vt 0.13587800 0.97362800
vt 0.13587800 0.97362800
vt 0.13587800 0.97362800
vt 0.13797400 0.97362800
vt 0.13797400 0.97362800
vt 0.13797400 0.97362800
vt 0.13797400 0.97362800
vt 0.14013600 0.97362800
vt 0.14013600 0.97362800
vt 0.14013600 0.97362800
vt 0.14013600 0.97362800
vt 0.14228000 0.97362800
vt 0.14228000 0.97362800
vt 0.14228000 0.97362800
vt 0.14228000 0.97362800
vt 0.14432300 0.97362800
vt 0.14432300 0.97362800
vt 0.14432300 0.97362800
vt 0.14432300 0.97362800
vt 0.06715900 0.97172100
vt 0.06715900 0.97172100
vt 0.06715900 0.97172100
vt 0.14618800 0.97362800
vt 0.14618800 0.97362800
vt 0.06921300 0.97172100
vt 0.06921300 0.97172100
vt 0.06921300 0.97172100
vt 0.06921300 0.97172100
vt 0.06921300 0.97172100
vt 0.07158900 0.97172100
vt 0.07158900 0.97172100
vt 0.07158900 0.97172100
vt 0.07158900 0.97172100
vt 0.07419500 0.97172100
vt 0.07419500 0.97172100
vt 0.07419500 0.97172100
vt 0.07419500 0.97172100
vt 0.07693200 0.97172100
vt 0.07693200 0.97172100
vt 0.07693200 0.97172100
vt 0.07693200 0.97172100
vt 0.07969300 0.97172100
vt 0.07969300 0.97172100
vt 0.07969300 0.97172100
vt 0.07969300 0.97172100
vt 0.08237200 0.97172100
vt 0.08237200 0.97172100
vt 0.08237200 0.97172100
vt 0.08237200 0.97172100
vt 0.08486800 0.97172100
vt 0.08486800 0.97172100
vt 0.08486800 0.97172100
vt 0.08486800 0.97172100
vt 0.08486800 0.97172100
vt 0.08708300 0.97172100
vt 0.08708300 0.97172100
vt 0.08708300 0.97172100
vt 0.08708300 0.97172100
vt 0.08708300 0.97172100
vt 0.08893400 0.97172100
vt 0.08893400 0.97172100
vt 0.14618800 0.96251000
vt 0.14618800 0.96251000
vt 0.14791800 0.96251000
vt 0.14791800 0.96251000
vt 0.14791800 0.96251000
vt 0.14791800 0.96251000
vt 0.14791800 0.96251000
vt 0.14986900 0.96251000
vt 0.14986900 0.96251000
vt 0.14986900 0.96251000
vt 0.14986900 0.96251000
vt 0.15196500 0.96251000
vt 0.15196500 0.96251000
vt 0.15196500 0.96251000
vt 0.15196500 0.96251000
vt 0.15412700 0.96251000
vt 0.15412700 0.96251000
vt 0.15412700 0.96251000
vt 0.15412700 0.96251000
vt 0.15412700 0.96251000
vt 0.15627100 0.96251000
vt 0.15627100 0.96251000
vt 0.15627100 0.96251000
vt 0.15627100 0.96251000
vt 0.15627100 0.96251000
vt 0.15831400 0.96251000
vt 0.15831400 0.96251000
vt 0.15831400 0.96251000
vt 0.15831400 0.96251000
vt 0.15831400 0.96251000
vt 0.16017900 0.96251000
vt 0.16017900 0.96251000
vt 0.04538400 0.97253100
vt 0.04538400 0.97253100
vt 0.04743800 0.97253100
vt 0.04743800 0.97253100
vt 0.04743800 0.97253100
vt 0.04743800 0.97253100
vt 0.04981400 0.97253100
vt 0.04981400 0.97253100
vt 0.04981400 0.97253100
vt 0.04981400 0.97253100
vt 0.05242000 0.97253100
vt 0.05242000 0.97253100
vt 0.05242000 0.97253100
vt 0.05242000 0.97253100
vt 0.05515600 0.00541600
vt 0.05515600 0.00541600
vt 0.05515600 0.00541600
vt 0.05515600 0.00541600
vt 0.05791700 0.00414500
vt 0.05791700 0.00414500
vt 0.05791700 0.00414500
vt 0.05791700 0.00414500
vt 0.05791700 0.00414500
vt 0.06059700 0.00292300
vt 0.06059700 0.00292300
vt 0.06059700 0.00292300
vt 0.06059700 0.00292300
vt 0.17841600 0.00627200
vt 0.06309300 0.00179700
vt 0.06309300 0.00179700
vt 0.06309300 0.00179700
vt 0.17712000 0.00413400
vt 0.17712000 0.00413400
vt 0.06530800 0.00081000
vt 0.06530800 0.00081000
vt 0.17551400 0.00237900
vt 0.17551400 0.00237900
vt 0.13219700 0.00109800
vt 0.06715900 0.00000000
vt 0.17366000 0.00107400
vt 0.17366000 0.00107400
vt 0.13392700 0.00049600
vt 0.13392700 0.00049600
vt 0.17162800 0.00027100
vt 0.13587800 0.00012500
vt 0.17162800 0.00027100
vt 0.13587800 0.00012500
vt 0.13797400 0.00000000
vt 0.16949700 0.00000000
vt 0.16949700 0.00000000
vt 0.13797400 0.00000000
vt 0.13797400 0.00000000
vt 0.14013600 0.00012500
vt 0.16734900 0.00027100
vt 0.14013600 0.00012500
vt 0.16734900 0.00027100
vt 0.14228000 0.00049600
vt 0.14228000 0.00049600
vt 0.16526600 0.00107400
vt 0.16526600 0.00107400
vt 0.14432300 0.00109800
vt 0.14432300 0.00109800
vt 0.16332800 0.00237900
vt 0.16332800 0.00237900
vt 0.06715900 0.00000000
vt 0.14618800 0.00190700
vt 0.16161100 0.00413400
vt 0.16161100 0.00413400
vt 0.06921300 0.00098700
vt 0.06921300 0.00098700
vt 0.06921300 0.00098700
vt 0.16017900 0.00627200
vt 0.07158900 0.00211300
vt 0.07158900 0.00211300
vt 0.07158900 0.00211300
vt 0.07158900 0.00211300
vt 0.07419500 0.00333500
vt 0.07419500 0.00333500
vt 0.07419500 0.00333500
vt 0.07419500 0.00333500
vt 0.07693200 0.00460500
vt 0.07693200 0.00460500
vt 0.07693200 0.00460500
vt 0.07693200 0.00460500
vt 0.07969300 0.00587600
vt 0.07969300 0.00587600
vt 0.07969300 0.00587600
vt 0.07969300 0.00587600
vt 0.08237200 0.00709800
vt 0.08237200 0.00709800
vt 0.08237200 0.00709800
vt 0.08237200 0.00709800
vt 0.08486800 0.00822400
vt 0.08486800 0.00822400
vt 0.08486800 0.00822400
vt 0.17841600 0.13873100
vt 0.08708300 0.00921100
vt 0.08708300 0.00921100
vt 0.17712000 0.14087000
vt 0.17712000 0.14087000
vt 0.08893400 0.01002100
vt 0.14618800 0.00081000
vt 0.17551400 0.14262500
vt 0.17551400 0.14262500
vt 0.14791800 0.00141200
vt 0.14791800 0.00141200
vt 0.17366000 0.14393000
vt 0.17366000 0.14393000
vt 0.14986900 0.00178200
vt 0.17162800 0.14473300
vt 0.14986900 0.00178200
vt 0.17162800 0.14473300
vt 0.15196500 0.00190700
vt 0.16949700 0.14500400
vt 0.16949700 0.14500400
vt 0.15196500 0.00190700
vt 0.16734900 0.14473300
vt 0.15412700 0.00178200
vt 0.16734900 0.14473300
vt 0.15412700 0.00178200
vt 0.16526600 0.14393000
vt 0.16526600 0.14393000
vt 0.15627100 0.00141200
vt 0.15627100 0.00141200
vt 0.16332800 0.14262500
vt 0.16332800 0.14262500
vt 0.15831400 0.00081000
vt 0.15831400 0.00081000
vt 0.16161100 0.14087000
vt 0.16161100 0.14087000
vt 0.16017900 0.00000000
vt 0.04538400 0.01002100
vt 0.16017900 0.13873100
vt 0.04743800 0.00903400
vt 0.04743800 0.00903400
vt 0.04743800 0.00903400
vt 0.04981400 0.00790800
vt 0.04981400 0.00790800
vt 0.04981400 0.00790800
vt 0.04981400 0.00790800
vt 0.05242000 0.00668600
vt 0.05242000 0.00668600
vt 0.05242000 0.00668600
vt 0.05242000 0.00668600
vt 0.00000000 0.00541600
vt 0.00000000 0.00541600
vt 0.00001200 0.00414500
vt 0.00001200 0.00414500
vt 0.00004900 0.00292300
vt 0.00004900 0.00292300
vt 0.00004900 0.00292300
vt 0.17841600 0.06936600
vt 0.00010900 0.00179700
vt 0.17712000 0.06936600
vt 0.17712000 0.06936600
vt 0.17551400 0.06936600
vt 0.17551400 0.06936600
vt 0.17366000 0.06936600
vt 0.17366000 0.06936600
vt 0.17162800 0.06936600
vt 0.17162800 0.06936600
vt 0.16949700 0.06936600
vt 0.16949700 0.06936600
vt 0.16734900 0.06936600
vt 0.16734900 0.06936600
vt 0.16526600 0.06936600
vt 0.16526600 0.06936600
vt 0.16332800 0.06936600
vt 0.16332800 0.06936600
vt 0.16161100 0.06936600
vt 0.16161100 0.06936600
vt 0.13219700 0.00098700
vt 0.16017900 0.06936600
vt 0.13213700 0.00211300
vt 0.13213700 0.00211300
vt 0.13210000 0.00333500
vt 0.13210000 0.00333500
vt 0.13208800 0.00460500
vt 0.13208800 0.00460500
vt 0.13210000 0.00587600
vt 0.13210000 0.00587600
vt 0.13213700 0.00709800
vt 0.13213700 0.00709800
vt 0.13219700 0.00822400
vt 0.17841600 0.18614300
vt 0.17712000 0.18614300
vt 0.17712000 0.18614300
vt 0.17551400 0.18614300
vt 0.17551400 0.18614300
vt 0.17366000 0.18614300
vt 0.17366000 0.18614300
vt 0.17162800 0.18614300
vt 0.17162800 0.18614300
vt 0.16949700 0.18614300
vt 0.16949700 0.18614300
vt 0.16734900 0.18614300
vt 0.16734900 0.18614300
vt 0.16526600 0.18614300
vt 0.16526600 0.18614300
vt 0.16332800 0.18614300
vt 0.16332800 0.18614300
vt 0.16161100 0.18614300
vt 0.16161100 0.18614300
vt 0.16017900 0.18614300
vt 0.00010900 0.00903400
vt 0.00004900 0.00790800
vt 0.00004900 0.00790800
vt 0.00001200 0.00668600
vt 0.00001200 0.00668600
vt 0.07693100 0.97203900
vt 0.07693100 0.97203900
vt 0.07693100 0.97203900
vt 0.07693100 0.97203900
vt 0.07419500 0.97203900
vt 0.07419500 0.97203900
vt 0.07419500 0.97203900
vt 0.07419500 0.97203900
vt 0.07158900 0.97203900
vt 0.07158900 0.97203900
vt 0.07158900 0.97203900
vt 0.07158900 0.97203900
vt 0.07158900 0.97203900
vt 0.06921300 0.97203900
vt 0.06921300 0.97203900
vt 0.06921300 0.97203900
vt 0.06921300 0.97203900
vt 0.06921300 0.97203900
vt 0.06715900 0.97204000
vt 0.06715900 0.97204000
vt 0.14618800 0.97394700
vt 0.14618800 0.97394700
vt 0.14432300 0.97394700
vt 0.14432300 0.97394700
vt 0.14432300 0.97394700
vt 0.14432300 0.97394700
vt 0.14228000 0.97394700
vt 0.14228000 0.97394700
vt 0.14228000 0.97394700
vt 0.14228000 0.97394700
vt 0.14013600 0.97394700
vt 0.14013600 0.97394700
vt 0.14013600 0.97394700
vt 0.14013600 0.97394700
vt 0.13797400 0.97394700
vt 0.13797400 0.97394700
vt 0.13797400 0.97394700
vt 0.13797400 0.97394700
vt 0.13797400 0.97394700
vt 0.13587800 0.97394700
vt 0.13587800 0.97394700
vt 0.13587800 0.97394700
vt 0.13587800 0.97394700
vt 0.13587800 0.97394700
vt 0.13392700 0.97394700
vt 0.13392700 0.97394700
vt 0.13392700 0.97394700
vt 0.13392700 0.97394700
vt 0.13392700 0.97394700
vt 0.13219700 0.97394700
vt 0.13219700 0.97394700
vt 0.06715900 0.97284900
vt 0.06715900 0.97284900
vt 0.06715900 0.97284900
vt 0.06530800 0.97284900
vt 0.06530800 0.97284900
vt 0.06530800 0.97284900
vt 0.06530800 0.97284900
vt 0.06309300 0.97284900
vt 0.06309300 0.97284900
vt 0.06309300 0.97284900
vt 0.06309300 0.97284900
vt 0.06309300 0.97284900
vt 0.06059700 0.97284900
vt 0.06059700 0.97284900
vt 0.06059700 0.97284900
vt 0.06059700 0.97284900
vt 0.05791700 0.97284900
vt 0.05791700 0.97284900
vt 0.05791700 0.97284900
vt 0.05791700 0.97284900
vt 0.05791700 0.97284900
vt 0.05515600 0.97284900
vt 0.05515600 0.97284900
vt 0.05515600 0.97284900
vt 0.05515600 0.97284900
vt 0.05242000 0.97284900
vt 0.05242000 0.97284900
vt 0.05242000 0.97284900
vt 0.05242000 0.97284900
vt 0.04981400 0.97284900
vt 0.04981400 0.97284900
vt 0.04981400 0.97284900
vt 0.04981400 0.97284900
vt 0.04743800 0.97284900
vt 0.04743800 0.97284900
vt 0.04743800 0.97284900
vt 0.04743800 0.97284900
vt 0.16017900 0.96282900
vt 0.16017900 0.96282900
vt 0.16017900 0.96282900
vt 0.04538400 0.97284900
vt 0.04538400 0.97284900
vt 0.15831400 0.96282800
vt 0.15831400 0.96282800
vt 0.15831400 0.96282800
vt 0.15831400 0.96282800
vt 0.15831400 0.96282800
vt 0.15627100 0.96282800
vt 0.15627100 0.96282800
vt 0.15627100 0.96282800
vt 0.15627100 0.96282800
vt 0.15627100 0.96282800
vt 0.15627100 0.96282800
vt 0.15412700 0.96282800
vt 0.15412700 0.96282800
vt 0.15412700 0.96282800
vt 0.15412700 0.96282800
vt 0.15196500 0.96282800
vt 0.15196500 0.96282800
vt 0.15196500 0.96282800
vt 0.15196500 0.96282800
vt 0.14986900 0.96282800
vt 0.14986900 0.96282800
vt 0.14986900 0.96282800
vt 0.14986900 0.96282800
vt 0.14986900 0.96282800
vt 0.14986900 0.96282800
vt 0.14791800 0.96282800
vt 0.14791800 0.96282800
vt 0.14791800 0.96282800
vt 0.14791800 0.96282800
vt 0.08893400 0.97204000
vt 0.08893400 0.97204000
vt 0.08893400 0.97204000
vt 0.14618800 0.96282900
vt 0.14618800 0.96282900
vt 0.08708300 0.97203900
vt 0.08708300 0.97203900
vt 0.08708300 0.97203900
vt 0.08708300 0.97203900
vt 0.08708300 0.97203900
vt 0.08486800 0.97203900
vt 0.08486800 0.97203900
vt 0.08486800 0.97203900
vt 0.08486800 0.97203900
vt 0.08237200 0.97203900
vt 0.08237200 0.97203900
vt 0.08237200 0.97203900
vt 0.08237200 0.97203900
vt 0.07969200 0.97203900
vt 0.07969200 0.97203900
vt 0.07969200 0.97203900
vt 0.07969200 0.97203900
vt 0.07693100 0.99157900
vt 0.07693100 0.99157900
vt 0.07693100 0.99157900
vt 0.07693100 0.99157900
vt 0.07419500 0.99285000
vt 0.07419500 0.99285000
vt 0.07419500 0.99285000
vt 0.07419500 0.99285000
vt 0.07158900 0.99407100
vt 0.07158900 0.99407100
vt 0.07158900 0.99407100
vt 0.07158900 0.99407100
vt 0.06921300 0.99519700
vt 0.06921300 0.99519700
vt 0.06921300 0.99519700
vt 0.17841600 0.07563800
vt 0.06715900 0.99618500
vt 0.14618800 0.99809200
vt 0.17712000 0.07349900
vt 0.17712000 0.07349900
vt 0.14432300 0.99890200
vt 0.14432300 0.99890200
vt 0.17551400 0.07174400
vt 0.17551400 0.07174400
vt 0.14228000 0.99950400
vt 0.14228000 0.99950400
vt 0.17366000 0.07044000
vt 0.17366000 0.07044000
vt 0.14013600 0.99987500
vt 0.17162800 0.06963700
vt 0.14013600 0.99987500
vt 0.17162800 0.06963700
vt 0.13797400 1.00000000
vt 0.16949700 0.06936600
vt 0.16949700 0.06936600
vt 0.13797400 1.00000000
vt 0.16734900 0.06963700
vt 0.13587800 0.99987500
vt 0.13587800 0.99987500
vt 0.16734900 0.06963700
vt 0.13587800 0.99987500
vt 0.16526600 0.07044000
vt 0.16526600 0.07044000
vt 0.13392700 0.99950400
vt 0.13392700 0.99950400
vt 0.16332800 0.07174400
vt 0.16332800 0.07174400
vt 0.13219700 0.99890200
vt 0.06715900 0.99780500
vt 0.16161100 0.07349900
vt 0.16161100 0.07349900
vt 0.16161100 0.07349900
vt 0.06530800 0.99699500
vt 0.06530800 0.99699500
vt 0.16017900 0.07563800
vt 0.06309300 0.99600800
vt 0.06309300 0.99600800
vt 0.06309300 0.99600800
vt 0.06059700 0.99488100
vt 0.06059700 0.99488100
vt 0.06059700 0.99488100
vt 0.06059700 0.99488100
vt 0.05791700 0.99366000
vt 0.05791700 0.99366000
vt 0.05791700 0.99366000
vt 0.05791700 0.99366000
vt 0.05515600 0.99238900
vt 0.05515600 0.99238900
vt 0.05515600 0.99238900
vt 0.05515600 0.99238900
vt 0.05242000 0.99111800
vt 0.05242000 0.99111800
vt 0.05242000 0.99111800
vt 0.05242000 0.99111800
vt 0.04981400 0.98989600
vt 0.04981400 0.98989600
vt 0.04981400 0.98989600
vt 0.04981400 0.98989600
vt 0.17841600 0.04741100
vt 0.04743800 0.98877000
vt 0.04743800 0.98877000
vt 0.04743800 0.98877000
vt 0.17971200 0.04527300
vt 0.17971200 0.04527300
vt 0.16017900 0.97776300
vt 0.04538400 0.98778300
vt 0.18131800 0.04351700
vt 0.18131800 0.04351700
vt 0.18131800 0.04351700
vt 0.15831400 0.97695200
vt 0.15831400 0.97695200
vt 0.18317300 0.04221300
vt 0.18317300 0.04221300
vt 0.15627100 0.97635000
vt 0.15627100 0.97635000
vt 0.18520500 0.04141000
vt 0.15412700 0.97598000
vt 0.18520500 0.04141000
vt 0.15412700 0.97598000
vt 0.15412700 0.97598000
vt 0.15196500 0.97585500
vt 0.18733600 0.04113900
vt 0.18733600 0.04113900
vt 0.15196500 0.97585500
vt 0.14986900 0.97598000
vt 0.18948400 0.04141000
vt 0.14986900 0.97598000
vt 0.18948400 0.04141000
vt 0.14791800 0.97635100
vt 0.14791800 0.97635100
vt 0.14791800 0.97635100
vt 0.19156700 0.04221300
vt 0.19156700 0.04221300
vt 0.19156700 0.04221300
vt 0.08893400 0.98616300
vt 0.14618800 0.97695200
vt 0.19350400 0.04351700
vt 0.19350400 0.04351700
vt 0.08708300 0.98697400
vt 0.08708300 0.98697400
vt 0.19522200 0.04527300
vt 0.19522200 0.04527300
vt 0.08486800 0.98796100
vt 0.08486800 0.98796100
vt 0.08486800 0.98796100
vt 0.19665400 0.04741100
vt 0.08237200 0.98908700
vt 0.08237200 0.98908700
vt 0.08237200 0.98908700
vt 0.08237200 0.98908700
vt 0.07969200 0.99030900
vt 0.07969200 0.99030900
vt 0.07969200 0.99030900
vt 0.07969200 0.99030900
vt 0.13208800 0.99157900
vt 0.13208800 0.99157900
vt 0.13210000 0.99285000
vt 0.13210000 0.99285000
vt 0.13213700 0.99407100
vt 0.13213700 0.99407100
vt 0.13219700 0.99519700
vt 0.17841600 0.13873100
vt 0.17712000 0.13873100
vt 0.17712000 0.13873100
vt 0.17551400 0.13873100
vt 0.17551400 0.13873100
vt 0.17366000 0.13873100
vt 0.17366000 0.13873100
vt 0.17162800 0.13873100
vt 0.17162800 0.13873100
vt 0.16949700 0.13873100
vt 0.16949700 0.13873100
vt 0.16734900 0.13873100
vt 0.16734900 0.13873100
vt 0.16526600 0.13873100
vt 0.16526600 0.13873100
vt 0.16332800 0.13873100
vt 0.16332800 0.13873100
vt 0.16161100 0.13873100
vt 0.16161100 0.13873100
vt 0.16017900 0.13873100
vt 0.16017900 0.13873100
vt 0.00010900 0.99600800
vt 0.00004900 0.99488100
vt 0.00004900 0.99488100
vt 0.00001200 0.99366000
vt 0.00001200 0.99366000
vt 0.00000000 0.99238900
vt 0.00000000 0.99238900
vt 0.00001200 0.99111800
vt 0.00001200 0.99111800
vt 0.00004900 0.98989600
vt 0.00004900 0.98989600
vt 0.17841600 0.00000000
vt 0.00010900 0.98877000
vt 0.17971200 0.00000000
vt 0.17971200 0.00000000
vt 0.18131800 0.00000000
vt 0.18131800 0.00000000
vt 0.18317300 0.00000000
vt 0.18317300 0.00000000
vt 0.18317300 0.00000000
vt 0.18520500 0.00000000
vt 0.18520500 0.00000000
vt 0.18733600 0.00000000
vt 0.18733600 0.00000000
vt 0.18948400 0.00000000
vt 0.18948400 0.00000000
vt 0.19156700 0.00000000
vt 0.19156700 0.00000000
vt 0.19350400 0.00000000
vt 0.19350400 0.00000000
vt 0.19350400 0.00000000
vt 0.19522200 0.00000000
vt 0.19522200 0.00000000
vt 0.13219700 0.98796100
vt 0.19665400 0.00000000
vt 0.13213700 0.98908700
vt 0.13213700 0.98908700
vt 0.13210000 0.99030800
vt 0.13210000 0.99030800
f 1/1/1 4/4/4 9/9/9
f 1/1/1 9/9/9 7/7/7
f 18/18/18 20/20/20 16/16/16
f 18/18/18 16/16/16 13/13/13
f 12/12/12 14/14/14 5/5/5
f 12/12/12 5/5/5 3/3/3
f 8/8/8 17/17/17 11/11/11
f 8/8/8 11/11/11 2/2/2
f 19/19/19 10/10/10 6/6/6
f 19/19/19 6/6/6 15/15/15
f 165/165/165 24/24/24 162/162/162
f 165/165/165 162/162/162 292/292/292
f 25/25/25 166/166/166 171/171/171
f 25/25/25 171/171/171 29/29/29
f 27/27/27 169/169/169 175/175/175
f 27/27/27 175/175/175 34/34/34
f 32/32/32 174/174/174 179/179/179
f 35/35/35 178/178/178 183/183/183
f 35/35/35 183/183/183 42/42/42
f 41/41/41 182/182/182 187/187/187
f 41/41/41 187/187/187 48/48/48
f 44/44/44 186/186/186 191/191/191
f 44/44/44 191/191/191 52/52/52
f 51/51/51 190/190/190 195/195/195
f 51/51/51 195/195/195 58/58/58
f 54/54/54 193/193/193 200/200/200
f 55/55/55 199/199/199 61/61/61
f 60/60/60 196/196/196 203/203/203
f 60/60/60 203/203/203 66/66/66
f 63/63/63 201/201/201 206/206/206
f 63/63/63 206/206/206 69/69/69
f 68/68/68 205/205/205 210/210/210
f 68/68/68 210/210/210 74/74/74
f 71/71/71 209/209/209 214/214/214
f 71/71/71 214/214/214 78/78/78
f 77/77/77 213/213/213 218/218/218
f 77/77/77 218/218/218 84/84/84
f 80/80/80 217/217/217 222/222/222
f 80/80/80 222/222/222 87/87/87
f 85/85/85 221/221/221 227/227/227
f 85/85/85 227/227/227 91/91/91
f 90/90/90 225/225/225 230/230/230
f 90/90/90 230/230/230 96/96/96
f 95/95/95 229/229/229 233/233/233
f 95/95/95 233/233/233 98/98/98
f 100/100/100 235/235/235 237/237/237
f 100/100/100 237/237/237 102/102/102
f 104/104/104 238/238/238 241/241/241
f 104/104/104 241/241/241 106/106/106
f 109/109/109 242/242/242 245/245/245
f 109/109/109 245/245/245 111/111/111
f 117/117/117 250/250/250 253/253/253
f 117/117/117 253/253/253 119/119/119
f 121/121/121 254/254/254 257/257/257
f 121/121/121 257/257/257 124/124/124
f 127/127/127 259/259/259 261/261/261
f 127/127/127 261/261/261 129/129/129
f 130/130/130 264/264/264 266/266/266
f 130/130/130 266/266/266 132/132/132
f 136/136/136 268/268/268 271/271/271
f 136/136/136 271/271/271 138/138/138
f 141/141/141 272/272/272 275/275/275
f 141/141/141 275/275/275 143/143/143
f 144/144/144 276/276/276 279/279/279
f 144/144/144 279/279/279 147/147/147
f 149/149/149 280/280/280 283/283/283
f 149/149/149 283/283/283 151/151/151
f 153/153/153 284/284/284 287/287/287
f 153/153/153 287/287/287 155/155/155
f 157/157/157 288/288/288 290/290/290
f 157/157/157 290/290/290 159/159/159
f 294/294/294 164/164/164 291/291/291
f 294/294/294 291/291/291 357/357/357
f 163/163/163 293/293/293 296/296/296
f 163/163/163 296/296/296 170/170/170
f 167/167/167 295/295/295 298/298/298
f 168/168/168 299/299/299 173/173/173
f 172/172/172 297/297/297 301/301/301
f 172/172/172 301/301/301 177/177/177
f 176/176/176 300/300/300 303/303/303
f 176/176/176 303/303/303 181/181/181
f 180/180/180 302/302/302 305/305/305
f 180/180/180 305/305/305 185/185/185
f 184/184/184 304/304/304 307/307/307
f 184/184/184 307/307/307 189/189/189
f 188/188/188 306/306/306 309/309/309
f 188/188/188 309/309/309 194/194/194
f 192/192/192 308/308/308 311/311/311
f 192/192/192 311/311/311 198/198/198
f 197/197/197 310/310/310 313/313/313
f 197/197/197 313/313/313 204/204/204
f 202/202/202 312/312/312 315/315/315
f 202/202/202 315/315/315 208/208/208
f 207/207/207 314/314/314 317/317/317
f 207/207/207 317/317/317 212/212/212
f 211/211/211 316/316/316 319/319/319
f 211/211/211 319/319/319 216/216/216
f 215/215/215 318/318/318 321/321/321
f 215/215/215 321/321/321 220/220/220
f 219/219/219 320/320/320 323/323/323
f 219/219/219 323/323/323 224/224/224
f 223/223/223 322/322/322 325/325/325
f 223/223/223 325/325/325 228/228/228
f 226/226/226 324/324/324 327/327/327
f 226/226/226 327/327/327 232/232/232
f 231/231/231 326/326/326 328/328/328
f 231/231/231 328/328/328 234/234/234
f 236/236/236 330/330/330 239/239/239
f 240/240/240 331/331/331 332/332/332
f 240/240/240 332/332/332 243/243/243
f 244/244/244 333/333/333 334/334/334
f 244/244/244 334/334/334 247/247/247
f 248/248/248 335/335/335 336/336/336
f 248/248/248 336/336/336 251/251/251
f 252/252/252 337/337/337 338/338/338
f 252/252/252 338/338/338 255/255/255
f 256/256/256 339/339/339 340/340/340
f 256/256/256 340/340/340 258/258/258
f 260/260/260 341/341/341 342/342/342
f 260/260/260 342/342/342 262/262/262
f 263/263/263 343/343/343 344/344/344
f 263/263/263 344/344/344 265/265/265
f 267/267/267 345/345/345 346/346/346
f 267/267/267 346/346/346 269/269/269
f 270/270/270 347/347/347 348/348/348
f 270/270/270 348/348/348 273/273/273
f 274/274/274 349/349/349 350/350/350
f 274/274/274 350/350/350 277/277/277
f 278/278/278 351/351/351 352/352/352
f 278/278/278 352/352/352 281/281/281
f 282/282/282 353/353/353 354/354/354
f 282/282/282 354/354/354 285/285/285
f 286/286/286 355/355/355 356/356/356
f 286/286/286 356/356/356 289/289/289
f 502/502/502 358/358/358 498/498/498
f 502/502/502 498/498/498 632/632/632
f 359/359/359 503/503/503 506/506/506
f 359/359/359 506/506/506 362/362/362
f 365/365/365 508/508/508 510/510/510
f 365/365/365 510/510/510 367/367/367
f 368/368/368 511/511/511 514/514/514
f 368/368/368 514/514/514 371/371/371
f 375/375/375 515/515/515 518/518/518
f 375/375/375 518/518/518 377/377/377
f 378/378/378 519/519/519 522/522/522
f 378/378/378 522/522/522 380/380/380
f 383/383/383 523/523/523 526/526/526
f 383/383/383 526/526/526 385/385/385
f 386/386/386 527/527/527 530/530/530
f 386/386/386 530/530/530 388/388/388
f 391/391/391 532/532/532 534/534/534
f 391/391/391 534/534/534 393/393/393
f 395/395/395 537/537/537 539/539/539
f 394/394/394 540/540/540 397/397/397
f 401/401/401 542/542/542 545/545/545
f 401/401/401 545/545/545 403/403/403
f 404/404/404 546/546/546 549/549/549
f 404/404/404 549/549/549 407/407/407
f 411/411/411 550/550/550 554/554/554
f 411/411/411 554/554/554 413/413/413
f 414/414/414 555/555/555 558/558/558
f 414/414/414 558/558/558 416/416/416
f 420/420/420 559/559/559 562/562/562
f 420/420/420 562/562/562 422/422/422
f 423/423/423 563/563/563 565/565/565
f 423/423/423 565/565/565 425/425/425
f 427/427/427 567/567/567 570/570/570
f 427/427/427 570/570/570 430/430/430
f 431/431/431 571/571/571 575/575/575
f 431/431/431 575/575/575 436/436/436
f 434/434/434 573/573/573 579/579/579
f 434/434/434 579/579/579 440/440/440
f 438/438/438 578/578/578 583/583/583
f 438/438/438 583/583/583 444/444/444
f 443/443/443 582/582/582 587/587/587
f 443/443/443 587/587/587 450/450/450
f 446/446/446 586/586/586 592/592/592
f 446/446/446 592/592/592 454/454/454
f 453/453/453 591/591/591 596/596/596
f 453/453/453 596/596/596 461/461/461
f 458/458/458 595/595/595 601/601/601
f 459/459/459 600/600/600 465/465/465
f 462/462/462 598/598/598 605/605/605
f 462/462/462 605/605/605 468/468/468
f 467/467/467 602/602/602 608/608/608
f 467/467/467 608/608/608 475/475/475
f 470/470/470 606/606/606 611/611/611
f 471/471/471 612/612/612 478/478/478
f 476/476/476 610/610/610 617/617/617
f 476/476/476 617/617/617 483/483/483
f 482/482/482 616/616/616 621/621/621
f 482/482/482 621/621/621 489/489/489
f 485/485/485 620/620/620 625/625/625
f 485/485/485 625/625/625 492/492/492
f 491/491/491 624/624/624 629/629/629
f 491/491/491 629/629/629 497/497/497
f 495/495/495 628/628/628 634/634/634
f 495/495/495 634/634/634 501/501/501
f 636/636/636 504/504/504 633/633/633
f 636/636/636 633/633/633 701/701/701
f 505/505/505 637/637/637 638/638/638
f 505/505/505 638/638/638 507/507/507
f 509/509/509 639/639/639 640/640/640
f 509/509/509 640/640/640 512/512/512
f 513/513/513 641/641/641 642/642/642
f 513/513/513 642/642/642 516/516/516
f 517/517/517 643/643/643 644/644/644
f 517/517/517 644/644/644 520/520/520
f 521/521/521 645/645/645 646/646/646
f 521/521/521 646/646/646 524/524/524
f 525/525/525 647/647/647 648/648/648
f 525/525/525 648/648/648 528/528/528
f 529/529/529 649/649/649 650/650/650
f 529/529/529 650/650/650 531/531/531
f 533/533/533 651/651/651 652/652/652
f 533/533/533 652/652/652 535/535/535
f 536/536/536 653/653/653 654/654/654
f 536/536/536 654/654/654 538/538/538
f 541/541/541 655/655/655 656/656/656
f 541/541/541 656/656/656 543/543/543
f 544/544/544 657/657/657 658/658/658
f 544/544/544 658/658/658 547/547/547
f 548/548/548 659/659/659 660/660/660
f 548/548/548 660/660/660 551/551/551
f 552/552/552 661/661/661 663/663/663
f 553/553/553 662/662/662 556/556/556
f 557/557/557 664/664/664 665/665/665
f 557/557/557 665/665/665 560/560/560
f 561/561/561 666/666/666 667/667/667
f 561/561/561 667/667/667 564/564/564
f 566/566/566 668/668/668 669/669/669
f 566/566/566 669/669/669 568/568/568
f 569/569/569 670/670/670 672/672/672
f 569/569/569 672/672/672 574/574/574
f 572/572/572 671/671/671 674/674/674
f 572/572/572 674/674/674 577/577/577
f 576/576/576 673/673/673 676/676/676
f 576/576/576 676/676/676 581/581/581
f 580/580/580 675/675/675 678/678/678
f 580/580/580 678/678/678 585/585/585
f 584/584/584 677/677/677 680/680/680
f 584/584/584 680/680/680 590/590/590
f 588/588/588 679/679/679 683/683/683
f 589/589/589 682/682/682 594/594/594
f 593/593/593 681/681/681 685/685/685
f 593/593/593 685/685/685 599/599/599
f 597/597/597 684/684/684 687/687/687
f 597/597/597 687/687/687 604/604/604
f 603/603/603 686/686/686 689/689/689
f 603/603/603 689/689/689 609/609/609
f 607/607/607 688/688/688 691/691/691
f 607/607/607 691/691/691 615/615/615
f 614/614/614 690/690/690 694/694/694
f 613/613/613 693/693/693 619/619/619
f 618/618/618 692/692/692 696/696/696
f 618/618/618 696/696/696 623/623/623
f 622/622/622 695/695/695 698/698/698
f 622/622/622 698/698/698 627/627/627
f 626/626/626 697/697/697 700/700/700
f 626/626/626 700/700/700 631/631/631
f 630/630/630 699/699/699 702/702/702
f 630/630/630 702/702/702 635/635/635
f 45/45/45 53/53/53 405/405/405
f 46/46/46 406/406/406 408/408/408
f 39/39/39 47/47/47 410/410/410
f 40/40/40 409/409/409 412/412/412
f 36/36/36 43/43/43 415/415/415
f 36/36/36 415/415/415 417/417/417
f 30/30/30 37/37/37 418/418/418
f 31/31/31 419/419/419 421/421/421
f 26/26/26 33/33/33 424/424/424
f 26/26/26 424/424/424 426/426/426
f 23/23/23 28/28/28 429/429/429
f 22/22/22 428/428/428 433/433/433
f 161/161/161 21/21/21 432/432/432
f 161/161/161 432/432/432 437/437/437
f 158/158/158 160/160/160 435/435/435
f 158/158/158 435/435/435 441/441/441
f 154/154/154 156/156/156 439/439/439
f 154/154/154 439/439/439 445/445/445
f 150/150/150 152/152/152 442/442/442
f 150/150/150 442/442/442 449/449/449
f 145/145/145 148/148/148 448/448/448
f 146/146/146 447/447/447 455/455/455
f 140/140/140 142/142/142 452/452/452
f 139/139/139 451/451/451 460/460/460
f 135/135/135 137/137/137 456/456/456
f 134/134/134 457/457/457 464/464/464
f 122/122/122 125/125/125 472/472/472
f 123/123/123 473/473/473 479/479/479
f 118/118/118 120/120/120 477/477/477
f 118/118/118 477/477/477 484/484/484
f 113/113/113 115/115/115 480/480/480
f 112/112/112 481/481/481 488/488/488
f 108/108/108 110/110/110 487/487/487
f 107/107/107 486/486/486 493/493/493
f 103/103/103 105/105/105 490/490/490
f 103/103/103 490/490/490 496/496/496
f 99/99/99 101/101/101 494/494/494
f 99/99/99 494/494/494 500/500/500
f 97/97/97 499/499/499 360/360/360
f 97/97/97 360/360/360 93/93/93
f 89/89/89 94/94/94 361/361/361
f 89/89/89 361/361/361 363/363/363
f 86/86/86 92/92/92 364/364/364
f 86/86/86 364/364/364 366/366/366
f 81/81/81 88/88/88 370/370/370
f 82/82/82 369/369/369 372/372/372
f 76/76/76 83/83/83 374/374/374
f 75/75/75 373/373/373 376/376/376
f 72/72/72 79/79/79 379/379/379
f 72/72/72 379/379/379 381/381/381
f 67/67/67 73/73/73 382/382/382
f 67/67/67 382/382/382 384/384/384
f 64/64/64 70/70/70 387/387/387
f 64/64/64 387/387/387 389/389/389
f 50/50/50 57/57/57 400/400/400
f 49/49/49 399/399/399 402/402/402
f 32/32/32 179/179/179 38/38/38
f 114/114/114 246/246/246 249/249/249
f 114/114/114 249/249/249 116/116/116
f 236/236/236 329/329/329 330/330/330
f 131/131/131 133/133/133 463/463/463
f 131/131/131 463/463/463 469/469/469
f 126/126/126 128/128/128 466/466/466
f 126/126/126 466/466/466 474/474/474
f 59/59/59 65/65/65 390/390/390
f 59/59/59 390/390/390 392/392/392
f 56/56/56 62/62/62 396/396/396
f 56/56/56 396/396/396 398/398/398