# https://github.com/mikedh/trimesh
mtllib material.mtl
usemtl material_0
v -0.25617955 -0.16373916 -0.50000000
v -0.25617955 -0.16373916 -0.47539869
v -0.25617955 0.21564836 -0.47539869
v -0.25617955 0.21564836 -0.50000000
v 0.25617955 0.21564836 -0.47539869
v 0.25617955 0.21564836 -0.50000000
v -0.25617955 0.21564836 -0.50000000
v -0.25617955 0.21564836 -0.47539869
v 0.25617955 0.21564836 -0.50000000
v 0.25617955 0.21564836 -0.47539869
v 0.25617955 -0.16373916 -0.47539869
v 0.25617955 -0.16373916 -0.50000000
v -0.25617955 0.21564836 -0.50000000
v 0.25617955 0.21564836 -0.50000000
v 0.25617955 -0.16373916 -0.50000000
v -0.25617955 -0.16373916 -0.50000000
v 0.23941780 -0.17513583 0.48694540
v 0.23941780 -0.17513583 0.48694540
v 0.23941780 -0.17513583 -0.46167926
v 0.25617955 -0.16373916 -0.50000000
v 0.25617955 -0.16373916 -0.50000000
v 0.25617955 -0.16373916 -0.47539869
v 0.25617955 -0.16373916 -0.47539869
v 0.25617955 -0.16373916 0.17329925
v 0.25617955 -0.16373916 0.50000000
v -0.20967440 -0.17513583 0.17326609
v -0.24515509 -0.17513583 0.48694540
v -0.24515509 -0.17513583 -0.45733878
v -0.20967440 -0.17513583 0.01590625
v -0.08813348 -0.17513583 0.01590625
v -0.20967440 -0.17513583 0.01590625
v -0.24515509 -0.17513583 -0.45733878
v -0.24515509 -0.17513583 -0.46167926
v 0.23941780 -0.17513583 -0.46167926
v 0.23941780 -0.17513583 0.48694540
v -0.24515509 -0.17513583 0.48694540
v -0.24515509 -0.17513583 0.48694540
v -0.24515509 -0.17513583 0.48694540
v -0.20967440 -0.17513583 0.17326609
v -0.20967440 -0.17513583 0.17326609
v -0.08813348 -0.17513583 0.17326609
v -0.25617955 -0.16373916 -0.50000000
v 0.25617955 -0.16373916 -0.50000000
v 0.23941780 -0.17513583 -0.46167926
v -0.24515509 -0.17513583 -0.46167926
v -0.24515509 -0.17513583 -0.45733878
v -0.24515509 -0.17513583 0.48694540
v -0.25617955 -0.16373916 0.49999917
v -0.25617955 -0.16373916 0.17329925
v -0.25617955 -0.16373916 -0.47539869
v -0.25617955 -0.16373916 -0.47539869
v -0.25617955 -0.16373916 -0.50000000
v -0.24515509 -0.17513583 -0.46167926
v -0.24515509 -0.17513583 -0.45733878
v -0.25617955 -0.16373916 -0.47539869
v -0.25617955 -0.16373916 -0.47539869
v -0.24515509 -0.17513583 -0.45733878
v -0.24515509 -0.17513583 -0.45733878
v -0.25617955 -0.16373916 0.50000000
v -0.25617955 -0.16373916 0.49999917
v -0.24515509 -0.17513583 0.48694540
v -0.24515509 -0.17513583 0.48694540
v -0.24515509 -0.17513583 0.48694540
v 0.23941780 -0.17513583 0.48694540
v 0.25617955 -0.16373916 0.50000000
v -0.00726674 -0.16373916 0.50000000
v -0.20608662 -0.16373916 0.50000000
v -0.25617955 -0.16373916 0.50000000
v -0.08613898 -0.16373916 0.50000000
vn -1.00000000 0.00000000 0.00000000
vn -1.00000000 0.00000000 0.00000000
vn -1.00000000 0.00000000 0.00000000
vn -1.00000000 0.00000000 0.00000000
vn 0.00000000 1.00000000 0.00000000
vn 0.00000000 1.00000000 0.00000000
vn 0.00000000 1.00000000 0.00000000
vn 0.00000000 1.00000000 0.00000000
vn 1.00000000 0.00000000 0.00000000
vn 1.00000000 0.00000000 0.00000000
vn 1.00000000 0.00000000 0.00000000
vn 1.00000000 0.00000000 0.00000000
vn 0.00000000 0.00000000 -1.00000000
vn 0.00000000 0.00000000 -1.00000000
vn 0.00000000 0.00000000 -1.00000000
vn 0.00000000 0.00000000 -1.00000000
vn 0.56220061 -0.82700089 0.00000000
vn 0.56226899 -0.82695440 0.00000000
vn 0.56226899 -0.82695440 0.00000000
vn 0.56226899 -0.82695440 0.00000000
vn 0.56220061 -0.82700089 0.00000000
vn 0.56226899 -0.82695440 0.00000000
vn 0.56220061 -0.82700089 0.00000000
vn 0.56226899 -0.82695440 0.00000000
vn 0.56226899 -0.82695440 0.00000000
vn 0.00000000 -1.00000000 0.00000000
vn 0.00000000 -1.00000000 0.00000000
vn 0.00000000 -1.00000000 0.00000000
vn 0.00000000 -1.00000000 0.00000000
vn 0.00000000 -1.00000000 0.00000000
vn 0.00000000 -1.00000000 0.00000000
vn 0.00000000 -1.00000000 0.00000000
vn 0.00000000 -1.00000000 0.00000000
vn 0.00000000 -1.00000000 0.00000000
vn 0.00000000 -1.00000000 0.00000000
vn 0.00000000 -1.00000000 0.00000000
vn 0.42329263 -0.89738438 -0.12459783
vn 0.56476608 -0.82525043 0.00099994
vn 0.61890594 -0.76560734 -0.17550168
vn 0.00000000 -1.00000000 0.00000000
vn 0.00000000 -1.00000000 0.00000000
vn 0.00000000 -0.95849796 -0.28509939
vn 0.00000000 -0.95849796 -0.28509939
vn 0.00000000 -0.95849796 -0.28509939
vn 0.00000000 -0.95849796 -0.28509939
vn -0.71871014 -0.69530981 0.00000000
vn -0.71871014 -0.69530981 0.00000000
vn -0.71871014 -0.69530981 0.00000000
vn -0.71871014 -0.69530981 0.00000000
vn -0.71871014 -0.69530981 0.00000000
vn -0.71871014 -0.69530981 0.00000000
vn -0.71871014 -0.69530981 0.00000000
vn -0.71871014 -0.69530981 0.00000000
vn -0.71871014 -0.69530981 0.00000000
vn -0.59829421 -0.08079922 -0.79719228
vn -0.66820458 -0.11130076 -0.73560504
vn 0.00000000 0.00000000 1.00000000
vn 0.00000000 0.00000000 1.00000000
vn -0.07549921 0.47949497 0.87429082
vn -0.78310015 0.27760005 0.55650011
vn -0.76726942 -0.19959205 -0.60947571
vn -0.84602832 -0.22610757 -0.48281616
vn 0.00000000 -0.75328863 0.65769008
vn 0.00000000 -0.75328863 0.65769008
vn 0.00000000 -0.75328863 0.65769008
vn 0.00000000 -0.75328863 0.65769008
vn 0.00000000 -0.75328863 0.65769008
vn 0.00000000 -0.75328863 0.65769008
vn 0.00000000 -0.75328863 0.65769008
vt 0.86196400 0.01507900
vt 0.87460500 0.01484600
vt 0.88361500 0.50333900
vt 0.87097300 0.50357300
vt 0.91443000 0.00000000
vt 0.92707300 0.00000000
vt 0.92707300 0.51393600
vt 0.91443000 0.51393600
vt 0.85313900 0.00000000
vt 0.86196400 0.00905500
vt 0.51207900 0.35006500
vt 0.50325400 0.34101000
vt 0.00000000 0.51393600
vt 0.00000000 0.00000000
vt 0.48857700 0.00000000
vt 0.48857700 0.51393600
vt 0.84677000 0.71449500
vt 0.84677000 0.71449500
vt 0.50648900 0.36535800
vt 0.50325400 0.34101000
vt 0.50325400 0.34101000
vt 0.51207900 0.35006500
vt 0.51207900 0.35006500
vt 0.74477300 0.58881500
vt 0.86196400 0.70905600
vt 0.13566600 0.96441000
vt 0.20268800 1.00000000
vt 0.00092700 1.00000000
vt 0.10204300 0.96441000
vt 0.10204300 0.84249500
vt 0.10204300 0.96441000
vt 0.00092700 1.00000000
vt 0.00000000 1.00000000
vt 0.00000000 0.51393600
vt 0.20268800 0.51393600
vt 0.20268800 1.00000000
vt 0.20268800 1.00000000
vt 0.20268800 1.00000000
vt 0.13566600 0.96441000
vt 0.13566600 0.96441000
vt 0.13566600 0.84249500
vt 0.48857700 0.51393600
vt 0.48857700 0.00000000
vt 0.50325400 0.01681400
vt 0.50325400 0.50287800
vt 0.91443000 0.00928200
vt 0.91443000 0.49458300
vt 0.89975300 0.50129200
vt 0.89975300 0.33338900
vt 0.89975300 0.00000000
vt 0.87460500 0.01484600
vt 0.86196400 0.01507900
vt 0.88138400 0.00004100
vt 0.88361500 0.00000000
vt 0.20268800 0.51393600
vt 0.20268800 0.51393600
vt 0.20268800 0.52850800
vt 0.20268800 0.52850800
vt 0.89975300 0.50129200
vt 0.89975300 0.50129200
vt 0.91443000 0.49458300
vt 0.91443000 0.49458300
vt 0.88361500 0.50287700
vt 0.88361500 0.01681400
vt 0.89975200 0.00000000
vt 0.89975200 0.26425700
vt 0.89975200 0.46368900
vt 0.89975200 0.51393600
vt 0.89975200 0.34337200
f 1/1/1 2/2/2 3/3/3
f 1/1/1 3/3/3 4/4/4
f 5/5/5 6/6/6 7/7/7
f 5/5/5 7/7/7 8/8/8
f 9/9/9 10/10/10 11/11/11
f 9/9/9 11/11/11 12/12/12
f 13/13/13 14/14/14 15/15/15
f 13/13/13 15/15/15 16/16/16
f 18/18/18 19/19/19 20/20/20
f 17/17/17 21/21/21 23/23/23
f 24/24/24 25/25/25 18/18/18
f 22/22/22 24/24/24 18/18/18
f 26/26/26 27/27/27 28/28/28
f 26/26/26 28/28/28 29/29/29
f 30/30/30 31/31/31 32/32/32
f 32/32/32 33/33/33 34/34/34
f 34/34/34 35/35/35 36/36/36
f 36/36/36 40/40/40 41/41/41
f 30/30/30 32/32/32 34/34/34
f 34/34/34 36/36/36 41/41/41
f 34/34/34 41/41/41 30/30/30
f 42/42/42 43/43/43 44/44/44
f 42/42/42 44/44/44 45/45/45
f 46/46/46 47/47/47 48/48/48
f 46/46/46 48/48/48 49/49/49
f 49/49/49 50/50/50 46/46/46
f 51/51/51 52/52/52 53/53/53
f 51/51/51 53/53/53 54/54/54
f 63/63/63 64/64/64 65/65/65
f 63/63/63 65/65/65 66/66/66
f 67/67/67 68/68/68 63/63/63
f 63/63/63 66/66/66 69/69/69
f 69/69/69 67/67/67 63/63/63
f 37/37/37 38/38/38 39/39/39
f 55/55/55 56/56/56 57/57/57
f 55/55/55 57/57/57 58/58/58
f 59/59/59 60/60/60 61/61/61
f 59/59/59 61/61/61 62/62/62