# https://github.com/mikedh/trimesh
mtllib material.mtl
usemtl material_0
v -0.20841768 -0.19386969 0.01696485
v -0.20841768 -0.19386969 0.01696485
v -0.20841768 -0.19386969 0.01696485
v -0.08957671 -0.19386969 0.01696485
v -0.08957671 -0.19386969 0.01696485
v -0.08957671 -0.19386969 0.01696485
v -0.08957671 -0.19386969 0.01696485
v -0.20841768 -0.19386969 0.17201269
v -0.20841768 -0.19386969 0.17201269
v -0.20841768 -0.19386969 0.17201269
v -0.20841768 -0.19386969 0.17201269
v -0.08957671 -0.19386969 0.17201269
v -0.08957671 -0.19386969 0.17201269
v -0.08957671 -0.19386969 0.17201269
v -0.08957671 -0.19386969 0.17201269
v -0.08957671 -0.19386969 0.17201269
v -0.08957671 -0.12639163 0.01696485
v -0.08957671 -0.12639163 0.01696485
v -0.08957671 -0.12639163 0.01696485
v -0.20841768 -0.12639163 0.01696485
v -0.20841768 -0.12639163 0.01696485
v -0.20841768 -0.12639163 0.01696485
v -0.20841768 -0.12639163 0.17201269
v -0.20841768 -0.12639163 0.17201269
v -0.20841768 -0.12639163 0.17201269
v -0.08957671 -0.12639163 0.17201269
v -0.08957671 -0.12639163 0.17201269
v -0.08957671 -0.12639163 0.17201269
v -0.20953928 -0.17228169 0.01587227
v -0.20953928 -0.17228169 0.17329925
v -0.08826777 -0.19303824 0.01587227
v -0.08826777 -0.19303824 0.01587227
v -0.08826777 -0.19303824 0.17329925
v -0.08826777 -0.19303824 0.17329925
v -0.08826777 -0.19303824 0.17329925
v -0.20953928 -0.19303824 0.01587227
v -0.20953928 -0.19303824 0.17329925
v -0.20953928 -0.19303824 0.17329925
v -0.20953928 -0.19303824 0.01587227
v -0.08826777 -0.19303824 0.01587227
vn 0.00000000 -0.79569563 -0.60569667
vn 0.00000000 0.00000000 1.00000000
vn 1.00000000 0.00000000 0.00000000
vn -1.00000000 0.00000000 0.00000000
vn 0.00000000 -0.79569563 -0.60569667
vn 0.00000000 0.00000000 1.00000000
vn 0.53638365 -0.84397428 0.00000000
vn 0.00000000 0.00000000 -1.00000000
vn 0.00000000 -0.83991877 0.54271213
vn 0.00000000 -0.83987319 0.54278267
vn 1.00000000 0.00000000 0.00000000
vn -1.00000000 0.00000000 0.00000000
vn 0.00000000 0.00000000 -1.00000000
vn 0.00000000 -0.83987319 0.54278267
vn 0.53638365 -0.84397428 0.00000000
vn 0.53631242 -0.84401954 0.00000000
vn -1.00000000 0.00000000 0.00000000
vn 0.00000000 -1.00000000 0.00000000
vn 0.00000000 0.00000000 1.00000000
vn 0.00000000 -1.00000000 0.00000000
vn 0.00000000 0.00000000 1.00000000
vn 1.00000000 0.00000000 0.00000000
vn 0.00000000 0.00000000 -1.00000000
vn 0.00000000 -1.00000000 0.00000000
vn 1.00000000 0.00000000 0.00000000
vn -1.00000000 0.00000000 0.00000000
vn 0.00000000 0.00000000 -1.00000000
vn 0.00000000 -1.00000000 0.00000000
vn -1.00000000 0.00000000 0.00000000
vn -1.00000000 0.00000000 0.00000000
vn 0.53631242 -0.84401954 0.00000000
vn 0.53638365 -0.84397428 0.00000000
vn 0.00000000 -0.83987319 0.54278267
vn 0.00000000 -0.83991877 0.54271213
vn 0.53631242 -0.84401954 0.00000000
vn -1.00000000 0.00000000 0.00000000
vn -1.00000000 0.00000000 0.00000000
vn 0.00000000 -0.83991877 0.54271213
vn 0.00000000 -0.79569563 -0.60569667
vn 0.00000000 -0.79569563 -0.60569667
vt 0.36448000 0.99453500
vt 0.56559100 0.50000000
vt 0.00000000 0.00000000
vt 0.56559100 0.00000000
vt 0.36448000 0.01078900
vt 0.56559100 0.00000000
vt 0.35454200 0.98921100
vt 0.56559100 0.50000000
vt 0.01034500 0.00546500
vt 0.01034500 0.00546500
vt 0.00000000 0.65623300
vt 0.56559100 0.65623300
vt 0.56559100 1.00000000
vt 0.01034500 0.98921100
vt 0.01034500 0.98921100
vt 0.01034500 0.98921100
vt 0.28279600 0.00000000
vt 0.00011600 0.89801300
vt 0.84838700 0.00000000
vt 0.00011600 0.02659300
vt 0.84838700 0.50000000
vt 0.28279600 0.00000000
vt 0.84838700 0.50000000
vt 0.70119300 0.00011600
vt 0.28279600 0.65623300
vt 0.28279600 0.65623300
vt 0.84838700 1.00000000
vt 0.70119300 0.87153600
vt 0.50084900 0.29933900
vt 0.54151200 0.29933900
vt 0.34947800 1.00000000
vt 0.34947800 1.00000000
vt 0.00000000 1.00000000
vt 0.00000000 1.00000000
vt 0.00000000 1.00000000
vt 0.50084900 0.95066100
vt 0.54151200 0.95066100
vt 0.00000000 0.00000000
vt 0.35454200 1.00000000
vt 0.35454200 0.00000000
f 2/2/2 6/6/6 19/19/19
f 2/2/2 19/19/19 21/21/21
f 13/13/13 8/8/8 23/23/23
f 13/13/13 23/23/23 27/27/27
f 11/11/11 3/3/3 22/22/22
f 11/11/11 22/22/22 25/25/25
f 4/4/4 12/12/12 26/26/26
f 4/4/4 26/26/26 17/17/17
f 20/20/20 18/18/18 28/28/28
f 20/20/20 28/28/28 24/24/24
f 34/34/34 38/38/38 9/9/9
f 33/33/33 10/10/10 14/14/14
f 37/37/37 30/30/30 29/29/29
f 37/37/37 29/29/29 36/36/36
f 5/5/5 1/1/1 39/39/39
f 5/5/5 39/39/39 40/40/40
f 31/31/31 35/35/35 16/16/16
f 32/32/32 15/15/15 7/7/7