# Blender 4.5.2 LTS
# www.blender.org
mtllib socket_cl1919_with_gap.mtl
o socket_cl1919_1
v 8.694071 -3.975933 1.455460
v 6.520554 -3.975933 1.455460
v 8.694071 0.371102 1.455460
v 6.520554 0.371102 1.455460
v -6.520553 -3.975933 1.455460
v -8.694071 -3.975933 1.455460
v -6.520553 0.371102 1.455460
v -8.694071 0.371102 1.455460
v 1.086758 0.371102 1.455460
v -1.086758 0.371102 1.455460
v 1.086758 4.718137 1.455458
v -1.086758 4.718137 1.455458
v 2.077000 6.000000 -9.056000
v 2.150000 6.000000 -8.500000
v 2.077000 6.000000 -7.944000
v 1.862000 6.000000 -7.425002
v 1.520000 6.000000 -6.980000
v 1.075000 6.000000 -6.638000
v 0.556000 6.000000 -6.423000
v 0.000000 6.000000 -6.350000
v -0.556000 6.000000 -6.423000
v -1.075000 6.000000 -6.638000
v -1.520000 6.000000 -6.980000
v -1.862000 6.000000 -7.425002
v -2.077000 6.000000 -7.944000
v -2.150000 6.000000 -8.500000
v -2.077000 6.000000 -9.056000
v -1.862000 5.999998 -9.575000
v -1.520000 5.999998 -10.020000
v -1.075000 5.999998 -10.362000
v -0.556000 5.999998 -10.577000
v 0.000000 5.999998 -10.650000
v 0.556000 5.999998 -10.577000
v 1.075000 5.999998 -10.362000
v 1.520000 5.999998 -10.020000
v 1.862000 5.999998 -9.575000
v 12.769418 3.637128 19.169628
v 6.520554 8.939784 19.169628
v 12.769418 3.637126 1.455458
v 6.520554 8.939781 1.455458
v 12.769418 -6.692828 19.169628
v 12.769418 -6.692832 1.455460
v 11.139278 -8.322969 1.455460
v 11.139278 -8.322966 19.169628
v 11.560941 -8.267544 1.455460
v 11.560941 -8.267542 19.169628
v 11.954348 -8.104528 19.169628
v 11.954348 -8.104530 1.455460
v 12.292330 -7.845879 19.169628
v 12.292330 -7.845881 1.455460
v 12.550979 -7.507897 19.169628
v 12.550979 -7.507901 1.455460
v 12.713993 -7.114493 1.455460
v 12.713993 -7.114491 19.169628
v -11.139278 -8.322966 19.169628
v -11.139278 -8.322969 1.455460
v -12.769418 -6.692832 1.455460
v -12.769418 -6.692828 19.169628
v -12.713993 -7.114493 1.455460
v -12.713993 -7.114491 19.169628
v -12.550979 -7.507897 19.169628
v -12.550979 -7.507901 1.455460
v -12.292330 -7.845879 19.169628
v -12.292330 -7.845881 1.455460
v -11.954348 -8.104530 1.455460
v -11.954348 -8.104528 19.169628
v -11.560941 -8.267542 19.169628
v -11.560941 -8.267544 1.455460
v -12.769418 3.637128 19.169628
v -12.769418 3.637126 1.455458
v -6.520553 8.939784 19.169628
v -6.520553 8.939781 1.455458
v -3.381000 8.000000 -7.594000
v -3.381000 6.000000 -7.594000
v -3.500000 8.000000 -8.500002
v -3.500000 6.000000 -8.500000
v -3.381000 8.000000 -9.406002
v -3.381000 6.000000 -9.406000
v -3.031000 5.999998 -10.250000
v -3.031000 8.000000 -6.750000
v -3.031000 6.000000 -6.750000
v -2.475000 8.000000 -6.025002
v -2.475000 6.000000 -6.025002
v -1.750000 6.000000 -5.469000
v -1.750000 8.000000 -5.469000
v -0.906000 8.000000 -5.119000
v -0.906000 6.000000 -5.119000
v 0.000000 8.000000 -5.000000
v 0.000000 6.000000 -5.000000
v 0.906000 6.000000 -5.119000
v 0.906000 8.000000 -5.119000
v 1.750000 8.000000 -5.469000
v 1.750000 6.000000 -5.469000
v 2.475000 8.000000 -6.025002
v 2.475000 6.000000 -6.025002
v 3.031000 8.000000 -6.750000
v 3.031000 6.000000 -6.750000
v 3.381000 6.000000 -7.594000
v 3.381000 8.000000 -7.594000
v 3.500000 8.000000 -8.500002
v 3.500000 6.000000 -8.500000
v 3.381000 8.000000 -9.406002
v 3.381000 6.000000 -9.406000
v 3.031000 5.999998 -10.250000
v 3.031000 7.999998 -10.250002
v 2.475000 7.999998 -10.975002
v 2.475000 5.999998 -10.975000
v 1.750000 7.999998 -11.531002
v 1.750000 5.999998 -11.531000
v 0.906000 7.999998 -11.881002
v 0.906000 5.999998 -11.881000
v 0.000000 5.999998 -12.000000
v 0.000000 7.999998 -12.000002
v -0.906000 7.999998 -11.881002
v -0.906000 5.999998 -11.881000
v -1.750000 7.999998 -11.531002
v -1.750000 5.999998 -11.531000
v -2.475000 5.999998 -10.975000
v -2.475000 7.999998 -10.975002
v -3.031000 7.999998 -10.250002
v 4.330000 2.499994 -35.500000
v 4.830000 1.293994 -35.500000
v 4.830000 1.293990 -61.000000
v 5.000000 -0.000006 -35.500000
v 5.000000 -0.000010 -61.000000
v 4.830000 -1.294006 -35.500000
v 4.830000 -1.294010 -61.000000
v 4.330000 -2.500010 -61.000000
v 4.330000 2.499990 -61.000000
v 3.536000 3.535990 -61.000000
v 3.536000 3.535994 -35.500000
v 2.500000 4.329990 -61.000000
v 2.500000 4.329994 -35.500000
v 1.294000 4.829990 -61.000000
v 1.294000 4.829994 -35.500000
v 0.000000 4.999994 -35.500000
v 0.000000 4.999990 -61.000000
v -1.294000 4.829990 -61.000000
v -1.294000 4.829994 -35.500000
v -2.500000 4.329990 -61.000000
v -2.500000 4.329994 -35.500000
v -3.536000 3.535994 -35.500000
v -3.536000 3.535990 -61.000000
v -4.330000 2.499990 -61.000000
v -4.330000 2.499994 -35.500000
v -4.830000 1.293990 -61.000000
v -4.830000 1.293994 -35.500000
v -5.000000 -0.000006 -35.500000
v -5.000000 -0.000010 -61.000000
v -4.830000 -1.294006 -35.500000
v -4.830000 -1.294010 -61.000000
v -4.330000 -2.500010 -61.000000
v -4.330000 -2.500006 -35.500000
v -3.536000 -3.536010 -61.000000
v -3.536000 -3.536006 -35.500000
v -2.500000 -4.330006 -35.500000
v -2.500000 -4.330010 -61.000000
v -1.294000 -4.830010 -61.000000
v -1.294000 -4.830006 -35.500000
v 0.000000 -5.000010 -61.000000
v 0.000000 -5.000006 -35.500000
v 1.294000 -4.830006 -35.500000
v 1.294000 -4.830010 -61.000000
v 2.500000 -4.330010 -61.000000
v 2.500000 -4.330006 -35.500000
v 3.536000 -3.536010 -61.000000
v 3.536000 -3.536006 -35.500000
v 4.330000 -2.500006 -35.500000
v 13.977894 -9.900943 -0.718058
v 13.584486 -9.953107 -0.718058
v 13.033528 -8.168413 -0.340888
v -13.584486 -9.953107 -0.718058
v -13.033528 -8.168413 -0.340888
v -13.977894 -9.900943 -0.718058
v -14.345218 -9.748796 -0.718058
v -14.660377 -9.507536 -0.718058
v -14.901638 -9.192377 -0.718058
v -15.053784 -8.825052 -0.718058
v -15.105948 -8.431646 -0.718058
v -15.105948 3.963154 -0.718060
v -13.033528 4.069774 -0.340890
v -7.767983 8.389111 -0.340891
v -7.552975 10.569919 -0.718061
v 7.552975 10.569919 -0.718061
v 7.767983 8.389111 -0.340891
v 15.105948 3.963154 -0.718060
v 13.033528 4.069774 -0.340890
v 15.105948 -8.431646 -0.718058
v 15.053784 -8.825052 -0.718058
v 14.901638 -9.192377 -0.718058
v 14.660377 -9.507536 -0.718058
v 14.345218 -9.748796 -0.718058
v -13.584486 -9.953105 19.169628
v -13.977894 -9.900940 19.169628
v -14.345218 -9.748794 19.169628
v -14.660377 -9.507534 19.169628
v -14.901638 -9.192373 19.169628
v -15.053784 -8.825048 19.169628
v -15.105948 -8.431643 19.169628
v -15.105948 3.963156 19.169628
v -7.552975 10.569921 19.169628
v 7.552975 10.569921 19.169628
v 15.105948 3.963156 19.169628
v 15.105948 -8.431643 19.169628
v 15.053784 -8.825048 19.169628
v 14.901638 -9.192373 19.169628
v 14.660377 -9.507534 19.169628
v 14.345218 -9.748794 19.169628
v 13.977894 -9.900940 19.169628
v 13.584486 -9.953105 19.169628
v -12.500000 2.949996 -30.500000
v -12.500000 -8.000004 -30.500000
v -7.450000 7.999994 -35.500000
v -7.500000 7.949994 -35.500000
v 7.450000 7.999994 -35.500000
v 12.500000 2.949996 -30.500000
v 7.500000 7.949994 -35.500000
v -7.500000 -8.000006 -35.500000
v 7.500000 -8.000006 -35.500000
v 12.500000 -8.000004 -30.500000
vn -0.6470 -0.7625 -0.0000
vn -1.0000 -0.0000 -0.0000
vn -0.0000 1.0000 -0.0000
vn -0.2588 0.9659 -0.0000
vn -0.2591 0.9658 -0.0000
vn -0.4999 0.8661 -0.0000
vn -0.7071 0.7071 -0.0000
vn -0.8661 0.4999 -0.0000
vn -0.8660 0.5000 -0.0000
vn -0.9659 0.2588 -0.0000
vn 1.0000 -0.0000 -0.0000
vn 0.9659 0.2588 -0.0000
vn 0.8661 0.4998 -0.0000
vn 0.7071 0.7071 -0.0000
vn 0.4999 0.8661 -0.0000
vn 0.5000 0.8660 -0.0000
vn 0.2588 0.9659 -0.0000
vn 0.2591 0.9658 -0.0000
vn 0.6470 -0.7625 -0.0000
vn -0.0000 -1.0000 -0.0000
vn -0.0000 -0.0000 1.0000
vn 0.9659 -0.0000 -0.2589
vn 0.9658 -0.0000 -0.2594
vn 0.9658 -0.0000 0.2592
vn 0.8660 -0.0000 0.5001
vn 0.8660 -0.0000 -0.5001
vn 0.7071 -0.0000 -0.7071
vn 0.5001 -0.0000 -0.8660
vn 0.2589 -0.0000 -0.9659
vn -0.0000 -0.0000 -1.0000
vn -0.2589 -0.0000 -0.9659
vn -0.5001 -0.0000 -0.8660
vn -0.7071 -0.0000 -0.7071
vn -0.8660 -0.0000 -0.5001
vn -0.9658 -0.0000 -0.2594
vn -0.9659 -0.0000 -0.2589
vn -0.9659 -0.0000 0.2589
vn -0.9658 -0.0000 0.2592
vn -0.8660 -0.0000 0.5001
vn -0.7071 -0.0000 0.7071
vn -0.5001 -0.0000 0.8660
vn -0.2589 -0.0000 0.9659
vn 0.2592 -0.0000 0.9658
vn 0.2589 -0.0000 0.9659
vn 0.5001 -0.0000 0.8660
vn 0.7071 -0.0000 0.7071
vn 0.8661 0.4999 -0.0000
vn 0.9659 -0.2588 -0.0000
vn 0.9658 -0.2592 -0.0000
vn 0.8661 -0.4999 -0.0000
vn 0.2592 0.9658 -0.0000
vn -0.9659 -0.2588 -0.0000
vn -0.9658 -0.2592 -0.0000
vn -0.8661 -0.4999 -0.0000
vn -0.7071 -0.7071 -0.0000
vn -0.4999 -0.8661 -0.0000
vn -0.5002 -0.8659 -0.0000
vn -0.2588 -0.9659 -0.0000
vn 0.2592 -0.9658 -0.0000
vn 0.2588 -0.9659 -0.0000
vn 0.4999 -0.8661 -0.0000
vn 0.7071 -0.7071 -0.0000
vn -0.0264 0.1989 -0.9797
vn -0.0000 0.2068 -0.9784
vn 0.0264 0.1989 -0.9797
vn 0.0722 0.1744 -0.9820
vn 0.1099 0.1435 -0.9835
vn 0.1400 0.1072 -0.9843
vn 0.1620 0.0671 -0.9845
vn 0.1761 0.0234 -0.9841
vn 0.1791 -0.0000 -0.9838
vn 0.1857 -0.2263 -0.9562
vn 0.1606 -0.1836 -0.9698
vn -0.0000 -0.1704 -0.9854
vn -0.1606 -0.1836 -0.9698
vn -0.1857 -0.2263 -0.9562
vn -0.1791 -0.0000 -0.9838
vn -0.1761 0.0234 -0.9841
vn -0.1620 0.0671 -0.9845
vn -0.1400 0.1072 -0.9843
vn -0.1099 0.1435 -0.9835
vn -0.0722 0.1744 -0.9820
vn -0.2593 -0.9658 -0.0000
vn -0.5000 -0.8660 -0.0000
vn -0.8661 -0.4998 -0.0000
vn -0.9658 -0.2593 -0.0000
vn -0.9659 -0.2589 -0.0000
vn -0.6584 0.7527 -0.0000
vn 0.6584 0.7527 -0.0000
vn 0.9658 -0.2593 -0.0000
vn 0.9659 -0.2589 -0.0000
vn 0.8660 -0.5001 -0.0000
vn 0.4995 -0.8663 -0.0000
vn 0.4998 -0.8661 -0.0000
vn 0.2589 -0.9659 -0.0000
vn -0.9998 -0.0000 -0.0177
vn -0.6337 0.7725 -0.0399
vn -0.7148 0.6991 -0.0159
vn -0.7140 0.7000 -0.0142
vn -0.7119 0.7022 -0.0099
vn 0.0710 0.9974 -0.0109
vn 0.0727 0.9973 -0.0095
vn 0.0474 0.9985 -0.0258
vn 0.1208 0.9925 0.0159
vn 0.0669 0.9977 -0.0104
vn -0.0669 0.9977 -0.0104
vn -0.1208 0.9925 0.0159
vn -0.0727 0.9973 -0.0095
vn -0.0525 0.9984 -0.0218
vn -0.0500 0.9985 -0.0238
vn -0.0374 0.9987 -0.0338
vn -0.0355 0.9987 -0.0353
vn -0.0306 0.9987 -0.0399
vn -0.0211 0.9985 -0.0510
vn -0.0106 0.9978 -0.0657
vn -0.0008 0.9966 -0.0819
vn -0.0008 0.9967 -0.0817
vn -0.0000 0.9965 -0.0832
vn 0.0246 0.9986 -0.0472
vn 0.0090 0.9976 -0.0684
vn 0.0106 0.9978 -0.0657
vn 0.0233 0.9986 -0.0480
vn 0.0306 0.9987 -0.0399
vn 0.0403 0.9987 -0.0309
vn 0.0500 0.9985 -0.0238
vn 0.6337 0.7725 -0.0399
vn 0.7140 0.7000 -0.0142
vn 0.7148 0.6991 -0.0159
vn 0.7119 0.7022 -0.0099
vn 0.9998 -0.0000 -0.0177
vn -0.0000 -1.0000 -0.0056
vn -0.0000 -1.0000 -0.0037
s 1
usemtl socket_cl1919_color_2
f 37//1 38//1 39//1
f 39//1 38//1 40//1
f 41//2 37//2 42//2
f 42//2 37//2 39//2
f 43//3 44//3 45//4
f 45//4 44//3 46//5
f 45//4 46//5 47//6
f 45//4 47//6 48//6
f 48//6 47//6 49//7
f 48//6 49//7 50//7
f 50//7 49//7 51//8
f 50//7 51//8 52//9
f 52//9 51//8 53//10
f 51//8 54//10 53//10
f 53//10 54//10 41//2
f 53//10 41//2 42//2
f 55//3 44//3 56//3
f 56//3 44//3 43//3
f 57//11 58//11 59//12
f 59//12 58//11 60//12
f 59//12 60//12 61//13
f 59//12 61//13 62//13
f 62//13 61//13 63//14
f 62//13 63//14 64//14
f 64//14 63//14 65//15
f 63//14 66//16 65//15
f 65//15 66//16 67//17
f 65//15 67//17 68//18
f 68//18 67//17 55//3
f 68//18 55//3 56//3
f 69//11 58//11 70//11
f 70//11 58//11 57//11
f 71//19 69//19 72//19
f 72//19 69//19 70//19
f 38//20 71//20 40//20
f 40//20 71//20 72//20
f 52//21 53//21 43//21
f 43//21 53//21 42//21
f 43//21 42//21 1//21
f 1//21 42//21 39//21
f 1//21 39//21 3//21
f 3//21 39//21 40//21
f 3//21 40//21 4//21
f 4//21 40//21 11//21
f 4//21 11//21 9//21
f 1//21 2//21 43//21
f 43//21 2//21 5//21
f 43//21 5//21 56//21
f 56//21 5//21 6//21
f 56//21 6//21 57//21
f 57//21 6//21 70//21
f 4//21 9//21 2//21
f 2//21 9//21 10//21
f 2//21 10//21 5//21
f 5//21 10//21 7//21
f 6//21 8//21 70//21
f 70//21 8//21 72//21
f 8//21 7//21 72//21
f 72//21 7//21 12//21
f 72//21 12//21 11//21
f 10//21 12//21 7//21
f 45//21 48//21 43//21
f 43//21 48//21 50//21
f 43//21 50//21 52//21
f 40//21 72//21 11//21
f 57//21 59//21 56//21
f 56//21 59//21 62//21
f 56//21 62//21 64//21
f 64//21 65//21 56//21
f 56//21 65//21 68//21
f 73//22 74//23 75//11
f 75//11 74//23 76//11
f 75//11 76//11 77//24
f 77//24 76//11 78//24
f 77//24 78//24 79//25
f 73//22 80//26 74//23
f 74//23 80//26 81//26
f 80//26 82//27 81//26
f 81//26 82//27 83//27
f 83//27 82//27 84//28
f 84//28 82//27 85//28
f 84//28 85//28 86//29
f 84//28 86//29 87//29
f 87//29 86//29 88//30
f 87//29 88//30 89//30
f 89//30 88//30 90//31
f 88//30 91//31 90//31
f 90//31 91//31 92//32
f 90//31 92//32 93//32
f 93//32 92//32 94//33
f 93//32 94//33 95//33
f 95//33 94//33 96//34
f 95//33 96//34 97//34
f 97//34 96//34 98//35
f 96//34 99//36 98//35
f 98//35 99//36 100//2
f 98//35 100//2 101//2
f 101//2 100//2 102//37
f 101//2 102//37 103//38
f 103//38 102//37 104//39
f 102//37 105//39 104//39
f 104//39 105//39 106//40
f 104//39 106//40 107//40
f 107//40 106//40 108//41
f 107//40 108//41 109//41
f 109//41 108//41 110//42
f 109//41 110//42 111//42
f 111//42 110//42 112//21
f 110//42 113//21 112//21
f 112//21 113//21 114//43
f 112//21 114//43 115//44
f 115//44 114//43 116//45
f 115//44 116//45 117//45
f 117//45 116//45 118//46
f 116//45 119//46 118//46
f 118//46 119//46 120//25
f 118//46 120//25 79//25
f 79//25 120//25 77//24
f 15//3 98//3 14//3
f 14//3 98//3 101//3
f 14//3 101//3 13//3
f 13//3 101//3 103//3
f 13//3 103//3 36//3
f 36//3 103//3 104//3
f 36//3 104//3 35//3
f 35//3 104//3 107//3
f 35//3 107//3 34//3
f 34//3 107//3 109//3
f 34//3 109//3 33//3
f 33//3 109//3 111//3
f 33//3 111//3 32//3
f 32//3 111//3 112//3
f 32//3 112//3 115//3
f 15//3 16//3 98//3
f 98//3 16//3 97//3
f 16//3 17//3 97//3
f 97//3 17//3 95//3
f 17//3 18//3 95//3
f 95//3 18//3 93//3
f 18//3 19//3 93//3
f 93//3 19//3 90//3
f 19//3 20//3 90//3
f 90//3 20//3 89//3
f 89//3 20//3 87//3
f 87//3 20//3 21//3
f 87//3 21//3 84//3
f 84//3 21//3 22//3
f 84//3 22//3 83//3
f 83//3 22//3 23//3
f 83//3 23//3 81//3
f 81//3 23//3 24//3
f 81//3 24//3 74//3
f 74//3 24//3 25//3
f 74//3 25//3 76//3
f 76//3 25//3 26//3
f 76//3 26//3 27//3
f 76//3 27//3 78//3
f 78//3 27//3 28//3
f 78//3 28//3 79//3
f 79//3 28//3 29//3
f 79//3 29//3 118//3
f 118//3 29//3 30//3
f 118//3 30//3 117//3
f 117//3 30//3 31//3
f 117//3 31//3 115//3
f 115//3 31//3 32//3
f 121//47 122//12 123//12
f 123//12 122//12 124//11
f 123//12 124//11 125//11
f 125//11 124//11 126//48
f 125//11 126//48 127//49
f 127//49 126//48 128//50
f 123//12 129//47 121//47
f 121//47 129//47 130//14
f 121//47 130//14 131//14
f 131//14 130//14 132//15
f 131//14 132//15 133//15
f 133//15 132//15 134//51
f 133//15 134//51 135//17
f 135//17 134//51 136//3
f 134//51 137//3 136//3
f 136//3 137//3 138//4
f 136//3 138//4 139//4
f 139//4 138//4 140//6
f 139//4 140//6 141//6
f 141//6 140//6 142//7
f 140//6 143//7 142//7
f 142//7 143//7 144//8
f 142//7 144//8 145//8
f 145//8 144//8 146//10
f 145//8 146//10 147//10
f 147//10 146//10 148//2
f 146//10 149//2 148//2
f 148//2 149//2 150//52
f 149//2 151//53 150//52
f 150//52 151//53 152//54
f 150//52 152//54 153//54
f 153//54 152//54 154//55
f 153//54 154//55 155//55
f 155//55 154//55 156//56
f 154//55 157//57 156//56
f 156//56 157//57 158//58
f 156//56 158//58 159//58
f 159//58 158//58 160//20
f 159//58 160//20 161//20
f 161//20 160//20 162//59
f 160//20 163//60 162//59
f 162//59 163//60 164//61
f 162//59 164//61 165//61
f 165//61 164//61 166//62
f 165//61 166//62 167//62
f 167//62 166//62 128//50
f 167//62 128//50 168//50
f 168//50 128//50 126//48
f 163//30 158//30 164//30
f 164//30 158//30 157//30
f 164//30 157//30 166//30
f 166//30 157//30 154//30
f 166//30 154//30 128//30
f 128//30 154//30 152//30
f 128//30 152//30 127//30
f 127//30 152//30 151//30
f 127//30 151//30 125//30
f 125//30 151//30 149//30
f 125//30 149//30 123//30
f 123//30 149//30 146//30
f 123//30 146//30 129//30
f 129//30 146//30 144//30
f 129//30 144//30 130//30
f 130//30 144//30 143//30
f 130//30 143//30 132//30
f 132//30 143//30 140//30
f 132//30 140//30 134//30
f 134//30 140//30 138//30
f 134//30 138//30 137//30
f 163//30 160//30 158//30
f 169//63 170//63 171//63
f 171//64 170//64 172//64
f 171//64 172//64 173//64
f 173//65 172//65 174//65
f 173//66 174//66 175//66
f 175//67 176//67 173//67
f 173//68 176//68 177//68
f 173//69 177//69 178//69
f 178//70 179//70 173//70
f 173//71 179//71 180//71
f 173//71 180//71 181//71
f 181//72 180//72 182//72
f 180//73 183//73 182//73
f 182//74 183//74 184//74
f 182//74 184//74 185//74
f 185//75 184//75 186//75
f 185//76 186//76 187//76
f 187//77 186//77 171//77
f 186//77 188//77 171//77
f 171//78 188//78 189//78
f 171//79 189//79 190//79
f 190//80 191//80 171//80
f 171//81 191//81 192//81
f 171//82 192//82 169//82
f 193//20 194//83 172//20
f 172//20 194//83 174//83
f 194//83 195//56 174//83
f 174//83 195//56 175//84
f 175//84 195//56 176//55
f 176//55 195//56 196//55
f 176//55 196//55 197//85
f 176//55 197//85 177//85
f 177//85 197//85 198//86
f 177//85 198//86 178//87
f 178//87 198//86 179//2
f 198//86 199//2 179//2
f 199//2 200//2 179//2
f 179//2 200//2 180//2
f 200//88 201//88 180//88
f 180//88 201//88 183//88
f 201//3 202//3 183//3
f 183//3 202//3 184//3
f 202//89 203//89 184//89
f 184//89 203//89 186//89
f 203//11 204//11 186//11
f 186//11 204//11 188//11
f 204//11 205//90 188//11
f 188//11 205//90 189//91
f 189//91 205//90 190//92
f 190//92 205//90 206//50
f 190//92 206//50 207//62
f 190//92 207//62 191//62
f 191//62 207//62 208//93
f 191//62 208//93 192//94
f 192//94 208//93 209//95
f 192//94 209//95 169//95
f 169//95 209//95 170//20
f 209//95 210//20 170//20
f 210//20 193//20 170//20
f 170//20 193//20 172//20
f 67//21 193//21 55//21
f 55//21 193//21 210//21
f 55//21 210//21 44//21
f 44//21 210//21 46//21
f 67//21 66//21 193//21
f 193//21 66//21 63//21
f 193//21 63//21 61//21
f 60//21 199//21 61//21
f 61//21 199//21 198//21
f 61//21 198//21 197//21
f 60//21 58//21 199//21
f 199//21 58//21 200//21
f 58//21 69//21 200//21
f 200//21 69//21 201//21
f 69//21 71//21 201//21
f 201//21 71//21 38//21
f 201//21 38//21 202//21
f 202//21 38//21 37//21
f 202//21 37//21 203//21
f 203//21 37//21 41//21
f 203//21 41//21 204//21
f 204//21 41//21 54//21
f 204//21 54//21 51//21
f 49//21 210//21 51//21
f 51//21 210//21 209//21
f 51//21 209//21 208//21
f 49//21 47//21 210//21
f 210//21 47//21 46//21
f 197//21 196//21 61//21
f 61//21 196//21 195//21
f 61//21 195//21 194//21
f 194//21 193//21 61//21
f 208//21 207//21 51//21
f 51//21 207//21 206//21
f 51//21 206//21 205//21
f 205//21 204//21 51//21
f 181//96 211//96 173//96
f 173//96 211//96 212//96
f 181//97 182//97 211//97
f 211//98 182//99 213//100
f 211//98 213//100 214//7
f 73//101 75//102 182//103
f 182//104 75//104 77//104
f 182//105 77//105 213//105
f 213//3 77//3 120//3
f 213//3 120//3 119//3
f 119//3 116//3 213//3
f 213//3 116//3 114//3
f 213//3 114//3 113//3
f 213//3 113//3 215//3
f 215//3 113//3 110//3
f 215//3 110//3 108//3
f 108//3 106//3 215//3
f 215//3 106//3 105//3
f 215//3 105//3 102//3
f 215//106 102//106 185//106
f 185//107 102//107 100//107
f 185//108 100//108 99//108
f 99//109 96//110 185//111
f 185//111 96//110 94//112
f 185//111 94//112 92//113
f 92//114 91//115 185//116
f 185//116 91//115 88//117
f 185//116 88//117 182//118
f 182//119 88//120 86//121
f 182//119 86//121 85//122
f 85//122 82//123 182//119
f 182//103 82//124 80//125
f 182//103 80//125 73//101
f 187//126 216//126 185//126
f 185//127 216//128 215//129
f 216//128 217//14 215//129
f 214//33 218//33 211//33
f 211//33 218//33 212//33
f 150//30 218//30 148//30
f 148//30 218//30 214//30
f 148//30 214//30 147//30
f 147//30 214//30 145//30
f 150//30 153//30 218//30
f 218//30 153//30 155//30
f 218//30 155//30 156//30
f 156//30 159//30 218//30
f 218//30 159//30 161//30
f 218//30 161//30 219//30
f 219//30 161//30 162//30
f 219//30 162//30 165//30
f 165//30 167//30 219//30
f 219//30 167//30 168//30
f 219//30 168//30 126//30
f 126//30 124//30 219//30
f 219//30 124//30 217//30
f 124//30 122//30 217//30
f 217//30 122//30 121//30
f 217//30 121//30 131//30
f 217//30 131//30 215//30
f 215//30 131//30 133//30
f 215//30 133//30 135//30
f 135//30 136//30 215//30
f 215//30 136//30 213//30
f 136//30 139//30 213//30
f 213//30 139//30 141//30
f 213//30 141//30 142//30
f 213//30 142//30 214//30
f 214//30 142//30 145//30
f 217//27 216//27 219//27
f 219//27 216//27 220//27
f 171//130 220//130 187//130
f 187//130 220//130 216//130
f 171//131 173//131 220//132
f 220//132 173//131 212//132
f 220//132 212//132 219//20
f 219//20 212//132 218//20
o socket_cl1919_1.001
v 8.000000 -3.092524 2.000000
v 8.000000 -3.092522 15.001000
v 6.000000 -3.092524 2.000000
v 6.000000 -3.092522 15.001000
v 8.000000 0.907476 2.000000
v 8.000000 0.907477 15.001000
v 7.250000 0.157478 16.299999
v 7.250000 -2.342522 16.299999
v 6.000000 0.907477 15.001000
v 6.750000 0.157478 16.299999
v 6.750000 -2.342522 16.299999
v 6.000000 0.907476 2.000000
v -6.000000 -3.092524 2.000000
v -6.000000 -3.092522 15.001000
v -8.000000 -3.092524 2.000000
v -8.000000 -3.092522 15.001000
v -6.000000 0.907476 2.000000
v -6.000000 0.907477 15.001000
v -6.750000 0.157478 16.299999
v -6.750000 -2.342522 16.299999
v -8.000000 0.907477 15.001000
v -7.250000 0.157478 16.299999
v -7.250000 -2.342522 16.299999
v -8.000000 0.907476 2.000000
v 1.000000 0.000000 2.000000
v 1.000000 0.000002 16.000999
v -1.000000 0.000000 2.000000
v -1.000000 0.000002 16.000999
v 1.000000 4.000000 2.000000
v 1.000000 4.000002 16.000999
v 0.250000 3.250002 17.299999
v 0.250000 0.750002 17.299999
v -1.000000 4.000002 16.000999
v -0.250000 3.250002 17.299999
v -0.250000 0.750002 17.299999
v -1.000000 4.000000 2.000000
v 2.736000 6.509998 -9.730000
v 2.958000 6.510000 -9.000002
v 2.077000 6.000000 -9.056000
v 2.108000 6.010000 -9.000000
v 2.160000 6.010000 -8.668000
v 2.150000 6.000000 -8.500000
v 2.167000 6.010000 -8.500000
v 2.160000 6.010000 -8.332000
v 2.077000 6.000000 -7.944000
v 2.108000 6.010000 -8.000000
v 2.958000 6.510000 -8.000002
v 2.736000 6.510000 -7.270000
v 1.862000 6.000000 -7.425002
v 2.337000 6.510000 -6.619000
v 1.520000 6.000000 -6.980000
v 1.786000 6.510000 -6.090002
v 1.075000 6.000000 -6.638000
v 1.120000 6.510000 -5.717000
v 0.556000 6.000000 -6.423000
v 0.382000 6.510000 -5.524002
v 0.000000 6.000000 -6.350000
v -0.382000 6.510000 -5.524002
v -0.556000 6.000000 -6.423000
v -1.120000 6.510000 -5.717000
v -1.075000 6.000000 -6.638000
v -1.786000 6.510000 -6.090002
v -1.520000 6.000000 -6.980000
v -2.337000 6.510000 -6.619000
v -1.862000 6.000000 -7.425002
v -2.736000 6.510000 -7.270000
v -2.077000 6.000000 -7.944000
v -2.958000 6.510000 -8.000002
v -2.108000 6.010000 -8.000000
v -2.160000 6.010000 -8.332000
v -2.150000 6.000000 -8.500000
v -2.160000 6.010000 -8.668000
v -2.077000 6.000000 -9.056000
v -2.108000 6.010000 -9.000000
v -2.958000 6.510000 -9.000002
v -2.736000 6.509998 -9.730000
v -1.862000 5.999998 -9.575000
v -2.337000 6.509998 -10.381002
v -1.520000 5.999998 -10.020000
v -1.786000 6.509998 -10.910002
v -1.075000 5.999998 -10.362000
v -1.120000 6.509998 -11.283002
v -0.556000 5.999998 -10.577000
v -0.382000 6.509998 -11.476002
v 0.000000 5.999998 -10.650000
v 0.382000 6.509998 -11.476002
v 0.556000 5.999998 -10.577000
v 1.120000 6.509998 -11.283002
v 1.075000 5.999998 -10.362000
v 1.786000 6.509998 -10.910002
v 1.520000 5.999998 -10.020000
v 2.337000 6.509998 -10.381002
v 1.862000 5.999998 -9.575000
v 2.958000 7.010000 -8.000002
v -2.958000 7.010000 -8.000002
v 2.958000 7.010000 -9.000002
v -2.958000 7.010000 -9.000002
v 2.736000 7.010000 -7.270000
v -2.736000 7.010000 -7.270000
v 2.337000 7.010000 -6.619000
v -2.337000 7.010000 -6.619000
v 1.786000 7.010000 -6.090002
v -1.786000 7.010000 -6.090002
v 1.120000 7.010000 -5.717000
v -1.120000 7.010000 -5.717000
v 0.382000 7.010000 -5.524002
v -0.382000 7.010000 -5.524002
v 2.736000 7.009998 -9.730000
v 2.337000 7.009998 -10.381002
v 1.786000 7.009998 -10.910002
v 1.120000 7.009998 -11.283002
v 0.382000 7.009998 -11.476002
v -0.382000 7.009998 -11.476002
v -1.120000 7.009998 -11.283002
v -1.786000 7.009998 -10.910002
v -2.337000 7.009998 -10.381002
v -2.736000 7.009998 -9.730000
vn -0.0000 -1.0000 -0.0000
vn 1.0000 -0.0000 -0.0000
vn 0.8660 -0.0000 0.5000
vn -0.8660 -0.0000 0.5000
vn -0.0000 0.8660 0.5000
vn -0.0000 -0.0000 1.0000
vn -0.0000 -0.8660 0.5000
vn -0.0000 1.0000 -0.0000
vn -1.0000 -0.0000 -0.0000
vn 0.4693 -0.8575 -0.2111
vn 0.5073 -0.8575 -0.0861
vn 0.4972 -0.8574 -0.1331
vn 0.5011 -0.8572 -0.1190
vn 0.5132 -0.8573 -0.0400
vn 0.5143 -0.8576 -0.0000
vn 0.5132 -0.8573 0.0400
vn 0.4972 -0.8574 0.1331
vn 0.5011 -0.8572 0.1190
vn 0.5073 -0.8575 0.0861
vn 0.4692 -0.8575 0.2111
vn 0.4461 -0.8573 0.2571
vn 0.4011 -0.8572 0.3231
vn 0.3641 -0.8572 0.3641
vn 0.3062 -0.8576 0.4133
vn 0.2571 -0.8573 0.4461
vn 0.1921 -0.8575 0.4773
vn 0.1331 -0.8574 0.4972
vn 0.0651 -0.8575 0.5103
vn -0.0000 -0.8576 0.5143
vn -0.0651 -0.8575 0.5103
vn -0.1331 -0.8574 0.4972
vn -0.1921 -0.8575 0.4773
vn -0.2571 -0.8573 0.4461
vn -0.3062 -0.8576 0.4133
vn -0.3641 -0.8572 0.3641
vn -0.4011 -0.8572 0.3231
vn -0.4461 -0.8573 0.2571
vn -0.4692 -0.8575 0.2111
vn -0.4972 -0.8574 0.1331
vn -0.5073 -0.8575 0.0861
vn -0.5011 -0.8572 0.1190
vn -0.5132 -0.8573 0.0400
vn -0.5144 -0.8576 -0.0000
vn -0.5132 -0.8574 -0.0400
vn -0.4972 -0.8574 -0.1331
vn -0.5011 -0.8572 -0.1190
vn -0.5073 -0.8575 -0.0861
vn -0.4693 -0.8575 -0.2111
vn -0.4461 -0.8573 -0.2571
vn -0.4011 -0.8572 -0.3231
vn -0.3641 -0.8572 -0.3641
vn -0.3062 -0.8576 -0.4133
vn -0.2571 -0.8573 -0.4461
vn -0.1921 -0.8575 -0.4773
vn -0.1331 -0.8574 -0.4972
vn -0.0651 -0.8575 -0.5103
vn -0.0000 -0.8576 -0.5143
vn 0.0651 -0.8575 -0.5103
vn 0.1331 -0.8574 -0.4972
vn 0.1921 -0.8575 -0.4773
vn 0.2571 -0.8573 -0.4461
vn 0.3062 -0.8576 -0.4133
vn 0.3641 -0.8572 -0.3641
vn 0.4011 -0.8572 -0.3231
vn 0.4461 -0.8573 -0.2571
vn -0.0000 -0.0000 -1.0000
vn 0.9860 -0.0000 0.1670
vn 0.9121 -0.0000 0.4101
vn 0.7789 -0.0000 0.6271
vn 0.5954 -0.0000 0.8034
vn 0.3730 -0.0000 0.9278
vn 0.1272 -0.0000 0.9919
vn 0.1270 -0.0000 0.9919
vn -0.1272 -0.0000 0.9919
vn -0.3730 -0.0000 0.9278
vn -0.5954 -0.0000 0.8034
vn -0.7789 -0.0000 0.6271
vn -0.9121 -0.0000 0.4101
vn -0.9860 -0.0000 0.1670
vn 0.9860 -0.0000 -0.1670
vn 0.9121 -0.0000 -0.4101
vn 0.7789 -0.0000 -0.6271
vn 0.5954 -0.0000 -0.8034
vn 0.3729 -0.0000 -0.9279
vn 0.3730 -0.0000 -0.9278
vn 0.1270 -0.0000 -0.9919
vn -0.1272 -0.0000 -0.9919
vn -0.1270 -0.0000 -0.9919
vn -0.3730 -0.0000 -0.9278
vn -0.5954 -0.0000 -0.8034
vn -0.7789 -0.0000 -0.6271
vn -0.9121 -0.0000 -0.4101
vn -0.9860 -0.0000 -0.1670
s 1
usemtl socket_cl1919_color_1
f 221//133 222//133 223//133
f 223//133 222//133 224//133
f 221//134 225//134 222//134
f 222//134 225//134 226//134
f 226//135 227//135 222//135
f 222//135 227//135 228//135
f 229//136 224//136 230//136
f 230//136 224//136 231//136
f 230//137 227//137 229//137
f 229//137 227//137 226//137
f 230//138 231//138 227//138
f 227//138 231//138 228//138
f 231//139 224//139 228//139
f 228//139 224//139 222//139
f 232//140 229//140 225//140
f 225//140 229//140 226//140
f 232//141 223//141 229//141
f 229//141 223//141 224//141
f 233//133 234//133 235//133
f 235//133 234//133 236//133
f 233//134 237//134 234//134
f 234//134 237//134 238//134
f 238//135 239//135 234//135
f 234//135 239//135 240//135
f 241//136 236//136 242//136
f 242//136 236//136 243//136
f 242//137 239//137 241//137
f 241//137 239//137 238//137
f 242//138 243//138 239//138
f 239//138 243//138 240//138
f 243//139 236//139 240//139
f 240//139 236//139 234//139
f 244//140 241//140 237//140
f 237//140 241//140 238//140
f 244//141 235//141 241//141
f 241//141 235//141 236//141
f 245//133 246//133 247//133
f 247//133 246//133 248//133
f 245//134 249//134 246//134
f 246//134 249//134 250//134
f 250//135 251//135 246//135
f 246//135 251//135 252//135
f 253//136 248//136 254//136
f 254//136 248//136 255//136
f 254//137 251//137 253//137
f 253//137 251//137 250//137
f 254//138 255//138 251//138
f 251//138 255//138 252//138
f 255//139 248//139 252//139
f 252//139 248//139 246//139
f 256//140 253//140 249//140
f 249//140 253//140 250//140
f 256//141 247//141 253//141
f 253//141 247//141 248//141
f 257//142 258//143 259//144
f 259//144 258//143 260//145
f 259//144 260//145 261//146
f 259//144 261//146 262//147
f 262//147 261//146 263//147
f 262//147 263//147 264//148
f 262//147 264//148 265//149
f 265//149 264//148 266//150
f 265//149 266//150 267//151
f 267//151 268//152 265//149
f 265//149 268//152 269//153
f 268//152 270//154 269//153
f 269//153 270//154 271//155
f 270//154 272//156 271//155
f 271//155 272//156 273//157
f 272//156 274//158 273//157
f 273//157 274//158 275//159
f 274//158 276//160 275//159
f 275//159 276//160 277//161
f 276//160 278//162 277//161
f 277//161 278//162 279//163
f 278//162 280//164 279//163
f 279//163 280//164 281//165
f 280//164 282//166 281//165
f 281//165 282//166 283//167
f 282//166 284//168 283//167
f 283//167 284//168 285//169
f 284//168 286//170 285//169
f 285//169 286//170 287//171
f 286//170 288//172 287//171
f 287//171 288//172 289//173
f 287//171 289//173 290//174
f 287//171 290//174 291//175
f 291//175 290//174 292//176
f 291//175 292//176 293//177
f 293//177 292//176 294//178
f 293//177 294//178 295//179
f 295//179 296//180 293//177
f 293//177 296//180 297//181
f 296//180 298//182 297//181
f 297//181 298//182 299//183
f 298//182 300//184 299//183
f 299//183 300//184 301//185
f 300//184 302//186 301//185
f 301//185 302//186 303//187
f 302//186 304//188 303//187
f 303//187 304//188 305//189
f 304//188 306//190 305//189
f 305//189 306//190 307//191
f 306//190 308//192 307//191
f 307//191 308//192 309//193
f 308//192 310//194 309//193
f 309//193 310//194 311//195
f 310//194 312//196 311//195
f 311//195 312//196 313//197
f 312//196 257//142 313//197
f 313//197 257//142 259//144
f 267//198 266//198 314//198
f 314//198 266//198 289//198
f 314//198 289//198 315//198
f 315//198 289//198 288//198
f 264//140 261//140 266//140
f 266//140 261//140 260//140
f 266//140 260//140 289//140
f 289//140 260//140 294//140
f 289//140 294//140 290//140
f 290//140 294//140 292//140
f 264//140 263//140 261//140
f 258//138 316//138 260//138
f 260//138 316//138 317//138
f 260//138 317//138 294//138
f 294//138 317//138 295//138
f 314//140 315//140 318//140
f 318//140 315//140 319//140
f 318//140 319//140 320//140
f 320//140 319//140 321//140
f 320//140 321//140 322//140
f 322//140 321//140 323//140
f 322//140 323//140 324//140
f 324//140 323//140 325//140
f 324//140 325//140 326//140
f 326//140 325//140 327//140
f 267//199 314//199 268//200
f 268//200 314//199 318//200
f 268//200 318//200 320//201
f 268//200 320//201 270//201
f 270//201 320//201 322//202
f 270//201 322//202 272//202
f 272//202 322//202 274//203
f 322//202 324//203 274//203
f 274//203 324//203 326//204
f 274//203 326//204 276//205
f 276//205 326//204 327//206
f 276//205 327//206 278//206
f 278//206 327//206 325//207
f 278//206 325//207 280//207
f 280//207 325//207 282//208
f 325//207 323//208 282//208
f 282//208 323//208 321//209
f 282//208 321//209 284//209
f 284//209 321//209 319//210
f 284//209 319//210 286//210
f 286//210 319//210 288//211
f 319//210 315//211 288//211
f 316//212 258//212 328//213
f 328//213 258//212 257//213
f 328//213 257//213 312//214
f 328//213 312//214 329//214
f 329//214 312//214 310//215
f 329//214 310//215 330//215
f 330//215 310//215 331//216
f 310//215 308//217 331//216
f 331//216 308//217 306//218
f 331//216 306//218 332//218
f 332//218 306//218 304//219
f 332//218 304//219 333//220
f 333//220 304//219 302//221
f 333//220 302//221 334//221
f 334//221 302//221 335//222
f 302//221 300//222 335//222
f 335//222 300//222 298//223
f 335//222 298//223 336//223
f 336//223 298//223 296//224
f 336//223 296//224 337//224
f 337//224 296//224 317//225
f 296//224 295//225 317//225
f 317//140 316//140 337//140
f 337//140 316//140 328//140
f 337//140 328//140 336//140
f 336//140 328//140 329//140
f 336//140 329//140 335//140
f 335//140 329//140 330//140
f 335//140 330//140 334//140
f 334//140 330//140 331//140
f 334//140 331//140 333//140
f 333//140 331//140 332//140
