mtllib socket_cl1919.mtl
o socket_cl1919_1
v 8 -4 2
v 8 -4 15.001
v 6 -4 2
v 6 -4 15.001
v 8 0 2
v 8 0 15.001
v 7.25 -0.75 16.3
v 7.25 -3.25 16.3
v 6 0 15.001
v 6.75 -0.75 16.3
v 6.75 -3.25 16.3
v 6 0 2
v -6 -4 2
v -6 -4 15.001
v -8 -4 2
v -8 -4 15.001
v -6 0 2
v -6 0 15.001
v -6.75 -0.75 16.3
v -6.75 -3.25 16.3
v -8 0 15.001
v -7.25 -0.75 16.3
v -7.25 -3.25 16.3
v -8 0 2
v 1 0 2
v 1 0 16.001
v -1 0 2
v -1 0 16.001
v 1 4 2
v 1 4 16.001
v 0.25 3.25 17.3
v 0.25 0.75 17.3
v -1 4 16.001
v -0.25 3.25 17.3
v -0.25 0.75 17.3
v -1 4 2
v 2.736 6.51 -9.73
v 2.958 6.51 -9
v 2.077 6 -9.056
v 2.108 6.01 -9
v 2.16 6.01 -8.668
v 2.15 6 -8.5
v 2.167 6.01 -8.5
v 2.16 6.01 -8.332
v 2.077 6 -7.944
v 2.108 6.01 -8
v 2.958 6.51 -8
v 2.736 6.51 -7.27
v 1.862 6 -7.425
v 2.337 6.51 -6.619
v 1.52 6 -6.98
v 1.786 6.51 -6.09
v 1.075 6 -6.638
v 1.12 6.51 -5.717
v 0.556 6 -6.423
v 0.382 6.51 -5.524
v 0 6 -6.35
v -0.382 6.51 -5.524
v -0.556 6 -6.423
v -1.12 6.51 -5.717
v -1.075 6 -6.638
v -1.786 6.51 -6.09
v -1.52 6 -6.98
v -2.337 6.51 -6.619
v -1.862 6 -7.425
v -2.736 6.51 -7.27
v -2.077 6 -7.944
v -2.958 6.51 -8
v -2.108 6.01 -8
v -2.16 6.01 -8.332
v -2.15 6 -8.5
v -2.16 6.01 -8.668
v -2.077 6 -9.056
v -2.108 6.01 -9
v -2.958 6.51 -9
v -2.736 6.51 -9.73
v -1.862 6 -9.575
v -2.337 6.51 -10.381
v -1.52 6 -10.02
v -1.786 6.51 -10.91
v -1.075 6 -10.362
v -1.12 6.51 -11.283
v -0.556 6 -10.577
v -0.382 6.51 -11.476
v 0 6 -10.65
v 0.382 6.51 -11.476
v 0.556 6 -10.577
v 1.12 6.51 -11.283
v 1.075 6 -10.362
v 1.786 6.51 -10.91
v 1.52 6 -10.02
v 2.337 6.51 -10.381
v 1.862 6 -9.575
v 2.958 7.01 -8
v -2.958 7.01 -8
v 2.958 7.01 -9
v -2.958 7.01 -9
v 2.736 7.01 -7.27
v -2.736 7.01 -7.27
v 2.337 7.01 -6.619
v -2.337 7.01 -6.619
v 1.786 7.01 -6.09
v -1.786 7.01 -6.09
v 1.12 7.01 -5.717
v -1.12 7.01 -5.717
v 0.382 7.01 -5.524
v -0.382 7.01 -5.524
v 2.736 7.01 -9.73
v 2.337 7.01 -10.381
v 1.786 7.01 -10.91
v 1.12 7.01 -11.283
v 0.382 7.01 -11.476
v -0.382 7.01 -11.476
v -1.12 7.01 -11.283
v -1.786 7.01 -10.91
v -2.337 7.01 -10.381
v -2.736 7.01 -9.73
v 11.75 2.25 18.3
v 6 8 18.3
v 11.75 2.25 2
v 6 8 2
v 11.75 -6.5 18.3
v 11.75 -6.5 2
v 10.25 -8 2
v 10.25 -8 18.3
v 10.638 -7.949 2
v 10.638 -7.949 18.3
v 11 -7.799 18.3
v 11 -7.799 2
v 11.311 -7.561 18.3
v 11.311 -7.561 2
v 11.549 -7.25 18.3
v 11.549 -7.25 2
v 11.699 -6.888 2
v 11.699 -6.888 18.3
v -10.25 -8 18.3
v -10.25 -8 2
v -11.75 -6.5 2
v -11.75 -6.5 18.3
v -11.699 -6.888 2
v -11.699 -6.888 18.3
v -11.549 -7.25 18.3
v -11.549 -7.25 2
v -11.311 -7.561 18.3
v -11.311 -7.561 2
v -11 -7.799 2
v -11 -7.799 18.3
v -10.638 -7.949 18.3
v -10.638 -7.949 2
v -11.75 2.25 18.3
v -11.75 2.25 2
v -6 8 18.3
v -6 8 2
v -3.381 8 -7.594
v -3.381 6 -7.594
v -3.5 8 -8.5
v -3.5 6 -8.5
v -3.381 8 -9.406
v -3.381 6 -9.406
v -3.031 6 -10.25
v -3.031 8 -6.75
v -3.031 6 -6.75
v -2.475 8 -6.025
v -2.475 6 -6.025
v -1.75 6 -5.469
v -1.75 8 -5.469
v -0.906 8 -5.119
v -0.906 6 -5.119
v 0 8 -5
v 0 6 -5
v 0.906 6 -5.119
v 0.906 8 -5.119
v 1.75 8 -5.469
v 1.75 6 -5.469
v 2.475 8 -6.025
v 2.475 6 -6.025
v 3.031 8 -6.75
v 3.031 6 -6.75
v 3.381 6 -7.594
v 3.381 8 -7.594
v 3.5 8 -8.5
v 3.5 6 -8.5
v 3.381 8 -9.406
v 3.381 6 -9.406
v 3.031 6 -10.25
v 3.031 8 -10.25
v 2.475 8 -10.975
v 2.475 6 -10.975
v 1.75 8 -11.531
v 1.75 6 -11.531
v 0.906 8 -11.881
v 0.906 6 -11.881
v 0 6 -12
v 0 8 -12
v -0.906 8 -11.881
v -0.906 6 -11.881
v -1.75 8 -11.531
v -1.75 6 -11.531
v -2.475 6 -10.975
v -2.475 8 -10.975
v -3.031 8 -10.25
v 4.33 2.5 -35.5
v 4.83 1.294 -35.5
v 4.83 1.294 -61
v 5 0 -35.5
v 5 0 -61
v 4.83 -1.294 -35.5
v 4.83 -1.294 -61
v 4.33 -2.5 -61
v 4.33 2.5 -61
v 3.536 3.536 -61
v 3.536 3.536 -35.5
v 2.5 4.33 -61
v 2.5 4.33 -35.5
v 1.294 4.83 -61
v 1.294 4.83 -35.5
v 0 5 -35.5
v 0 5 -61
v -1.294 4.83 -61
v -1.294 4.83 -35.5
v -2.5 4.33 -61
v -2.5 4.33 -35.5
v -3.536 3.536 -35.5
v -3.536 3.536 -61
v -4.33 2.5 -61
v -4.33 2.5 -35.5
v -4.83 1.294 -61
v -4.83 1.294 -35.5
v -5 0 -35.5
v -5 0 -61
v -4.83 -1.294 -35.5
v -4.83 -1.294 -61
v -4.33 -2.5 -61
v -4.33 -2.5 -35.5
v -3.536 -3.536 -61
v -3.536 -3.536 -35.5
v -2.5 -4.33 -35.5
v -2.5 -4.33 -61
v -1.294 -4.83 -61
v -1.294 -4.83 -35.5
v 0 -5 -61
v 0 -5 -35.5
v 1.294 -4.83 -35.5
v 1.294 -4.83 -61
v 2.5 -4.33 -61
v 2.5 -4.33 -35.5
v 3.536 -3.536 -61
v 3.536 -3.536 -35.5
v 4.33 -2.5 -35.5
v 12.862 -9.452 0
v 12.5 -9.5 0
v 12.5 -8 0
v -12.5 -9.5 0
v -12.5 -8 0
v -12.862 -9.452 0
v -13.2 -9.312 0
v -13.49 -9.09 0
v -13.712 -8.8 0
v -13.852 -8.462 0
v -13.9 -8.1 0
v -13.9 2.55 0
v -12.5 2.95 0
v -7.45 8 0
v -6.95 9.5 0
v 6.95 9.5 0
v 7.45 8 0
v 13.9 2.55 0
v 12.5 2.95 0
v 13.9 -8.1 0
v 13.852 -8.462 0
v 13.712 -8.8 0
v 13.49 -9.09 0
v 13.2 -9.312 0
v -12.5 -9.5 18.3
v -12.862 -9.452 18.3
v -13.2 -9.312 18.3
v -13.49 -9.09 18.3
v -13.712 -8.8 18.3
v -13.852 -8.462 18.3
v -13.9 -8.1 18.3
v -13.9 2.55 18.3
v -6.95 9.5 18.3
v 6.95 9.5 18.3
v 13.9 2.55 18.3
v 13.9 -8.1 18.3
v 13.852 -8.462 18.3
v 13.712 -8.8 18.3
v 13.49 -9.09 18.3
v 13.2 -9.312 18.3
v 12.862 -9.452 18.3
v 12.5 -9.5 18.3
v -12.5 2.95 -30.5
v -12.5 -8 -30.5
v -7.45 8 -35.5
v -7.5 7.95 -35.5
v 7.45 8 -35.5
v 12.5 2.95 -30.5
v 7.5 7.95 -35.5
v -7.5 -8 -35.5
v 7.5 -8 -35.5
v 12.5 -8 -30.5
vn 0 -1 0
vn 1 0 0
vn 0.866 0 0.5
vn -0.866 0 0.5
vn 0 0.866 0.5
vn 0 0 1
vn 0 -0.866 0.5
vn 0 1 0
vn -1 0 0
vn 0.469 -0.857 -0.211
vn 0.507 -0.857 -0.086
vn 0.497 -0.857 -0.133
vn 0.501 -0.857 -0.119
vn 0.513 -0.857 -0.04
vn 0.514 -0.857 0
vn 0.513 -0.857 0.04
vn 0.497 -0.857 0.133
vn 0.501 -0.857 0.119
vn 0.507 -0.857 0.086
vn 0.469 -0.857 0.211
vn 0.446 -0.857 0.257
vn 0.401 -0.857 0.323
vn 0.364 -0.857 0.364
vn 0.306 -0.857 0.413
vn 0.257 -0.857 0.446
vn 0.192 -0.857 0.477
vn 0.133 -0.857 0.497
vn 0.065 -0.857 0.51
vn 0 -0.857 0.514
vn -0.065 -0.857 0.51
vn -0.133 -0.857 0.497
vn -0.192 -0.857 0.477
vn -0.257 -0.857 0.446
vn -0.306 -0.857 0.413
vn -0.364 -0.857 0.364
vn -0.401 -0.857 0.323
vn -0.446 -0.857 0.257
vn -0.469 -0.857 0.211
vn -0.497 -0.857 0.133
vn -0.507 -0.857 0.086
vn -0.501 -0.857 0.119
vn -0.513 -0.857 0.04
vn -0.514 -0.857 0
vn -0.513 -0.857 -0.04
vn -0.497 -0.857 -0.133
vn -0.501 -0.857 -0.119
vn -0.507 -0.857 -0.086
vn -0.469 -0.857 -0.211
vn -0.446 -0.857 -0.257
vn -0.401 -0.857 -0.323
vn -0.364 -0.857 -0.364
vn -0.306 -0.857 -0.413
vn -0.257 -0.857 -0.446
vn -0.192 -0.857 -0.477
vn -0.133 -0.857 -0.497
vn -0.065 -0.857 -0.51
vn 0 -0.857 -0.514
vn 0.065 -0.857 -0.51
vn 0.133 -0.857 -0.497
vn 0.192 -0.857 -0.477
vn 0.257 -0.857 -0.446
vn 0.306 -0.857 -0.413
vn 0.364 -0.857 -0.364
vn 0.401 -0.857 -0.323
vn 0.446 -0.857 -0.257
vn 0 0 -1
vn 0.986 0 0.167
vn 0.912 0 0.41
vn 0.779 0 0.627
vn 0.595 0 0.803
vn 0.373 0 0.928
vn 0.127 0 0.992
vn -0.127 0 0.992
vn -0.373 0 0.928
vn -0.595 0 0.803
vn -0.779 0 0.627
vn -0.912 0 0.41
vn -0.986 0 0.167
vn 0.986 0 -0.167
vn 0.912 0 -0.41
vn 0.779 0 -0.627
vn 0.595 0 -0.803
vn 0.373 0 -0.928
vn 0.127 0 -0.992
vn -0.127 0 -0.992
vn -0.373 0 -0.928
vn -0.595 0 -0.803
vn -0.779 0 -0.627
vn -0.912 0 -0.41
vn -0.986 0 -0.167
vn -0.707 -0.707 0
vn -0.259 0.966 0
vn -0.5 0.866 0
vn -0.707 0.707 0
vn -0.866 0.5 0
vn -0.966 0.259 0
vn 0.966 0.259 0
vn 0.866 0.5 0
vn 0.707 0.707 0
vn 0.5 0.866 0
vn 0.259 0.966 0
vn 0.707 -0.707 0
vn 0.966 0 -0.259
vn 0.966 0 0.259
vn 0.866 0 -0.5
vn 0.707 0 -0.707
vn 0.5 0 -0.866
vn 0.259 0 -0.966
vn -0.259 0 -0.966
vn -0.5 0 -0.866
vn -0.707 0 -0.707
vn -0.866 0 -0.5
vn -0.966 0 -0.259
vn -0.966 0 0.259
vn -0.707 0 0.707
vn -0.5 0 0.866
vn -0.259 0 0.966
vn 0.259 0 0.966
vn 0.5 0 0.866
vn 0.707 0 0.707
vn 0.966 -0.259 0
vn 0.866 -0.5 0
vn -0.966 -0.259 0
vn -0.866 -0.5 0
vn -0.5 -0.866 0
vn -0.259 -0.966 0
vn 0.259 -0.966 0
vn 0.5 -0.866 0
g socket_cl1919_1
usemtl socket_cl1919_color_1
f 1//1 2//1 3//1
f 3//1 2//1 4//1
f 1//2 5//2 2//2
f 2//2 5//2 6//2
f 6//3 7//3 2//3
f 2//3 7//3 8//3
f 9//4 4//4 10//4
f 10//4 4//4 11//4
f 10//5 7//5 9//5
f 9//5 7//5 6//5
f 10//6 11//6 7//6
f 7//6 11//6 8//6
f 11//7 4//7 8//7
f 8//7 4//7 2//7
f 12//8 9//8 5//8
f 5//8 9//8 6//8
f 12//9 3//9 9//9
f 9//9 3//9 4//9
f 13//1 14//1 15//1
f 15//1 14//1 16//1
f 13//2 17//2 14//2
f 14//2 17//2 18//2
f 18//3 19//3 14//3
f 14//3 19//3 20//3
f 21//4 16//4 22//4
f 22//4 16//4 23//4
f 22//5 19//5 21//5
f 21//5 19//5 18//5
f 22//6 23//6 19//6
f 19//6 23//6 20//6
f 23//7 16//7 20//7
f 20//7 16//7 14//7
f 24//8 21//8 17//8
f 17//8 21//8 18//8
f 24//9 15//9 21//9
f 21//9 15//9 16//9
f 25//1 26//1 27//1
f 27//1 26//1 28//1
f 25//2 29//2 26//2
f 26//2 29//2 30//2
f 30//3 31//3 26//3
f 26//3 31//3 32//3
f 33//4 28//4 34//4
f 34//4 28//4 35//4
f 34//5 31//5 33//5
f 33//5 31//5 30//5
f 34//6 35//6 31//6
f 31//6 35//6 32//6
f 35//7 28//7 32//7
f 32//7 28//7 26//7
f 36//8 33//8 29//8
f 29//8 33//8 30//8
f 36//9 27//9 33//9
f 33//9 27//9 28//9
f 37//10 38//11 39//12
f 39//12 38//11 40//13
f 39//12 40//13 41//14
f 39//12 41//14 42//15
f 42//15 41//14 43//15
f 42//15 43//15 44//16
f 42//15 44//16 45//17
f 45//17 44//16 46//18
f 45//17 46//18 47//19
f 47//19 48//20 45//17
f 45//17 48//20 49//21
f 48//20 50//22 49//21
f 49//21 50//22 51//23
f 50//22 52//24 51//23
f 51//23 52//24 53//25
f 52//24 54//26 53//25
f 53//25 54//26 55//27
f 54//26 56//28 55//27
f 55//27 56//28 57//29
f 56//28 58//30 57//29
f 57//29 58//30 59//31
f 58//30 60//32 59//31
f 59//31 60//32 61//33
f 60//32 62//34 61//33
f 61//33 62//34 63//35
f 62//34 64//36 63//35
f 63//35 64//36 65//37
f 64//36 66//38 65//37
f 65//37 66//38 67//39
f 66//38 68//40 67//39
f 67//39 68//40 69//41
f 67//39 69//41 70//42
f 67//39 70//42 71//43
f 71//43 70//42 72//44
f 71//43 72//44 73//45
f 73//45 72//44 74//46
f 73//45 74//46 75//47
f 75//47 76//48 73//45
f 73//45 76//48 77//49
f 76//48 78//50 77//49
f 77//49 78//50 79//51
f 78//50 80//52 79//51
f 79//51 80//52 81//53
f 80//52 82//54 81//53
f 81//53 82//54 83//55
f 82//54 84//56 83//55
f 83//55 84//56 85//57
f 84//56 86//58 85//57
f 85//57 86//58 87//59
f 86//58 88//60 87//59
f 87//59 88//60 89//61
f 88//60 90//62 89//61
f 89//61 90//62 91//63
f 90//62 92//64 91//63
f 91//63 92//64 93//65
f 92//64 37//10 93//65
f 93//65 37//10 39//12
f 47//66 46//66 94//66
f 94//66 46//66 69//66
f 94//66 69//66 95//66
f 95//66 69//66 68//66
f 44//8 41//8 46//8
f 46//8 41//8 40//8
f 46//8 40//8 69//8
f 69//8 40//8 74//8
f 69//8 74//8 70//8
f 70//8 74//8 72//8
f 44//8 43//8 41//8
f 38//6 96//6 40//6
f 40//6 96//6 97//6
f 40//6 97//6 74//6
f 74//6 97//6 75//6
f 94//8 95//8 98//8
f 98//8 95//8 99//8
f 98//8 99//8 100//8
f 100//8 99//8 101//8
f 100//8 101//8 102//8
f 102//8 101//8 103//8
f 102//8 103//8 104//8
f 104//8 103//8 105//8
f 104//8 105//8 106//8
f 106//8 105//8 107//8
f 47//67 94//67 48//68
f 48//68 94//67 98//68
f 48//68 98//68 100//69
f 48//68 100//69 50//69
f 50//69 100//69 102//70
f 50//69 102//70 52//70
f 52//70 102//70 54//71
f 102//70 104//71 54//71
f 54//71 104//71 106//72
f 54//71 106//72 56//72
f 56//72 106//72 107//73
f 56//72 107//73 58//73
f 58//73 107//73 105//74
f 58//73 105//74 60//74
f 60//74 105//74 62//75
f 105//74 103//75 62//75
f 62//75 103//75 101//76
f 62//75 101//76 64//76
f 64//76 101//76 99//77
f 64//76 99//77 66//77
f 66//77 99//77 68//78
f 99//77 95//78 68//78
f 96//79 38//79 108//80
f 108//80 38//79 37//80
f 108//80 37//80 92//81
f 108//80 92//81 109//81
f 109//81 92//81 90//82
f 109//81 90//82 110//82
f 110//82 90//82 111//83
f 90//82 88//83 111//83
f 111//83 88//83 86//84
f 111//83 86//84 112//84
f 112//84 86//84 84//85
f 112//84 84//85 113//85
f 113//85 84//85 82//86
f 113//85 82//86 114//86
f 114//86 82//86 115//87
f 82//86 80//87 115//87
f 115//87 80//87 78//88
f 115//87 78//88 116//88
f 116//88 78//88 76//89
f 116//88 76//89 117//89
f 117//89 76//89 97//90
f 76//89 75//90 97//90
f 97//8 96//8 117//8
f 117//8 96//8 108//8
f 117//8 108//8 116//8
f 116//8 108//8 109//8
f 116//8 109//8 115//8
f 115//8 109//8 110//8
f 115//8 110//8 114//8
f 114//8 110//8 111//8
f 114//8 111//8 113//8
f 113//8 111//8 112//8
usemtl socket_cl1919_color_2
f 118//91 119//91 120//91
f 120//91 119//91 121//91
f 122//9 118//9 123//9
f 123//9 118//9 120//9
f 124//8 125//8 126//92
f 126//92 125//8 127//92
f 126//92 127//92 128//93
f 126//92 128//93 129//93
f 129//93 128//93 130//94
f 129//93 130//94 131//94
f 131//94 130//94 132//95
f 131//94 132//95 133//95
f 133//95 132//95 134//96
f 132//95 135//96 134//96
f 134//96 135//96 122//9
f 134//96 122//9 123//9
f 136//8 125//8 137//8
f 137//8 125//8 124//8
f 138//2 139//2 140//97
f 140//97 139//2 141//97
f 140//97 141//97 142//98
f 140//97 142//98 143//98
f 143//98 142//98 144//99
f 143//98 144//99 145//99
f 145//99 144//99 146//100
f 144//99 147//100 146//100
f 146//100 147//100 148//101
f 146//100 148//101 149//101
f 149//101 148//101 136//8
f 149//101 136//8 137//8
f 150//2 139//2 151//2
f 151//2 139//2 138//2
f 152//102 150//102 153//102
f 153//102 150//102 151//102
f 119//1 152//1 121//1
f 121//1 152//1 153//1
f 133//6 134//6 124//6
f 124//6 134//6 123//6
f 124//6 123//6 1//6
f 1//6 123//6 120//6
f 1//6 120//6 5//6
f 5//6 120//6 121//6
f 5//6 121//6 12//6
f 12//6 121//6 29//6
f 12//6 29//6 25//6
f 1//6 3//6 124//6
f 124//6 3//6 13//6
f 124//6 13//6 137//6
f 137//6 13//6 15//6
f 137//6 15//6 138//6
f 138//6 15//6 151//6
f 12//6 25//6 3//6
f 3//6 25//6 27//6
f 3//6 27//6 13//6
f 13//6 27//6 17//6
f 15//6 24//6 151//6
f 151//6 24//6 153//6
f 24//6 17//6 153//6
f 153//6 17//6 36//6
f 153//6 36//6 29//6
f 27//6 36//6 17//6
f 126//6 129//6 124//6
f 124//6 129//6 131//6
f 124//6 131//6 133//6
f 121//6 153//6 29//6
f 138//6 140//6 137//6
f 137//6 140//6 143//6
f 137//6 143//6 145//6
f 145//6 146//6 137//6
f 137//6 146//6 149//6
f 154//103 155//103 156//2
f 156//2 155//103 157//2
f 156//2 157//2 158//104
f 158//104 157//2 159//104
f 158//104 159//104 160//3
f 154//103 161//105 155//103
f 155//103 161//105 162//105
f 161//105 163//106 162//105
f 162//105 163//106 164//106
f 164//106 163//106 165//107
f 165//107 163//106 166//107
f 165//107 166//107 167//108
f 165//107 167//108 168//108
f 168//108 167//108 169//66
f 168//108 169//66 170//66
f 170//66 169//66 171//109
f 169//66 172//109 171//109
f 171//109 172//109 173//110
f 171//109 173//110 174//110
f 174//110 173//110 175//111
f 174//110 175//111 176//111
f 176//111 175//111 177//112
f 176//111 177//112 178//112
f 178//112 177//112 179//113
f 177//112 180//113 179//113
f 179//113 180//113 181//9
f 179//113 181//9 182//9
f 182//9 181//9 183//114
f 182//9 183//114 184//114
f 184//114 183//114 185//4
f 183//114 186//4 185//4
f 185//4 186//4 187//115
f 185//4 187//115 188//115
f 188//115 187//115 189//116
f 188//115 189//116 190//116
f 190//116 189//116 191//117
f 190//116 191//117 192//117
f 192//117 191//117 193//6
f 191//117 194//6 193//6
f 193//6 194//6 195//118
f 193//6 195//118 196//118
f 196//118 195//118 197//119
f 196//118 197//119 198//119
f 198//119 197//119 199//120
f 197//119 200//120 199//120
f 199//120 200//120 201//3
f 199//120 201//3 160//3
f 160//3 201//3 158//104
f 45//8 179//8 42//8
f 42//8 179//8 182//8
f 42//8 182//8 39//8
f 39//8 182//8 184//8
f 39//8 184//8 93//8
f 93//8 184//8 185//8
f 93//8 185//8 91//8
f 91//8 185//8 188//8
f 91//8 188//8 89//8
f 89//8 188//8 190//8
f 89//8 190//8 87//8
f 87//8 190//8 192//8
f 87//8 192//8 85//8
f 85//8 192//8 193//8
f 85//8 193//8 196//8
f 45//8 49//8 179//8
f 179//8 49//8 178//8
f 49//8 51//8 178//8
f 178//8 51//8 176//8
f 51//8 53//8 176//8
f 176//8 53//8 174//8
f 53//8 55//8 174//8
f 174//8 55//8 171//8
f 55//8 57//8 171//8
f 171//8 57//8 170//8
f 170//8 57//8 168//8
f 168//8 57//8 59//8
f 168//8 59//8 165//8
f 165//8 59//8 61//8
f 165//8 61//8 164//8
f 164//8 61//8 63//8
f 164//8 63//8 162//8
f 162//8 63//8 65//8
f 162//8 65//8 155//8
f 155//8 65//8 67//8
f 155//8 67//8 157//8
f 157//8 67//8 71//8
f 157//8 71//8 73//8
f 157//8 73//8 159//8
f 159//8 73//8 77//8
f 159//8 77//8 160//8
f 160//8 77//8 79//8
f 160//8 79//8 199//8
f 199//8 79//8 81//8
f 199//8 81//8 198//8
f 198//8 81//8 83//8
f 198//8 83//8 196//8
f 196//8 83//8 85//8
f 202//98 203//97 204//97
f 204//97 203//97 205//2
f 204//97 205//2 206//2
f 206//2 205//2 207//121
f 206//2 207//121 208//121
f 208//121 207//121 209//122
f 204//97 210//98 202//98
f 202//98 210//98 211//99
f 202//98 211//99 212//99
f 212//99 211//99 213//100
f 212//99 213//100 214//100
f 214//100 213//100 215//101
f 214//100 215//101 216//101
f 216//101 215//101 217//8
f 215//101 218//8 217//8
f 217//8 218//8 219//92
f 217//8 219//92 220//92
f 220//92 219//92 221//93
f 220//92 221//93 222//93
f 222//93 221//93 223//94
f 221//93 224//94 223//94
f 223//94 224//94 225//95
f 223//94 225//95 226//95
f 226//95 225//95 227//96
f 226//95 227//96 228//96
f 228//96 227//96 229//9
f 227//96 230//9 229//9
f 229//9 230//9 231//123
f 230//9 232//123 231//123
f 231//123 232//123 233//124
f 231//123 233//124 234//124
f 234//124 233//124 235//91
f 234//124 235//91 236//91
f 236//91 235//91 237//125
f 235//91 238//125 237//125
f 237//125 238//125 239//126
f 237//125 239//126 240//126
f 240//126 239//126 241//1
f 240//126 241//1 242//1
f 242//1 241//1 243//127
f 241//1 244//127 243//127
f 243//127 244//127 245//128
f 243//127 245//128 246//128
f 246//128 245//128 247//102
f 246//128 247//102 248//102
f 248//102 247//102 209//122
f 248//102 209//122 249//122
f 249//122 209//122 207//121
f 244//66 239//66 245//66
f 245//66 239//66 238//66
f 245//66 238//66 247//66
f 247//66 238//66 235//66
f 247//66 235//66 209//66
f 209//66 235//66 233//66
f 209//66 233//66 208//66
f 208//66 233//66 232//66
f 208//66 232//66 206//66
f 206//66 232//66 230//66
f 206//66 230//66 204//66
f 204//66 230//66 227//66
f 204//66 227//66 210//66
f 210//66 227//66 225//66
f 210//66 225//66 211//66
f 211//66 225//66 224//66
f 211//66 224//66 213//66
f 213//66 224//66 221//66
f 213//66 221//66 215//66
f 215//66 221//66 219//66
f 215//66 219//66 218//66
f 244//66 241//66 239//66
f 250//66 251//66 252//66
f 252//66 251//66 253//66
f 252//66 253//66 254//66
f 254//66 253//66 255//66
f 254//66 255//66 256//66
f 256//66 257//66 254//66
f 254//66 257//66 258//66
f 254//66 258//66 259//66
f 259//66 260//66 254//66
f 254//66 260//66 261//66
f 254//66 261//66 262//66
f 262//66 261//66 263//66
f 261//66 264//66 263//66
f 263//66 264//66 265//66
f 263//66 265//66 266//66
f 266//66 265//66 267//66
f 266//66 267//66 268//66
f 268//66 267//66 252//66
f 267//66 269//66 252//66
f 252//66 269//66 270//66
f 252//66 270//66 271//66
f 271//66 272//66 252//66
f 252//66 272//66 273//66
f 252//66 273//66 250//66
f 274//1 275//126 253//1
f 253//1 275//126 255//126
f 275//126 276//125 255//126
f 255//126 276//125 256//125
f 256//125 276//125 257//91
f 257//91 276//125 277//91
f 257//91 277//91 278//124
f 257//91 278//124 258//124
f 258//124 278//124 279//123
f 258//124 279//123 259//123
f 259//123 279//123 260//9
f 279//123 280//9 260//9
f 280//9 281//9 260//9
f 260//9 281//9 261//9
f 281//94 282//94 261//94
f 261//94 282//94 264//94
f 282//8 283//8 264//8
f 264//8 283//8 265//8
f 283//99 284//99 265//99
f 265//99 284//99 267//99
f 284//2 285//2 267//2
f 267//2 285//2 269//2
f 285//2 286//121 269//2
f 269//2 286//121 270//121
f 270//121 286//121 271//122
f 271//122 286//121 287//122
f 271//122 287//122 288//102
f 271//122 288//102 272//102
f 272//102 288//102 289//128
f 272//102 289//128 273//128
f 273//128 289//128 290//127
f 273//128 290//127 250//127
f 250//127 290//127 251//1
f 290//127 291//1 251//1
f 291//1 274//1 251//1
f 251//1 274//1 253//1
f 148//6 274//6 136//6
f 136//6 274//6 291//6
f 136//6 291//6 125//6
f 125//6 291//6 127//6
f 148//6 147//6 274//6
f 274//6 147//6 144//6
f 274//6 144//6 142//6
f 141//6 280//6 142//6
f 142//6 280//6 279//6
f 142//6 279//6 278//6
f 141//6 139//6 280//6
f 280//6 139//6 281//6
f 139//6 150//6 281//6
f 281//6 150//6 282//6
f 150//6 152//6 282//6
f 282//6 152//6 119//6
f 282//6 119//6 283//6
f 283//6 119//6 118//6
f 283//6 118//6 284//6
f 284//6 118//6 122//6
f 284//6 122//6 285//6
f 285//6 122//6 135//6
f 285//6 135//6 132//6
f 130//6 291//6 132//6
f 132//6 291//6 290//6
f 132//6 290//6 289//6
f 130//6 128//6 291//6
f 291//6 128//6 127//6
f 278//6 277//6 142//6
f 142//6 277//6 276//6
f 142//6 276//6 275//6
f 275//6 274//6 142//6
f 289//6 288//6 132//6
f 132//6 288//6 287//6
f 132//6 287//6 286//6
f 286//6 285//6 132//6
f 262//9 292//9 254//9
f 254//9 292//9 293//9
f 262//94 263//94 292//94
f 292//94 263//94 294//94
f 292//94 294//94 295//94
f 154//8 156//8 263//8
f 263//8 156//8 158//8
f 263//8 158//8 294//8
f 294//8 158//8 201//8
f 294//8 201//8 200//8
f 200//8 197//8 294//8
f 294//8 197//8 195//8
f 294//8 195//8 194//8
f 294//8 194//8 296//8
f 296//8 194//8 191//8
f 296//8 191//8 189//8
f 189//8 187//8 296//8
f 296//8 187//8 186//8
f 296//8 186//8 183//8
f 296//8 183//8 266//8
f 266//8 183//8 181//8
f 266//8 181//8 180//8
f 180//8 177//8 266//8
f 266//8 177//8 175//8
f 266//8 175//8 173//8
f 173//8 172//8 266//8
f 266//8 172//8 169//8
f 266//8 169//8 263//8
f 263//8 169//8 167//8
f 263//8 167//8 166//8
f 166//8 163//8 263//8
f 263//8 163//8 161//8
f 263//8 161//8 154//8
f 268//99 297//99 266//99
f 266//99 297//99 296//99
f 297//99 298//99 296//99
f 295//111 299//111 292//111
f 292//111 299//111 293//111
f 231//66 299//66 229//66
f 229//66 299//66 295//66
f 229//66 295//66 228//66
f 228//66 295//66 226//66
f 231//66 234//66 299//66
f 299//66 234//66 236//66
f 299//66 236//66 237//66
f 237//66 240//66 299//66
f 299//66 240//66 242//66
f 299//66 242//66 300//66
f 300//66 242//66 243//66
f 300//66 243//66 246//66
f 246//66 248//66 300//66
f 300//66 248//66 249//66
f 300//66 249//66 207//66
f 207//66 205//66 300//66
f 300//66 205//66 298//66
f 205//66 203//66 298//66
f 298//66 203//66 202//66
f 298//66 202//66 212//66
f 298//66 212//66 296//66
f 296//66 212//66 214//66
f 296//66 214//66 216//66
f 216//66 217//66 296//66
f 296//66 217//66 294//66
f 217//66 220//66 294//66
f 294//66 220//66 222//66
f 294//66 222//66 223//66
f 294//66 223//66 295//66
f 295//66 223//66 226//66
f 298//106 297//106 300//106
f 300//106 297//106 301//106
f 252//2 301//2 268//2
f 268//2 301//2 297//2
f 252//1 254//1 301//1
f 301//1 254//1 293//1
f 301//1 293//1 300//1
f 300//1 293//1 299//1
l 1 3
l 1 2
l 4 2
l 4 3
l 5 1
l 6 5
l 2 6
l 6 7
l 7 8
l 8 2
l 10 9
l 9 4
l 4 11
l 11 10
l 10 7
l 9 6
l 11 8
l 12 5
l 12 9
l 3 12
l 13 15
l 13 14
l 16 14
l 16 15
l 17 13
l 18 17
l 14 18
l 18 19
l 19 20
l 20 14
l 22 21
l 21 16
l 16 23
l 23 22
l 22 19
l 21 18
l 23 20
l 24 17
l 24 21
l 15 24
l 25 27
l 25 26
l 28 26
l 28 27
l 29 25
l 30 29
l 26 30
l 30 31
l 31 32
l 32 26
l 34 33
l 33 28
l 28 35
l 35 34
l 34 31
l 33 30
l 35 32
l 36 29
l 36 33
l 27 36
l 38 40
l 40 41
l 41 43
l 43 44
l 44 46
l 46 47
l 68 66
l 66 64
l 64 62
l 62 60
l 60 58
l 58 56
l 56 54
l 54 52
l 52 50
l 50 48
l 48 47
l 68 69
l 69 70
l 70 72
l 72 74
l 74 75
l 38 37
l 37 92
l 92 90
l 90 88
l 88 86
l 86 84
l 84 82
l 82 80
l 80 78
l 78 76
l 76 75
l 42 45
l 45 49
l 49 51
l 51 53
l 53 55
l 55 57
l 57 59
l 59 61
l 61 63
l 63 65
l 65 67
l 67 71
l 71 73
l 73 77
l 77 79
l 79 81
l 81 83
l 83 85
l 85 87
l 87 89
l 89 91
l 91 93
l 93 39
l 39 42
l 69 46
l 95 68
l 94 95
l 47 94
l 40 74
l 96 38
l 97 96
l 75 97
l 95 99
l 99 101
l 101 103
l 103 105
l 105 107
l 107 106
l 106 104
l 104 102
l 102 100
l 100 98
l 98 94
l 96 108
l 108 109
l 109 110
l 110 111
l 111 112
l 112 113
l 113 114
l 114 115
l 115 116
l 116 117
l 117 97
l 119 118
l 121 119
l 120 121
l 120 118
l 118 122
l 123 120
l 123 122
l 122 135
l 135 132
l 132 130
l 130 128
l 128 127
l 127 125
l 124 126
l 126 129
l 129 131
l 131 133
l 133 134
l 134 123
l 124 125
l 125 136
l 137 124
l 137 136
l 136 148
l 148 147
l 147 144
l 144 142
l 142 141
l 141 139
l 138 140
l 140 143
l 143 145
l 145 146
l 146 149
l 149 137
l 138 139
l 139 150
l 151 138
l 151 150
l 150 152
l 153 151
l 153 152
l 152 119
l 121 153
l 156 158
l 158 201
l 201 200
l 200 197
l 197 195
l 195 194
l 194 191
l 191 189
l 189 187
l 187 186
l 186 183
l 183 181
l 181 180
l 180 177
l 177 175
l 175 173
l 173 172
l 172 169
l 169 167
l 167 166
l 166 163
l 163 161
l 161 154
l 154 156
l 182 179
l 179 178
l 178 176
l 176 174
l 174 171
l 171 170
l 170 168
l 168 165
l 165 164
l 164 162
l 162 155
l 155 157
l 157 159
l 159 160
l 160 199
l 199 198
l 198 196
l 196 193
l 193 192
l 192 190
l 190 188
l 188 185
l 185 184
l 184 182
l 206 208
l 208 209
l 209 247
l 247 245
l 245 244
l 244 241
l 241 239
l 239 238
l 238 235
l 235 233
l 233 232
l 232 230
l 230 227
l 227 225
l 225 224
l 224 221
l 221 219
l 219 218
l 218 215
l 215 213
l 213 211
l 211 210
l 210 204
l 204 206
l 229 231
l 231 234
l 234 236
l 236 237
l 237 240
l 240 242
l 242 243
l 243 246
l 246 248
l 248 249
l 249 207
l 207 205
l 205 203
l 203 202
l 202 212
l 212 214
l 214 216
l 216 217
l 217 220
l 220 222
l 222 223
l 223 226
l 226 228
l 228 229
l 253 251
l 260 259
l 259 258
l 258 257
l 257 256
l 256 255
l 255 253
l 261 260
l 264 261
l 265 264
l 267 265
l 269 267
l 251 250
l 250 273
l 273 272
l 272 271
l 271 270
l 270 269
l 266 268
l 263 266
l 262 263
l 254 262
l 252 254
l 268 252
l 274 275
l 275 276
l 276 277
l 277 278
l 278 279
l 279 280
l 260 280
l 253 274
l 280 281
l 261 281
l 281 282
l 264 282
l 282 283
l 265 283
l 283 284
l 267 284
l 284 285
l 269 285
l 285 286
l 286 287
l 287 288
l 288 289
l 289 290
l 290 291
l 251 291
l 291 274
l 292 262
l 293 292
l 293 254
l 263 294
l 294 295
l 295 292
l 296 266
l 294 296
l 268 297
l 297 298
l 298 296
l 299 295
l 299 293
l 300 298
l 300 299
l 301 297
l 301 300
l 252 301
