# Blender 4.0.2
# www.blender.org
mtllib socket_cl1919_with_gap.mtl
o socket_cl1919_1
v 8.338179 -3.979139 1.722815
v 6.253634 -3.979139 1.722815
v 8.338179 0.189950 1.722815
v 6.253634 0.189950 1.722815
v -6.253633 -3.979139 1.722815
v -8.338179 -3.979139 1.722815
v -6.253633 0.189950 1.722815
v -8.338179 0.189950 1.722815
v 1.042272 0.189950 1.722815
v -1.042272 0.189950 1.722815
v 1.042272 4.359039 1.722814
v -1.042272 4.359039 1.722814
v 2.077000 6.000000 -9.056000
v 2.150000 6.000000 -8.500000
v 2.077000 6.000000 -7.944000
v 1.862000 6.000000 -7.425001
v 1.520000 6.000000 -6.980000
v 1.075000 6.000000 -6.638000
v 0.556000 6.000000 -6.423000
v 0.000000 6.000000 -6.350000
v -0.556000 6.000000 -6.423000
v -1.075000 6.000000 -6.638000
v -1.520000 6.000000 -6.980000
v -1.862000 6.000000 -7.425001
v -2.077000 6.000000 -7.944000
v -2.150000 6.000000 -8.500000
v -2.077000 6.000000 -9.056000
v -1.862000 5.999999 -9.575000
v -1.520000 5.999999 -10.020000
v -1.075000 5.999999 -10.362000
v -0.556000 5.999999 -10.577000
v 0.000000 5.999999 -10.650000
v 0.556000 5.999999 -10.577000
v 1.075000 5.999999 -10.362000
v 1.520000 5.999999 -10.020000
v 1.862000 5.999999 -9.575000
v 12.246700 3.322280 18.711853
v 6.253634 8.407870 18.711853
v 12.246700 3.322279 1.722814
v 6.253634 8.407869 1.722814
v 12.246700 -6.584819 18.711853
v 12.246700 -6.584821 1.722815
v 10.683291 -8.148229 1.722815
v 10.683291 -8.148228 18.711853
v 11.087692 -8.095073 1.722815
v 11.087692 -8.095072 18.711853
v 11.464995 -7.938731 18.711853
v 11.464995 -7.938732 1.722815
v 11.789143 -7.690670 18.711853
v 11.789143 -7.690671 1.722815
v 12.037203 -7.366523 18.711853
v 12.037203 -7.366525 1.722815
v 12.193544 -6.989222 1.722815
v 12.193544 -6.989221 18.711853
v -10.683291 -8.148228 18.711853
v -10.683291 -8.148229 1.722815
v -12.246700 -6.584821 1.722815
v -12.246700 -6.584819 18.711853
v -12.193544 -6.989222 1.722815
v -12.193544 -6.989221 18.711853
v -12.037203 -7.366523 18.711853
v -12.037203 -7.366525 1.722815
v -11.789143 -7.690670 18.711853
v -11.789143 -7.690671 1.722815
v -11.464995 -7.938732 1.722815
v -11.464995 -7.938731 18.711853
v -11.087692 -8.095072 18.711853
v -11.087692 -8.095073 1.722815
v -12.246700 3.322280 18.711853
v -12.246700 3.322279 1.722814
v -6.253633 8.407870 18.711853
v -6.253633 8.407869 1.722814
v -3.381000 8.000000 -7.594000
v -3.381000 6.000000 -7.594000
v -3.500000 8.000000 -8.500001
v -3.500000 6.000000 -8.500000
v -3.381000 8.000000 -9.406001
v -3.381000 6.000000 -9.406000
v -3.031000 5.999999 -10.250000
v -3.031000 8.000000 -6.750000
v -3.031000 6.000000 -6.750000
v -2.475000 8.000000 -6.025001
v -2.475000 6.000000 -6.025001
v -1.750000 6.000000 -5.469000
v -1.750000 8.000000 -5.469000
v -0.906000 8.000000 -5.119000
v -0.906000 6.000000 -5.119000
v 0.000000 8.000000 -5.000000
v 0.000000 6.000000 -5.000000
v 0.906000 6.000000 -5.119000
v 0.906000 8.000000 -5.119000
v 1.750000 8.000000 -5.469000
v 1.750000 6.000000 -5.469000
v 2.475000 8.000000 -6.025001
v 2.475000 6.000000 -6.025001
v 3.031000 8.000000 -6.750000
v 3.031000 6.000000 -6.750000
v 3.381000 6.000000 -7.594000
v 3.381000 8.000000 -7.594000
v 3.500000 8.000000 -8.500001
v 3.500000 6.000000 -8.500000
v 3.381000 8.000000 -9.406001
v 3.381000 6.000000 -9.406000
v 3.031000 5.999999 -10.250000
v 3.031000 7.999999 -10.250001
v 2.475000 7.999999 -10.975001
v 2.475000 5.999999 -10.975000
v 1.750000 7.999999 -11.531001
v 1.750000 5.999999 -11.531000
v 0.906000 7.999999 -11.881001
v 0.906000 5.999999 -11.881000
v 0.000000 5.999999 -12.000000
v 0.000000 7.999999 -12.000001
v -0.906000 7.999999 -11.881001
v -0.906000 5.999999 -11.881000
v -1.750000 7.999999 -11.531001
v -1.750000 5.999999 -11.531000
v -2.475000 5.999999 -10.975000
v -2.475000 7.999999 -10.975001
v -3.031000 7.999999 -10.250001
v 4.330000 2.499997 -35.500000
v 4.830000 1.293997 -35.500000
v 4.830000 1.293995 -61.000000
v 5.000000 -0.000003 -35.500000
v 5.000000 -0.000005 -61.000000
v 4.830000 -1.294003 -35.500000
v 4.830000 -1.294005 -61.000000
v 4.330000 -2.500005 -61.000000
v 4.330000 2.499995 -61.000000
v 3.536000 3.535995 -61.000000
v 3.536000 3.535997 -35.500000
v 2.500000 4.329995 -61.000000
v 2.500000 4.329997 -35.500000
v 1.294000 4.829995 -61.000000
v 1.294000 4.829997 -35.500000
v 0.000000 4.999997 -35.500000
v 0.000000 4.999995 -61.000000
v -1.294000 4.829995 -61.000000
v -1.294000 4.829997 -35.500000
v -2.500000 4.329995 -61.000000
v -2.500000 4.329997 -35.500000
v -3.536000 3.535997 -35.500000
v -3.536000 3.535995 -61.000000
v -4.330000 2.499995 -61.000000
v -4.330000 2.499997 -35.500000
v -4.830000 1.293995 -61.000000
v -4.830000 1.293997 -35.500000
v -5.000000 -0.000003 -35.500000
v -5.000000 -0.000005 -61.000000
v -4.830000 -1.294003 -35.500000
v -4.830000 -1.294005 -61.000000
v -4.330000 -2.500005 -61.000000
v -4.330000 -2.500003 -35.500000
v -3.536000 -3.536005 -61.000000
v -3.536000 -3.536003 -35.500000
v -2.500000 -4.330003 -35.500000
v -2.500000 -4.330005 -61.000000
v -1.294000 -4.830005 -61.000000
v -1.294000 -4.830003 -35.500000
v 0.000000 -5.000005 -61.000000
v 0.000000 -5.000003 -35.500000
v 1.294000 -4.830003 -35.500000
v 1.294000 -4.830005 -61.000000
v 2.500000 -4.330005 -61.000000
v 2.500000 -4.330003 -35.500000
v 3.536000 -3.536005 -61.000000
v 3.536000 -3.536003 -35.500000
v 4.330000 -2.500003 -35.500000
v 13.405707 -9.661608 -0.361730
v 13.028404 -9.711637 -0.361730
v 12.500000 -8.000000 0.000001
v -13.028404 -9.711637 -0.361730
v -12.500000 -8.000000 0.000001
v -13.405707 -9.661608 -0.361730
v -13.757995 -9.515690 -0.361730
v -14.060253 -9.284306 -0.361730
v -14.291638 -8.982047 -0.361730
v -14.437556 -8.629759 -0.361730
v -14.487585 -8.252457 -0.361730
v -14.487585 3.634961 -0.361731
v -12.500000 3.737216 -0.000000
v -7.450000 7.879741 -0.000001
v -7.243793 9.971277 -0.361731
v 7.243793 9.971277 -0.361731
v 7.450000 7.879741 -0.000001
v 14.487585 3.634961 -0.361731
v 12.500000 3.737216 -0.000000
v 14.487585 -8.252457 -0.361730
v 14.437556 -8.629759 -0.361730
v 14.291638 -8.982047 -0.361730
v 14.060253 -9.284306 -0.361730
v 13.757995 -9.515690 -0.361730
v -13.028404 -9.711637 18.711853
v -13.405707 -9.661607 18.711853
v -13.757995 -9.515689 18.711853
v -14.060253 -9.284305 18.711853
v -14.291638 -8.982046 18.711853
v -14.437556 -8.629758 18.711853
v -14.487585 -8.252456 18.711853
v -14.487585 3.634962 18.711853
v -7.243793 9.971278 18.711853
v 7.243793 9.971278 18.711853
v 14.487585 3.634962 18.711853
v 14.487585 -8.252456 18.711853
v 14.437556 -8.629758 18.711853
v 14.291638 -8.982046 18.711853
v 14.060253 -9.284305 18.711853
v 13.757995 -9.515689 18.711853
v 13.405707 -9.661607 18.711853
v 13.028404 -9.711637 18.711853
v -12.500000 2.949998 -30.500000
v -12.500000 -8.000002 -30.500000
v -7.450000 7.999997 -35.500000
v -7.500000 7.949997 -35.500000
v 7.450000 7.999997 -35.500000
v 12.500000 2.949998 -30.500000
v 7.500000 7.949997 -35.500000
v -7.500000 -8.000003 -35.500000
v 7.500000 -8.000003 -35.500000
v 12.500000 -8.000002 -30.500000
vn -0.6470 -0.7625 -0.0000
vn -1.0000 -0.0000 -0.0000
vn -0.0000 1.0000 -0.0000
vn -0.2590 0.9659 -0.0000
vn -0.5000 0.8660 -0.0000
vn -0.7071 0.7071 -0.0000
vn -0.8660 0.5000 -0.0000
vn -0.9659 0.2590 -0.0000
vn 1.0000 -0.0000 -0.0000
vn 0.9659 0.2590 -0.0000
vn 0.8660 0.5000 -0.0000
vn 0.7071 0.7071 -0.0000
vn 0.5000 0.8660 -0.0000
vn 0.2590 0.9659 -0.0000
vn 0.6470 -0.7625 -0.0000
vn -0.0000 -1.0000 -0.0000
vn -0.0000 -0.0000 1.0000
vn 0.9659 -0.0000 -0.2590
vn 0.9659 -0.0000 0.2590
vn 0.8660 -0.0000 0.5000
vn 0.8660 -0.0000 -0.5000
vn 0.7071 -0.0000 -0.7071
vn 0.5000 -0.0000 -0.8660
vn 0.2590 -0.0000 -0.9659
vn -0.0000 -0.0000 -1.0000
vn -0.2590 -0.0000 -0.9659
vn -0.5000 -0.0000 -0.8660
vn -0.7071 -0.0000 -0.7071
vn -0.8660 -0.0000 -0.5000
vn -0.9659 -0.0000 -0.2590
vn -0.9659 -0.0000 0.2590
vn -0.8660 -0.0000 0.5000
vn -0.7071 -0.0000 0.7071
vn -0.5000 -0.0000 0.8660
vn -0.2590 -0.0000 0.9659
vn 0.2590 -0.0000 0.9659
vn 0.5000 -0.0000 0.8660
vn 0.7071 -0.0000 0.7071
vn 0.9659 0.2589 -0.0000
vn 0.9659 -0.2590 -0.0000
vn 0.8660 -0.5000 -0.0000
vn -0.9659 0.2589 -0.0000
vn -0.9659 -0.2590 -0.0000
vn -0.8660 -0.5000 -0.0000
vn -0.7071 -0.7071 -0.0000
vn -0.5000 -0.8660 -0.0000
vn -0.2590 -0.9659 -0.0000
vn 0.2590 -0.9659 -0.0000
vn 0.5000 -0.8660 -0.0000
vn 0.7071 -0.7071 -0.0000
vn -0.0264 0.1989 -0.9797
vn -0.0000 0.2068 -0.9784
vn 0.0264 0.1989 -0.9797
vn 0.0722 0.1744 -0.9820
vn 0.1099 0.1435 -0.9835
vn 0.1400 0.1072 -0.9843
vn 0.1620 0.0671 -0.9845
vn 0.1761 0.0234 -0.9841
vn 0.1791 -0.0000 -0.9838
vn 0.1857 -0.2263 -0.9562
vn 0.1606 -0.1836 -0.9698
vn -0.0000 -0.1704 -0.9854
vn -0.1606 -0.1836 -0.9698
vn -0.1857 -0.2263 -0.9562
vn -0.1791 -0.0000 -0.9838
vn -0.1761 0.0234 -0.9841
vn -0.1620 0.0671 -0.9845
vn -0.1400 0.1072 -0.9843
vn -0.1099 0.1435 -0.9835
vn -0.0722 0.1744 -0.9820
vn -0.2589 -0.9659 -0.0000
vn -0.9659 -0.2589 -0.0000
vn -0.6584 0.7527 -0.0000
vn 0.6584 0.7527 -0.0000
vn 0.9659 -0.2589 -0.0000
vn 0.2589 -0.9659 -0.0000
vn -0.6341 0.7730 -0.0200
vn -0.7059 0.7083 0.0024
vn -0.0237 0.9997 0.0031
vn -0.0424 0.9991 -0.0056
vn -0.0217 0.9998 0.0034
vn 0.0217 0.9998 0.0034
vn 0.0424 0.9991 -0.0056
vn 0.0237 0.9997 0.0031
vn 0.0167 0.9998 0.0069
vn 0.0125 0.9999 0.0096
vn 0.0094 0.9999 0.0122
vn 0.0064 0.9999 0.0154
vn 0.0026 0.9998 0.0201
vn -0.0000 0.9997 0.0240
vn -0.0026 0.9998 0.0201
vn -0.0064 0.9999 0.0154
vn -0.0094 0.9999 0.0122
vn -0.0125 0.9999 0.0096
vn -0.0167 0.9998 0.0069
vn 0.6341 0.7730 -0.0200
vn 0.7059 0.7083 0.0024
vn -0.0001 -0.0000 -1.0000
vn 0.0001 -0.0000 -1.0000
s 0
usemtl socket_cl1919_color_2
f 37//1 38//1 39//1
f 39//1 38//1 40//1
f 41//2 37//2 42//2
f 42//2 37//2 39//2
f 43//3 44//3 45//4
f 45//4 44//3 46//4
f 45//4 46//4 47//5
f 45//4 47//5 48//5
f 48//5 47//5 49//6
f 48//5 49//6 50//6
f 50//6 49//6 51//7
f 50//6 51//7 52//7
f 52//7 51//7 53//8
f 51//7 54//8 53//8
f 53//8 54//8 41//2
f 53//8 41//2 42//2
f 55//3 44//3 56//3
f 56//3 44//3 43//3
f 57//9 58//9 59//10
f 59//10 58//9 60//10
f 59//10 60//10 61//11
f 59//10 61//11 62//11
f 62//11 61//11 63//12
f 62//11 63//12 64//12
f 64//12 63//12 65//13
f 63//12 66//13 65//13
f 65//13 66//13 67//14
f 65//13 67//14 68//14
f 68//14 67//14 55//3
f 68//14 55//3 56//3
f 69//9 58//9 70//9
f 70//9 58//9 57//9
f 71//15 69//15 72//15
f 72//15 69//15 70//15
f 38//16 71//16 40//16
f 40//16 71//16 72//16
f 52//17 53//17 43//17
f 43//17 53//17 42//17
f 43//17 42//17 1//17
f 1//17 42//17 39//17
f 1//17 39//17 3//17
f 3//17 39//17 40//17
f 3//17 40//17 4//17
f 4//17 40//17 11//17
f 4//17 11//17 9//17
f 1//17 2//17 43//17
f 43//17 2//17 5//17
f 43//17 5//17 56//17
f 56//17 5//17 6//17
f 56//17 6//17 57//17
f 57//17 6//17 70//17
f 4//17 9//17 2//17
f 2//17 9//17 10//17
f 2//17 10//17 5//17
f 5//17 10//17 7//17
f 6//17 8//17 70//17
f 70//17 8//17 72//17
f 8//17 7//17 72//17
f 72//17 7//17 12//17
f 72//17 12//17 11//17
f 10//17 12//17 7//17
f 45//17 48//17 43//17
f 43//17 48//17 50//17
f 43//17 50//17 52//17
f 40//17 72//17 11//17
f 57//17 59//17 56//17
f 56//17 59//17 62//17
f 56//17 62//17 64//17
f 64//17 65//17 56//17
f 56//17 65//17 68//17
f 73//18 74//18 75//9
f 75//9 74//18 76//9
f 75//9 76//9 77//19
f 77//19 76//9 78//19
f 77//19 78//19 79//20
f 73//18 80//21 74//18
f 74//18 80//21 81//21
f 80//21 82//22 81//21
f 81//21 82//22 83//22
f 83//22 82//22 84//23
f 84//23 82//22 85//23
f 84//23 85//23 86//24
f 84//23 86//24 87//24
f 87//24 86//24 88//25
f 87//24 88//25 89//25
f 89//25 88//25 90//26
f 88//25 91//26 90//26
f 90//26 91//26 92//27
f 90//26 92//27 93//27
f 93//27 92//27 94//28
f 93//27 94//28 95//28
f 95//28 94//28 96//29
f 95//28 96//29 97//29
f 97//29 96//29 98//30
f 96//29 99//30 98//30
f 98//30 99//30 100//2
f 98//30 100//2 101//2
f 101//2 100//2 102//31
f 101//2 102//31 103//31
f 103//31 102//31 104//32
f 102//31 105//32 104//32
f 104//32 105//32 106//33
f 104//32 106//33 107//33
f 107//33 106//33 108//34
f 107//33 108//34 109//34
f 109//34 108//34 110//35
f 109//34 110//35 111//35
f 111//35 110//35 112//17
f 110//35 113//17 112//17
f 112//17 113//17 114//36
f 112//17 114//36 115//36
f 115//36 114//36 116//37
f 115//36 116//37 117//37
f 117//37 116//37 118//38
f 116//37 119//38 118//38
f 118//38 119//38 120//20
f 118//38 120//20 79//20
f 79//20 120//20 77//19
f 15//3 98//3 14//3
f 14//3 98//3 101//3
f 14//3 101//3 13//3
f 13//3 101//3 103//3
f 13//3 103//3 36//3
f 36//3 103//3 104//3
f 36//3 104//3 35//3
f 35//3 104//3 107//3
f 35//3 107//3 34//3
f 34//3 107//3 109//3
f 34//3 109//3 33//3
f 33//3 109//3 111//3
f 33//3 111//3 32//3
f 32//3 111//3 112//3
f 32//3 112//3 115//3
f 15//3 16//3 98//3
f 98//3 16//3 97//3
f 16//3 17//3 97//3
f 97//3 17//3 95//3
f 17//3 18//3 95//3
f 95//3 18//3 93//3
f 18//3 19//3 93//3
f 93//3 19//3 90//3
f 19//3 20//3 90//3
f 90//3 20//3 89//3
f 89//3 20//3 87//3
f 87//3 20//3 21//3
f 87//3 21//3 84//3
f 84//3 21//3 22//3
f 84//3 22//3 83//3
f 83//3 22//3 23//3
f 83//3 23//3 81//3
f 81//3 23//3 24//3
f 81//3 24//3 74//3
f 74//3 24//3 25//3
f 74//3 25//3 76//3
f 76//3 25//3 26//3
f 76//3 26//3 27//3
f 76//3 27//3 78//3
f 78//3 27//3 28//3
f 78//3 28//3 79//3
f 79//3 28//3 29//3
f 79//3 29//3 118//3
f 118//3 29//3 30//3
f 118//3 30//3 117//3
f 117//3 30//3 31//3
f 117//3 31//3 115//3
f 115//3 31//3 32//3
f 121//11 122//10 123//10
f 123//10 122//10 124//9
f 123//39 124//9 125//9
f 125//9 124//9 126//40
f 125//9 126//40 127//40
f 127//40 126//40 128//41
f 123//10 129//11 121//11
f 121//11 129//11 130//12
f 121//11 130//12 131//12
f 131//12 130//12 132//13
f 131//12 132//13 133//13
f 133//13 132//13 134//14
f 133//13 134//14 135//14
f 135//14 134//14 136//3
f 134//14 137//3 136//3
f 136//3 137//3 138//4
f 136//3 138//4 139//4
f 139//4 138//4 140//5
f 139//4 140//5 141//5
f 141//5 140//5 142//6
f 140//5 143//6 142//6
f 142//6 143//6 144//7
f 142//6 144//7 145//7
f 145//7 144//7 146//8
f 145//7 146//8 147//8
f 147//8 146//8 148//2
f 146//42 149//2 148//2
f 148//2 149//2 150//43
f 149//2 151//43 150//43
f 150//43 151//43 152//44
f 150//43 152//44 153//44
f 153//44 152//44 154//45
f 153//44 154//45 155//45
f 155//45 154//45 156//46
f 154//45 157//46 156//46
f 156//46 157//46 158//47
f 156//46 158//47 159//47
f 159//47 158//47 160//16
f 159//47 160//16 161//16
f 161//16 160//16 162//48
f 160//16 163//48 162//48
f 162//48 163//48 164//49
f 162//48 164//49 165//49
f 165//49 164//49 166//50
f 165//49 166//50 167//50
f 167//50 166//50 128//41
f 167//50 128//41 168//41
f 168//41 128//41 126//40
f 163//25 158//25 164//25
f 164//25 158//25 157//25
f 164//25 157//25 166//25
f 166//25 157//25 154//25
f 166//25 154//25 128//25
f 128//25 154//25 152//25
f 128//25 152//25 127//25
f 127//25 152//25 151//25
f 127//25 151//25 125//25
f 125//25 151//25 149//25
f 125//25 149//25 123//25
f 123//25 149//25 146//25
f 123//25 146//25 129//25
f 129//25 146//25 144//25
f 129//25 144//25 130//25
f 130//25 144//25 143//25
f 130//25 143//25 132//25
f 132//25 143//25 140//25
f 132//25 140//25 134//25
f 134//25 140//25 138//25
f 134//25 138//25 137//25
f 163//25 160//25 158//25
f 169//51 170//51 171//51
f 171//52 170//52 172//52
f 171//52 172//52 173//52
f 173//53 172//53 174//53
f 173//54 174//54 175//54
f 175//55 176//55 173//55
f 173//56 176//56 177//56
f 173//57 177//57 178//57
f 178//58 179//58 173//58
f 173//59 179//59 180//59
f 173//59 180//59 181//59
f 181//60 180//60 182//60
f 180//61 183//61 182//61
f 182//62 183//62 184//62
f 182//62 184//62 185//62
f 185//63 184//63 186//63
f 185//64 186//64 187//64
f 187//65 186//65 171//65
f 186//65 188//65 171//65
f 171//66 188//66 189//66
f 171//67 189//67 190//67
f 190//68 191//68 171//68
f 171//69 191//69 192//69
f 171//70 192//70 169//70
f 193//16 194//71 172//16
f 172//16 194//71 174//71
f 194//47 195//46 174//47
f 174//47 195//46 175//46
f 175//46 195//46 176//45
f 176//45 195//46 196//45
f 176//45 196//45 197//44
f 176//45 197//44 177//44
f 177//44 197//44 198//43
f 177//44 198//43 178//43
f 178//72 198//72 179//2
f 198//43 199//2 179//2
f 199//2 200//2 179//2
f 179//2 200//2 180//2
f 200//73 201//73 180//73
f 180//73 201//73 183//73
f 201//3 202//3 183//3
f 183//3 202//3 184//3
f 202//74 203//74 184//74
f 184//74 203//74 186//74
f 203//9 204//9 186//9
f 186//9 204//9 188//9
f 204//9 205//40 188//9
f 188//9 205//75 189//75
f 189//40 205//40 190//41
f 190//41 205//40 206//41
f 190//41 206//41 207//50
f 190//41 207//50 191//50
f 191//50 207//50 208//49
f 191//50 208//49 192//49
f 192//49 208//49 209//48
f 192//49 209//48 169//48
f 169//76 209//76 170//16
f 209//76 210//16 170//16
f 210//16 193//16 170//16
f 170//16 193//16 172//16
f 67//17 193//17 55//17
f 55//17 193//17 210//17
f 55//17 210//17 44//17
f 44//17 210//17 46//17
f 67//17 66//17 193//17
f 193//17 66//17 63//17
f 193//17 63//17 61//17
f 60//17 199//17 61//17
f 61//17 199//17 198//17
f 61//17 198//17 197//17
f 60//17 58//17 199//17
f 199//17 58//17 200//17
f 58//17 69//17 200//17
f 200//17 69//17 201//17
f 69//17 71//17 201//17
f 201//17 71//17 38//17
f 201//17 38//17 202//17
f 202//17 38//17 37//17
f 202//17 37//17 203//17
f 203//17 37//17 41//17
f 203//17 41//17 204//17
f 204//17 41//17 54//17
f 204//17 54//17 51//17
f 49//17 210//17 51//17
f 51//17 210//17 209//17
f 51//17 209//17 208//17
f 49//17 47//17 210//17
f 210//17 47//17 46//17
f 197//17 196//17 61//17
f 61//17 196//17 195//17
f 61//17 195//17 194//17
f 194//17 193//17 61//17
f 208//17 207//17 51//17
f 51//17 207//17 206//17
f 51//17 206//17 205//17
f 205//17 204//17 51//17
f 181//2 211//2 173//2
f 173//2 211//2 212//2
f 181//77 182//77 211//77
f 211//78 182//78 213//78
f 211//6 213//6 214//6
f 73//79 75//79 182//79
f 182//80 75//80 77//80
f 182//81 77//81 213//81
f 213//3 77//3 120//3
f 213//3 120//3 119//3
f 119//3 116//3 213//3
f 213//3 116//3 114//3
f 213//3 114//3 113//3
f 213//3 113//3 215//3
f 215//3 113//3 110//3
f 215//3 110//3 108//3
f 108//3 106//3 215//3
f 215//3 106//3 105//3
f 215//3 105//3 102//3
f 215//82 102//82 185//82
f 185//83 102//83 100//83
f 185//84 100//84 99//84
f 99//85 96//85 185//85
f 185//86 96//86 94//86
f 185//87 94//87 92//87
f 92//88 91//88 185//88
f 185//89 91//89 88//89
f 185//90 88//90 182//90
f 182//91 88//91 86//91
f 182//92 86//92 85//92
f 85//93 82//93 182//93
f 182//94 82//94 80//94
f 182//95 80//95 73//95
f 187//96 216//96 185//96
f 185//97 216//97 215//97
f 216//12 217//12 215//12
f 214//28 218//28 211//28
f 211//28 218//28 212//28
f 150//25 218//25 148//25
f 148//25 218//25 214//25
f 148//25 214//25 147//25
f 147//25 214//25 145//25
f 150//25 153//25 218//25
f 218//25 153//25 155//25
f 218//25 155//25 156//25
f 156//25 159//25 218//25
f 218//25 159//25 161//25
f 218//25 161//25 219//25
f 219//25 161//25 162//25
f 219//25 162//25 165//25
f 165//25 167//25 219//25
f 219//25 167//25 168//25
f 219//25 168//25 126//25
f 126//25 124//25 219//25
f 219//25 124//25 217//25
f 124//25 122//25 217//25
f 217//25 122//25 121//25
f 217//25 121//25 131//25
f 217//98 131//98 215//98
f 215//25 131//25 133//25
f 215//25 133//25 135//25
f 135//25 136//25 215//25
f 215//25 136//25 213//25
f 136//25 139//25 213//25
f 213//25 139//25 141//25
f 213//25 141//25 142//25
f 213//99 142//99 214//99
f 214//25 142//25 145//25
f 217//22 216//22 219//22
f 219//22 216//22 220//22
f 171//9 220//9 187//9
f 187//9 220//9 216//9
f 171//16 173//16 220//16
f 220//16 173//16 212//16
f 220//16 212//16 219//16
f 219//16 212//16 218//16
o socket_cl1919_1.001
v 8.000000 -3.092524 2.000000
v 8.000000 -3.092523 15.001000
v 6.000000 -3.092524 2.000000
v 6.000000 -3.092523 15.001000
v 8.000000 0.907476 2.000000
v 8.000000 0.907476 15.001000
v 7.250000 0.157477 16.299999
v 7.250000 -2.342523 16.299999
v 6.000000 0.907476 15.001000
v 6.750000 0.157477 16.299999
v 6.750000 -2.342523 16.299999
v 6.000000 0.907476 2.000000
v -6.000000 -3.092524 2.000000
v -6.000000 -3.092523 15.001000
v -8.000000 -3.092524 2.000000
v -8.000000 -3.092523 15.001000
v -6.000000 0.907476 2.000000
v -6.000000 0.907476 15.001000
v -6.750000 0.157477 16.299999
v -6.750000 -2.342523 16.299999
v -8.000000 0.907476 15.001000
v -7.250000 0.157477 16.299999
v -7.250000 -2.342523 16.299999
v -8.000000 0.907476 2.000000
v 1.000000 0.000000 2.000000
v 1.000000 0.000001 16.000999
v -1.000000 0.000000 2.000000
v -1.000000 0.000001 16.000999
v 1.000000 4.000000 2.000000
v 1.000000 4.000001 16.000999
v 0.250000 3.250001 17.299999
v 0.250000 0.750001 17.299999
v -1.000000 4.000001 16.000999
v -0.250000 3.250001 17.299999
v -0.250000 0.750001 17.299999
v -1.000000 4.000000 2.000000
v 2.736000 6.509999 -9.730000
v 2.958000 6.510000 -9.000001
v 2.077000 6.000000 -9.056000
v 2.108000 6.010000 -9.000000
v 2.160000 6.010000 -8.668000
v 2.150000 6.000000 -8.500000
v 2.167000 6.010000 -8.500000
v 2.160000 6.010000 -8.332000
v 2.077000 6.000000 -7.944000
v 2.108000 6.010000 -8.000000
v 2.958000 6.510000 -8.000001
v 2.736000 6.510000 -7.270000
v 1.862000 6.000000 -7.425001
v 2.337000 6.510000 -6.619000
v 1.520000 6.000000 -6.980000
v 1.786000 6.510000 -6.090001
v 1.075000 6.000000 -6.638000
v 1.120000 6.510000 -5.717000
v 0.556000 6.000000 -6.423000
v 0.382000 6.510000 -5.524001
v 0.000000 6.000000 -6.350000
v -0.382000 6.510000 -5.524001
v -0.556000 6.000000 -6.423000
v -1.120000 6.510000 -5.717000
v -1.075000 6.000000 -6.638000
v -1.786000 6.510000 -6.090001
v -1.520000 6.000000 -6.980000
v -2.337000 6.510000 -6.619000
v -1.862000 6.000000 -7.425001
v -2.736000 6.510000 -7.270000
v -2.077000 6.000000 -7.944000
v -2.958000 6.510000 -8.000001
v -2.108000 6.010000 -8.000000
v -2.160000 6.010000 -8.332000
v -2.150000 6.000000 -8.500000
v -2.160000 6.010000 -8.668000
v -2.077000 6.000000 -9.056000
v -2.108000 6.010000 -9.000000
v -2.958000 6.510000 -9.000001
v -2.736000 6.509999 -9.730000
v -1.862000 5.999999 -9.575000
v -2.337000 6.509999 -10.381001
v -1.520000 5.999999 -10.020000
v -1.786000 6.509999 -10.910001
v -1.075000 5.999999 -10.362000
v -1.120000 6.509999 -11.283001
v -0.556000 5.999999 -10.577000
v -0.382000 6.509999 -11.476001
v 0.000000 5.999999 -10.650000
v 0.382000 6.509999 -11.476001
v 0.556000 5.999999 -10.577000
v 1.120000 6.509999 -11.283001
v 1.075000 5.999999 -10.362000
v 1.786000 6.509999 -10.910001
v 1.520000 5.999999 -10.020000
v 2.337000 6.509999 -10.381001
v 1.862000 5.999999 -9.575000
v 2.958000 7.010000 -8.000001
v -2.958000 7.010000 -8.000001
v 2.958000 7.010000 -9.000001
v -2.958000 7.010000 -9.000001
v 2.736000 7.010000 -7.270000
v -2.736000 7.010000 -7.270000
v 2.337000 7.010000 -6.619000
v -2.337000 7.010000 -6.619000
v 1.786000 7.010000 -6.090001
v -1.786000 7.010000 -6.090001
v 1.120000 7.010000 -5.717000
v -1.120000 7.010000 -5.717000
v 0.382000 7.010000 -5.524001
v -0.382000 7.010000 -5.524001
v 2.736000 7.009999 -9.730000
v 2.337000 7.009999 -10.381001
v 1.786000 7.009999 -10.910001
v 1.120000 7.009999 -11.283001
v 0.382000 7.009999 -11.476001
v -0.382000 7.009999 -11.476001
v -1.120000 7.009999 -11.283001
v -1.786000 7.009999 -10.910001
v -2.337000 7.009999 -10.381001
v -2.736000 7.009999 -9.730000
vn -0.0000 -1.0000 -0.0000
vn 1.0000 -0.0000 -0.0000
vn 0.8660 -0.0000 0.5000
vn -0.8660 -0.0000 0.5000
vn -0.0000 0.8660 0.5000
vn -0.0000 -0.0000 1.0000
vn -0.0000 -0.8660 0.5000
vn -0.0000 1.0000 -0.0000
vn -1.0000 -0.0000 -0.0000
vn 0.4693 -0.8575 -0.2111
vn 0.5073 -0.8575 -0.0861
vn 0.4972 -0.8574 -0.1331
vn 0.5073 -0.8575 -0.0860
vn 0.5011 -0.8572 -0.1190
vn 0.5132 -0.8573 -0.0400
vn 0.4972 -0.8574 -0.1330
vn 0.5143 -0.8576 -0.0000
vn 0.5132 -0.8573 0.0400
vn 0.4972 -0.8574 0.1330
vn 0.4972 -0.8574 0.1331
vn 0.5011 -0.8572 0.1190
vn 0.5073 -0.8575 0.0860
vn 0.5073 -0.8575 0.0861
vn 0.4693 -0.8575 0.2111
vn 0.4692 -0.8575 0.2111
vn 0.4461 -0.8573 0.2571
vn 0.4011 -0.8572 0.3231
vn 0.4461 -0.8572 0.2571
vn 0.3641 -0.8572 0.3641
vn 0.3062 -0.8576 0.4133
vn 0.2571 -0.8573 0.4461
vn 0.1921 -0.8575 0.4773
vn 0.1331 -0.8574 0.4972
vn 0.0651 -0.8575 0.5103
vn 0.1330 -0.8574 0.4972
vn 0.0650 -0.8575 0.5103
vn -0.0000 -0.8576 0.5144
vn -0.0651 -0.8575 0.5103
vn -0.0000 -0.8576 0.5143
vn -0.0650 -0.8575 0.5103
vn -0.1330 -0.8574 0.4972
vn -0.1921 -0.8575 0.4773
vn -0.1331 -0.8574 0.4972
vn -0.2571 -0.8573 0.4461
vn -0.3062 -0.8576 0.4133
vn -0.2571 -0.8572 0.4462
vn -0.3641 -0.8572 0.3641
vn -0.4011 -0.8572 0.3231
vn -0.4461 -0.8573 0.2571
vn -0.4692 -0.8575 0.2111
vn -0.4461 -0.8572 0.2571
vn -0.4972 -0.8574 0.1331
vn -0.4693 -0.8575 0.2111
vn -0.5073 -0.8575 0.0861
vn -0.5073 -0.8575 0.0860
vn -0.5011 -0.8572 0.1190
vn -0.5132 -0.8573 0.0400
vn -0.4972 -0.8574 0.1330
vn -0.5143 -0.8576 -0.0000
vn -0.5144 -0.8576 -0.0000
vn -0.5132 -0.8573 -0.0400
vn -0.4972 -0.8574 -0.1330
vn -0.4972 -0.8574 -0.1331
vn -0.5011 -0.8572 -0.1190
vn -0.5073 -0.8575 -0.0860
vn -0.5073 -0.8575 -0.0861
vn -0.4693 -0.8575 -0.2111
vn -0.4461 -0.8573 -0.2571
vn -0.4692 -0.8575 -0.2111
vn -0.4011 -0.8572 -0.3231
vn -0.4461 -0.8572 -0.2571
vn -0.3641 -0.8572 -0.3641
vn -0.3062 -0.8576 -0.4133
vn -0.2571 -0.8573 -0.4461
vn -0.1921 -0.8575 -0.4773
vn -0.2571 -0.8572 -0.4461
vn -0.1331 -0.8574 -0.4972
vn -0.0651 -0.8575 -0.5103
vn -0.1330 -0.8574 -0.4972
vn -0.0650 -0.8575 -0.5103
vn -0.0000 -0.8576 -0.5144
vn 0.0651 -0.8575 -0.5103
vn -0.0000 -0.8576 -0.5143
vn 0.0650 -0.8575 -0.5103
vn 0.1330 -0.8574 -0.4972
vn 0.1921 -0.8575 -0.4773
vn 0.1331 -0.8574 -0.4972
vn 0.2571 -0.8573 -0.4461
vn 0.3062 -0.8576 -0.4133
vn 0.2571 -0.8572 -0.4462
vn 0.3641 -0.8572 -0.3641
vn 0.4011 -0.8572 -0.3231
vn 0.4461 -0.8573 -0.2571
vn 0.4692 -0.8575 -0.2111
vn 0.4461 -0.8572 -0.2571
vn -0.0000 -0.0000 -1.0000
vn 0.9860 -0.0000 0.1670
vn 0.9121 -0.0000 0.4100
vn 0.7790 -0.0000 0.6270
vn 0.5954 -0.0000 0.8035
vn 0.3729 -0.0000 0.9279
vn 0.1270 -0.0000 0.9919
vn -0.1270 -0.0000 0.9919
vn -0.3729 -0.0000 0.9279
vn -0.5954 -0.0000 0.8035
vn -0.7790 -0.0000 0.6270
vn -0.9121 -0.0000 0.4100
vn -0.9860 -0.0000 0.1670
vn 0.9860 -0.0000 -0.1670
vn 0.9121 -0.0000 -0.4100
vn 0.7790 -0.0000 -0.6270
vn 0.7790 -0.0001 -0.6270
vn 0.5954 -0.0000 -0.8035
vn 0.3729 -0.0000 -0.9279
vn 0.3730 -0.0000 -0.9278
vn 0.1270 -0.0000 -0.9919
vn -0.1270 -0.0000 -0.9919
vn -0.3729 -0.0000 -0.9279
vn -0.5954 -0.0000 -0.8035
vn -0.7790 -0.0000 -0.6270
vn -0.7790 0.0001 -0.6270
vn -0.9121 -0.0000 -0.4100
vn -0.9860 -0.0000 -0.1670
s 0
usemtl socket_cl1919_color_1
f 221//100 222//100 223//100
f 223//100 222//100 224//100
f 221//101 225//101 222//101
f 222//101 225//101 226//101
f 226//102 227//102 222//102
f 222//102 227//102 228//102
f 229//103 224//103 230//103
f 230//103 224//103 231//103
f 230//104 227//104 229//104
f 229//104 227//104 226//104
f 230//105 231//105 227//105
f 227//105 231//105 228//105
f 231//106 224//106 228//106
f 228//106 224//106 222//106
f 232//107 229//107 225//107
f 225//107 229//107 226//107
f 232//108 223//108 229//108
f 229//108 223//108 224//108
f 233//100 234//100 235//100
f 235//100 234//100 236//100
f 233//101 237//101 234//101
f 234//101 237//101 238//101
f 238//102 239//102 234//102
f 234//102 239//102 240//102
f 241//103 236//103 242//103
f 242//103 236//103 243//103
f 242//104 239//104 241//104
f 241//104 239//104 238//104
f 242//105 243//105 239//105
f 239//105 243//105 240//105
f 243//106 236//106 240//106
f 240//106 236//106 234//106
f 244//107 241//107 237//107
f 237//107 241//107 238//107
f 244//108 235//108 241//108
f 241//108 235//108 236//108
f 245//100 246//100 247//100
f 247//100 246//100 248//100
f 245//101 249//101 246//101
f 246//101 249//101 250//101
f 250//102 251//102 246//102
f 246//102 251//102 252//102
f 253//103 248//103 254//103
f 254//103 248//103 255//103
f 254//104 251//104 253//104
f 253//104 251//104 250//104
f 254//105 255//105 251//105
f 251//105 255//105 252//105
f 255//106 248//106 252//106
f 252//106 248//106 246//106
f 256//107 253//107 249//107
f 249//107 253//107 250//107
f 256//108 247//108 253//108
f 253//108 247//108 248//108
f 257//109 258//110 259//111
f 259//111 258//112 260//113
f 259//111 260//113 261//114
f 259//115 261//114 262//116
f 262//116 261//114 263//116
f 262//116 263//116 264//117
f 262//116 264//117 265//118
f 265//119 264//117 266//120
f 265//119 266//120 267//121
f 267//122 268//123 265//119
f 265//119 268//124 269//125
f 268//124 270//126 269//127
f 269//125 270//126 271//128
f 270//126 272//129 271//128
f 271//128 272//129 273//130
f 272//129 274//131 273//130
f 273//130 274//131 275//132
f 274//131 276//133 275//132
f 275//134 276//135 277//136
f 276//133 278//137 277//138
f 277//136 278//139 279//140
f 278//137 280//141 279//142
f 279//142 280//141 281//143
f 280//141 282//144 281//145
f 281//143 282//144 283//146
f 282//144 284//147 283//146
f 283//146 284//147 285//148
f 284//147 286//149 285//150
f 285//148 286//149 287//151
f 286//152 288//153 287//151
f 287//151 288//154 289//155
f 287//151 289//155 290//156
f 287//157 290//156 291//158
f 291//159 290//156 292//160
f 291//158 292//160 293//161
f 293//162 292//160 294//163
f 293//162 294//163 295//164
f 295//165 296//166 293//162
f 293//162 296//166 297//167
f 296//168 298//169 297//170
f 297//167 298//169 299//171
f 298//169 300//172 299//171
f 299//171 300//172 301//173
f 300//172 302//174 301//173
f 301//175 302//174 303//176
f 302//174 304//177 303//176
f 303//178 304//179 305//180
f 304//177 306//181 305//182
f 305//180 306//183 307//184
f 306//181 308//185 307//186
f 307//186 308//185 309//187
f 308//185 310//188 309//189
f 309//187 310//188 311//190
f 310//188 312//191 311//190
f 311//190 312//191 313//192
f 312//191 257//193 313//194
f 313//192 257//109 259//111
f 267//195 266//195 314//195
f 314//195 266//195 289//195
f 314//195 289//195 315//195
f 315//195 289//195 288//195
f 264//107 261//107 266//107
f 266//107 261//107 260//107
f 266//107 260//107 289//107
f 289//107 260//107 294//107
f 289//107 294//107 290//107
f 290//107 294//107 292//107
f 264//107 263//107 261//107
f 258//105 316//105 260//105
f 260//105 316//105 317//105
f 260//105 317//105 294//105
f 294//105 317//105 295//105
f 314//107 315//107 318//107
f 318//107 315//107 319//107
f 318//107 319//107 320//107
f 320//107 319//107 321//107
f 320//107 321//107 322//107
f 322//107 321//107 323//107
f 322//107 323//107 324//107
f 324//107 323//107 325//107
f 324//107 325//107 326//107
f 326//107 325//107 327//107
f 267//196 314//196 268//197
f 268//197 314//196 318//197
f 268//197 318//197 320//198
f 268//197 320//198 270//198
f 270//198 320//198 322//199
f 270//198 322//199 272//199
f 272//199 322//199 274//200
f 322//199 324//200 274//200
f 274//200 324//200 326//201
f 274//200 326//201 276//201
f 276//201 326//201 327//202
f 276//201 327//202 278//202
f 278//202 327//202 325//203
f 278//202 325//203 280//203
f 280//203 325//203 282//204
f 325//203 323//204 282//204
f 282//204 323//204 321//205
f 282//204 321//205 284//205
f 284//205 321//205 319//206
f 284//205 319//206 286//206
f 286//206 319//206 288//207
f 319//206 315//207 288//207
f 316//208 258//208 328//209
f 328//209 258//208 257//209
f 328//209 257//209 312//210
f 328//209 312//210 329//211
f 329//210 312//210 310//212
f 329//210 310//212 330//212
f 330//212 310//212 331//213
f 310//212 308//213 331//213
f 331//214 308//214 306//215
f 331//213 306//215 332//215
f 332//215 306//215 304//216
f 332//215 304//216 333//216
f 333//216 304//216 302//217
f 333//216 302//217 334//217
f 334//217 302//217 335//218
f 302//217 300//218 335//218
f 335//218 300//218 298//219
f 335//218 298//219 336//219
f 336//219 298//220 296//221
f 336//219 296//221 337//221
f 337//221 296//221 317//222
f 296//221 295//222 317//222
f 317//107 316//107 337//107
f 337//107 316//107 328//107
f 337//107 328//107 336//107
f 336//107 328//107 329//107
f 336//107 329//107 335//107
f 335//107 329//107 330//107
f 335//107 330//107 334//107
f 334//107 330//107 331//107
f 334//107 331//107 333//107
f 333//107 331//107 332//107
